<svg width="23" height="27" viewBox="0 0 23 27" fill="none" xmlns="http://www.w3.org/2000/svg">
<path d="M5.46289 1.58806C5.46289 0.711001 6.17389 0 7.05096 0C7.92802 0 8.63902 0.711001 8.63902 1.58806V4.76419C8.63902 5.64126 7.92802 6.35226 7.05096 6.35226C6.17389 6.35226 5.46289 5.64126 5.46289 4.76419V1.58806Z" fill="#FF7700"/>
<path d="M14.229 1.58806C14.229 0.711001 14.94 0 15.8171 0C16.6941 0 17.4051 0.711001 17.4051 1.58806V4.76419C17.4051 5.64126 16.6941 6.35226 15.8171 6.35226C14.94 6.35226 14.229 5.64126 14.229 4.76419V1.58806Z" fill="#FF7700"/>
<foreignObject x="-17.1511" y="-13.9753" width="57.1704" height="57.1704"><div xmlns="http://www.w3.org/1999/xhtml" style="backdrop-filter:blur(8.58px);clip-path:url(#bgblur_0_336_1594_clip_path);height:100%;width:100%"></div></foreignObject><path data-figma-bg-blur-radius="17.1511" d="M0 7.62236C0 5.16658 1.9908 3.17578 4.44658 3.17578H18.4216C20.8773 3.17578 22.8681 5.16658 22.8681 7.62236V21.5973C22.8681 24.0531 20.8773 26.0439 18.4216 26.0439H4.44658C1.9908 26.0439 0 24.0531 0 21.5973V7.62236Z" fill="url(#paint0_linear_336_1594)" fill-opacity="0.3"/>
<foreignObject x="-17.1511" y="-13.9753" width="57.1704" height="57.1704"><div xmlns="http://www.w3.org/1999/xhtml" style="backdrop-filter:blur(8.58px);clip-path:url(#bgblur_1_336_1594_clip_path);height:100%;width:100%"></div></foreignObject><g data-figma-bg-blur-radius="17.1511">
<path fill-rule="evenodd" clip-rule="evenodd" d="M18.4216 3.30283H4.44658C2.06097 3.30283 0.127045 5.23675 0.127045 7.62236V21.5973C0.127045 23.9829 2.06097 25.9169 4.44658 25.9169H18.4216C20.8072 25.9169 22.7411 23.9829 22.7411 21.5973V7.62236C22.7411 5.23675 20.8072 3.30283 18.4216 3.30283ZM4.44658 3.17578C1.9908 3.17578 0 5.16658 0 7.62236V21.5973C0 24.0531 1.9908 26.0439 4.44658 26.0439H18.4216C20.8773 26.0439 22.8681 24.0531 22.8681 21.5973V7.62236C22.8681 5.16658 20.8773 3.17578 18.4216 3.17578H4.44658Z" fill="url(#paint1_linear_336_1594)"/>
<path fill-rule="evenodd" clip-rule="evenodd" d="M18.4216 3.30283H4.44658C2.06097 3.30283 0.127045 5.23675 0.127045 7.62236V21.5973C0.127045 23.9829 2.06097 25.9169 4.44658 25.9169H18.4216C20.8072 25.9169 22.7411 23.9829 22.7411 21.5973V7.62236C22.7411 5.23675 20.8072 3.30283 18.4216 3.30283ZM4.44658 3.17578C1.9908 3.17578 0 5.16658 0 7.62236V21.5973C0 24.0531 1.9908 26.0439 4.44658 26.0439H18.4216C20.8773 26.0439 22.8681 24.0531 22.8681 21.5973V7.62236C22.8681 5.16658 20.8773 3.17578 18.4216 3.17578H4.44658Z" fill="url(#paint2_radial_336_1594)"/>
</g>
<path d="M6.86756 12.4266C6.92447 11.6786 7.21312 11.0931 7.7335 10.6703C8.25388 10.2475 8.92874 10.0361 9.75809 10.0361C10.311 10.0361 10.7866 10.1378 11.1851 10.341C11.5916 10.5362 11.8965 10.8045 12.0998 11.146C12.3112 11.4875 12.4169 11.8737 12.4169 12.3047C12.4169 12.8088 12.2705 13.2438 11.9778 13.6097C11.6932 13.9756 11.3192 14.2113 10.8558 14.317V14.378C11.3843 14.5081 11.803 14.7642 12.112 15.1464C12.421 15.5286 12.5754 16.0286 12.5754 16.6465C12.5754 17.11 12.4697 17.5288 12.2583 17.9028C12.0469 18.2687 11.7298 18.5573 11.307 18.7687C10.8842 18.9801 10.376 19.0858 9.78248 19.0858C8.92061 19.0858 8.21322 18.8622 7.66032 18.415C7.10742 17.9597 6.79845 17.3173 6.7334 16.488H7.80668C7.86359 16.9759 8.0628 17.3743 8.4043 17.6832C8.74579 17.9922 9.20112 18.1467 9.77029 18.1467C10.3394 18.1467 10.7704 18.0003 11.0631 17.7076C11.3639 17.4068 11.5144 17.0206 11.5144 16.549C11.5144 15.9392 11.3111 15.5001 10.9045 15.2318C10.498 14.9635 9.88412 14.8293 9.0629 14.8293H8.78238V13.9024H9.0751C9.82314 13.8942 10.3882 13.7723 10.7704 13.5365C11.1525 13.2926 11.3436 12.9185 11.3436 12.4144C11.3436 11.9835 11.2013 11.6379 10.9167 11.3777C10.6403 11.1175 10.2419 10.9874 9.7215 10.9874C9.21739 10.9874 8.81084 11.1175 8.50187 11.3777C8.19289 11.6379 8.00995 11.9875 7.95303 12.4266H6.86756Z" fill="white"/>
<path d="M13.7813 11.2192V10.2069H16.0742V19.0248H14.9521V11.2192H13.7813Z" fill="white"/>
<defs>
<clipPath id="bgblur_0_336_1594_clip_path" transform="translate(17.1511 13.9753)"><path d="M0 7.62236C0 5.16658 1.9908 3.17578 4.44658 3.17578H18.4216C20.8773 3.17578 22.8681 5.16658 22.8681 7.62236V21.5973C22.8681 24.0531 20.8773 26.0439 18.4216 26.0439H4.44658C1.9908 26.0439 0 24.0531 0 21.5973V7.62236Z"/>
</clipPath><clipPath id="bgblur_1_336_1594_clip_path" transform="translate(17.1511 13.9753)"><path fill-rule="evenodd" clip-rule="evenodd" d="M18.4216 3.30283H4.44658C2.06097 3.30283 0.127045 5.23675 0.127045 7.62236V21.5973C0.127045 23.9829 2.06097 25.9169 4.44658 25.9169H18.4216C20.8072 25.9169 22.7411 23.9829 22.7411 21.5973V7.62236C22.7411 5.23675 20.8072 3.30283 18.4216 3.30283ZM4.44658 3.17578C1.9908 3.17578 0 5.16658 0 7.62236V21.5973C0 24.0531 1.9908 26.0439 4.44658 26.0439H18.4216C20.8773 26.0439 22.8681 24.0531 22.8681 21.5973V7.62236C22.8681 5.16658 20.8773 3.17578 18.4216 3.17578H4.44658Z"/>
</clipPath><linearGradient id="paint0_linear_336_1594" x1="2.44714" y1="5.28564" x2="27.1303" y2="18.0663" gradientUnits="userSpaceOnUse">
<stop stop-color="#A79485" stop-opacity="0.9"/>
<stop offset="0.447036" stop-color="#C59E99" stop-opacity="0.955296"/>
<stop offset="1" stop-color="#4E78FF" stop-opacity="0.9"/>
</linearGradient>
<linearGradient id="paint1_linear_336_1594" x1="3.29099" y1="2.35906" x2="24.726" y2="14.8742" gradientUnits="userSpaceOnUse">
<stop offset="0.188941" stop-color="#E7F0FF" stop-opacity="0.523483"/>
<stop offset="0.526042" stop-color="#88A4FF"/>
<stop offset="1" stop-color="#B4D2FF" stop-opacity="0.1"/>
</linearGradient>
<radialGradient id="paint2_radial_336_1594" cx="0" cy="0" r="1" gradientTransform="matrix(11.3075 -13.9523 13.9523 29.423 3.41756 25.2953)" gradientUnits="userSpaceOnUse">
<stop stop-color="white"/>
<stop offset="1" stop-color="white" stop-opacity="0"/>
</radialGradient>
</defs>
</svg>
