<svg width="37" height="37" viewBox="0 0 37 37" fill="none" xmlns="http://www.w3.org/2000/svg">
<ellipse cx="17.5357" cy="17.7866" rx="5.53037" ry="5.78175" fill="#FF7700"/>
<path d="M17.1966 4.44758C17.333 3.88294 18.683 3.88294 18.8194 4.44758C19.5277 7.37957 20.7793 11.0517 22.8718 13.1442C24.9643 15.2367 28.6365 16.4883 31.5685 17.1966C32.1331 17.333 32.1331 18.683 31.5685 18.8194C28.6365 19.5277 24.9643 20.7793 22.8718 22.8718C20.7793 24.9643 19.5277 28.6365 18.8194 31.5685C18.683 32.1331 17.333 32.1331 17.1966 31.5685C16.4883 28.6365 15.2367 24.9643 13.1442 22.8718C11.0517 20.7793 7.37957 19.5277 4.44758 18.8194C3.88294 18.683 3.88294 17.333 4.44758 17.1966C7.37957 16.4883 11.0517 15.2367 13.1442 13.1442C15.2367 11.0517 16.4883 7.37957 17.1966 4.44758Z" fill="#D5DFFF" fill-opacity="0.1"/>
</svg>
