<svg width="98" height="25" viewBox="0 0 98 25" fill="none" xmlns="http://www.w3.org/2000/svg">
<g clip-path="url(#clip0_336_1390)">
<path d="M16.4494 13.2122C15.5034 12.4945 14.1741 12.0459 12.4777 11.8665C13.277 11.4016 13.8805 10.8144 14.2801 10.1375C14.7286 9.37896 14.957 8.43289 14.957 7.33185C14.957 5.88827 14.4187 4.65674 13.3585 3.66988C12.2983 2.69119 10.9201 2.14474 9.24821 2.04688H0.0163108L0 2.82983L0.358837 2.87061C0.774761 2.91139 1.12544 3.09082 1.40273 3.39259C1.68816 3.70251 1.82681 4.05321 1.82681 4.48547V20.3649C1.82681 20.789 1.68816 21.156 1.40273 21.4577C1.11729 21.7595 0.766606 21.9389 0.358837 21.9797L0 22.0205V22.8035H8.89752C10.5857 22.8035 12.1026 22.5914 13.4075 22.1673C14.7205 21.7432 15.7807 21.1234 16.5554 20.3322C17.5912 19.2475 18.0886 17.91 18.0316 16.3522C17.9908 15.0554 17.4607 14.0033 16.4494 13.2367V13.2122ZM9.24821 12.0296C8.0983 12.5597 6.65479 13.2367 4.95032 14.0441V3.05004H7.16043C10.2513 3.1316 11.7519 4.58334 11.7519 7.4705C11.7519 9.73782 10.9037 11.2711 9.24005 12.0296H9.24821ZM4.95032 15.1778C5.11343 15.0962 5.49673 14.9168 6.09207 14.6395L8.06567 13.7097C8.69364 13.4161 9.1585 13.1959 9.46025 13.0572C9.73753 12.9186 10.0556 12.8289 10.3981 12.7881C10.5041 12.7718 10.5857 12.7636 10.6509 12.7636C11.336 12.7636 11.9476 12.886 12.4696 13.1306C12.9915 13.3753 13.3911 13.6526 13.6603 13.9625C13.9294 14.2725 14.1577 14.6476 14.329 15.0636C14.5084 15.4795 14.6226 15.8139 14.6634 16.0504C14.7123 16.2951 14.7368 16.5235 14.7449 16.7355C14.8673 18.4319 14.5737 19.6716 13.8723 20.422C13.1302 21.2049 11.7356 21.5964 9.74568 21.5964C8.08198 21.5964 6.46722 21.4088 4.94216 21.0418V15.1859L4.95032 15.1778Z" fill="#FAF3E8"/>
<path d="M39.9036 7.94332C39.349 6.60576 38.5743 5.43948 37.6038 4.48525C36.6333 3.53101 35.4507 2.77252 34.0806 2.22608C32.7105 1.67964 31.2181 1.40234 29.6523 1.40234C28.0864 1.40234 26.5777 1.67964 25.2076 2.22608C23.8375 2.77252 22.6468 3.53101 21.6763 4.48525C20.6977 5.43948 19.9229 6.59761 19.3683 7.94332C18.8138 9.28087 18.5283 10.7489 18.5283 12.2985C18.5283 13.8481 18.8138 15.3162 19.3683 16.6537C19.9229 17.9913 20.6977 19.1576 21.6763 20.1118C22.6468 21.066 23.8375 21.8245 25.2076 22.371C26.5777 22.9174 28.0701 23.1947 29.6523 23.1947C31.2344 23.1947 32.7105 22.9174 34.0806 22.371C35.4507 21.8245 36.6333 21.066 37.6038 20.1118C38.5743 19.1576 39.349 17.9995 39.9036 16.6537C40.4581 15.3162 40.7436 13.8481 40.7436 12.2985C40.7436 10.7489 40.4581 9.28087 39.9036 7.94332ZM37.5141 13.8889C37.5141 16.2949 36.8861 18.2686 35.6546 19.7448C34.4232 21.2128 32.7839 21.9632 30.7859 21.9632C29.7501 21.9632 28.7389 21.743 27.7928 21.3189C26.8468 20.8866 25.9987 20.2994 25.281 19.5654C24.5633 18.8232 23.9272 17.9668 23.3971 17.0126C22.867 16.0584 22.4592 15.0226 22.1738 13.9379C21.8965 12.8531 21.7579 11.7602 21.7579 10.6755C21.7579 8.27771 22.3858 6.31215 23.6173 4.8441C24.8487 3.38421 26.488 2.64203 28.486 2.64203C29.7746 2.64203 31.0061 2.97642 32.1478 3.63704C33.2896 4.29766 34.2601 5.17034 35.0267 6.23059C35.7933 7.29085 36.4131 8.51423 36.8535 9.85178C37.2939 11.1893 37.5222 12.5514 37.5222 13.9052L37.5141 13.8889Z" fill="#FAF3E8"/>
<path d="M58.0257 18.9703C57.8463 18.9784 57.5935 18.9866 57.2265 18.9866C55.2284 18.9866 53.263 18.6196 51.3954 17.8937C49.642 17.2168 48.0517 16.2544 46.6571 15.0392C47.5297 15.2023 48.4758 15.3001 49.4789 15.3328C50.8653 15.3735 52.1538 15.186 53.3282 14.7782C54.5026 14.3704 55.5139 13.7669 56.3375 12.9676C57.0063 12.3151 57.5282 11.5485 57.8952 10.6839C58.2541 9.81943 58.4335 8.90598 58.4335 7.94359C58.4335 6.11669 57.7158 4.65679 56.2886 3.60469C54.8777 2.55259 52.9286 2.02246 50.5064 2.02246H40.5977V2.80542L40.9402 2.8462C41.348 2.87882 41.6986 3.05825 41.9841 3.36817C42.2614 3.67809 42.4163 4.04511 42.4245 4.46105V20.3404C42.4245 20.7646 42.2858 21.1316 42.0004 21.4333C41.7149 21.7351 41.3643 21.9145 40.9402 21.9553L40.5977 21.9961V22.779H47.3748V21.9961L47.0159 21.9553C46.6 21.9145 46.2493 21.7351 45.9639 21.4333C45.6785 21.1316 45.5317 20.7646 45.5317 20.3404V15.8058C46.5348 17.4451 47.8315 18.8479 49.4055 19.9897C51.0773 21.205 52.9449 22.0369 54.9511 22.461L55.1387 22.5017L59.1104 18.905L58.0094 18.9621L58.0257 18.9703ZM45.5398 4.84438V3.10719H49.0385C50.0742 3.10719 50.9795 3.22137 51.7298 3.45789C52.4719 3.68625 53.0672 3.97986 53.4832 4.33056C53.8991 4.68126 54.2416 5.12983 54.4863 5.66812C54.7391 6.2064 54.9022 6.73653 54.9756 7.23403C55.049 7.7397 55.0898 8.32692 55.0898 8.97938C55.0898 9.50951 55.049 10.0233 54.9593 10.4882C54.8696 10.9531 54.7065 11.4261 54.4618 11.9073C54.2171 12.3885 53.8991 12.8045 53.5158 13.1389C53.1325 13.4814 52.6024 13.7587 51.95 13.9789C51.2975 14.191 50.5228 14.3051 49.6583 14.3051H49.3647C48.9406 14.2888 48.4921 14.2562 48.0354 14.2236L47.7662 14.1991C47.0486 14.1094 46.2983 13.9871 45.5398 13.8239V5.25217H45.5806L45.5398 4.84438Z" fill="#FAF3E8"/>
<path d="M75.9665 4.65674C74.0256 2.9277 71.3017 2.04688 67.8764 2.04688H58.8076V2.82983L59.1665 2.87061C59.5905 2.90324 59.9331 3.07451 60.2185 3.39259C60.4958 3.70251 60.6344 4.07768 60.6344 4.50178V20.3486C60.6344 20.7727 60.4958 21.1397 60.2185 21.4577C59.9412 21.7758 59.5987 21.9471 59.1665 21.9797L58.8076 22.0205V22.8035H67.3137C69.5483 22.8035 71.5708 22.3386 73.316 21.4251C75.0695 20.5117 76.4477 19.2149 77.4264 17.5593C78.3969 15.9036 78.8943 14.0033 78.8943 11.9073C78.8943 8.84068 77.9075 6.40209 75.9665 4.6649V4.65674ZM75.4446 13.2611C75.4446 16.1728 74.8166 18.3096 73.5933 19.6145C72.3619 20.9195 70.3475 21.5801 67.5991 21.5801C66.1475 21.5801 64.8589 21.3109 63.7661 20.789V3.07451H66.7428C67.7867 3.07451 68.749 3.19685 69.6135 3.44152C70.478 3.6862 71.2038 4.01243 71.791 4.41206C72.37 4.8117 72.892 5.30105 73.3405 5.87196C73.7891 6.44287 74.1479 7.03009 74.4007 7.6173C74.6617 8.21268 74.8737 8.86515 75.0368 9.55839C75.1999 10.2598 75.306 10.9041 75.3631 11.475C75.4201 12.0459 75.4446 12.6494 75.4446 13.253V13.2611Z" fill="#FAF3E8"/>
<path d="M101.094 7.94332C100.54 6.60576 99.7652 5.43948 98.7947 4.48525C97.8242 3.53101 96.6417 2.77252 95.2716 2.22608C93.9015 1.67964 92.409 1.40234 90.8432 1.40234C89.2773 1.40234 87.7686 1.67964 86.3985 2.22608C85.0284 2.77252 83.8377 3.53101 82.8672 4.48525C81.8886 5.43948 81.1138 6.59761 80.5592 7.94332C80.0047 9.28087 79.7192 10.7489 79.7192 12.2985C79.7192 13.8481 80.0047 15.3162 80.5592 16.6537C81.1138 17.9913 81.8886 19.1576 82.8672 20.1118C83.8459 21.066 85.0284 21.8245 86.3985 22.371C87.7686 22.9174 89.261 23.1947 90.8432 23.1947C92.4253 23.1947 93.9015 22.9174 95.2716 22.371C96.6417 21.8245 97.8242 21.066 98.7947 20.1118C99.7652 19.1576 100.54 17.9995 101.094 16.6537C101.649 15.3162 101.935 13.8481 101.935 12.2985C101.935 10.7489 101.657 9.28087 101.094 7.94332ZM98.7131 13.8889C98.7131 16.2949 98.0852 18.2686 96.8537 19.7448C95.6222 21.2128 93.983 21.9632 91.9849 21.9632C90.9492 21.9632 89.9379 21.743 88.9919 21.3189C88.0459 20.8866 87.1977 20.2994 86.4801 19.5654C85.7624 18.8232 85.1263 17.9668 84.5962 17.0126C84.0661 16.0584 83.6583 15.0226 83.3729 13.9379C83.0956 12.8531 82.9569 11.7602 82.9569 10.6755C82.9569 8.27771 83.5849 6.31215 84.8164 4.8441C86.0478 3.38421 87.687 2.64203 89.6851 2.64203C90.9737 2.64203 92.2051 2.97642 93.3469 3.63704C94.4886 4.29766 95.4591 5.17034 96.2257 6.23059C96.9923 7.29085 97.6122 8.51423 98.0525 9.85178C98.4929 11.1893 98.7213 12.5514 98.7213 13.9052L98.7131 13.8889Z" fill="#FAF3E8"/>
</g>
<defs>
<clipPath id="clip0_336_1390">
<rect width="164.861" height="24.6048" fill="white"/>
</clipPath>
</defs>
</svg>
