<svg width="73" height="29" viewBox="0 0 73 29" fill="none" xmlns="http://www.w3.org/2000/svg">
<path d="M19.6279 16.9535C18.1003 15.8939 16.1098 15.3343 14.1656 15.3012C15.6833 15.0627 17.2142 14.4435 18.388 13.5263C19.6147 12.5661 20.4546 11.2747 20.4546 9.7581C20.4546 8.77135 20.19 7.92697 19.737 7.21836C19.0559 6.15213 17.9582 5.39385 16.6984 4.89385C15.4386 4.39716 14.0135 4.15875 12.681 4.14551H3.99481C3.92868 4.14551 3.87247 4.16869 3.8361 4.20842C3.79642 4.24816 3.77989 4.29783 3.7832 4.34749C3.7832 4.40048 3.80304 4.45346 3.83941 4.4965C3.87578 4.53955 3.93199 4.56935 3.99812 4.56935H5.64476C5.72411 4.56935 5.76379 4.58591 5.78363 4.60577C5.80347 4.62564 5.82 4.66538 5.82 4.74485V28.0363C5.82 28.1058 5.79685 28.1422 5.76379 28.172L5.64476 28.2118H3.99812C3.92538 28.2118 3.85925 28.235 3.81626 28.2714C3.76997 28.3111 3.74683 28.3641 3.74683 28.4204C3.74683 28.4767 3.77328 28.5297 3.81626 28.5694C3.86255 28.6091 3.92538 28.629 3.99812 28.629H13.4547C15.6205 28.629 17.8226 28.0661 19.4891 26.9303C21.1555 25.7946 22.283 24.076 22.283 21.7912C22.283 19.6753 21.2051 18.0462 19.6312 16.9568L19.6279 16.9535ZM18.0706 26.7317C16.8835 27.7548 15.2468 28.2085 13.4547 28.2085H8.13124C8.05189 28.2085 8.01221 28.1919 7.99237 28.172C7.97253 28.1522 7.956 28.1124 7.956 28.033V15.7217C7.956 15.6488 7.97584 15.6091 8.00229 15.5859C8.02874 15.5628 8.07172 15.5462 8.13124 15.5462H12.5785C14.7442 15.5462 16.6025 15.8806 17.9152 16.821C18.5699 17.2912 19.0923 17.9137 19.4494 18.7283C19.8065 19.5429 20.0049 20.5495 20.0049 21.7879C20.0049 24.1058 19.2576 25.7052 18.0706 26.7283V26.7317ZM16.6851 13.8839C15.637 14.7416 14.1094 15.1257 12.228 15.1257H8.13124C8.05189 15.1257 8.01221 15.1091 7.99237 15.0892C7.97253 15.0694 7.956 15.0296 7.956 14.9502V4.74154C7.956 4.66869 7.97584 4.62895 8.00229 4.60577C8.02874 4.58259 8.07172 4.56604 8.13124 4.56604H12.5785C14.04 4.56604 15.4783 4.88061 16.5463 5.68193C17.6143 6.48657 18.3219 7.77465 18.3219 9.75479C18.3219 11.6886 17.7333 13.023 16.6851 13.8806V13.8839Z" fill="#FAF3E8"/>
<path d="M44.2255 28.2249C44.1329 28.1852 44.004 28.1521 43.8453 28.1157C43.3691 28.0097 42.6252 27.8806 41.9209 27.5494C40.7504 26.9998 40.0825 26.0826 39.527 24.9766C38.9715 23.8706 38.535 22.5792 37.8307 21.3011C36.9578 19.7249 35.3707 17.6289 32.2428 15.705C33.982 15.5527 35.6848 15.013 36.9743 14.066C38.3168 13.0792 39.2062 11.6421 39.2062 9.76132C39.2062 8.76794 38.9384 7.91364 38.4755 7.19509C37.7844 6.11893 36.6702 5.34741 35.3905 4.84741C34.1109 4.3474 32.6726 4.1123 31.3235 4.1123H23.2689C23.1995 4.1123 23.14 4.13548 23.1003 4.17522C23.0606 4.21495 23.0408 4.26793 23.0408 4.32091C23.0408 4.37389 23.0606 4.42687 23.1003 4.46661C23.14 4.50635 23.1995 4.53284 23.2689 4.52952H25.0908V27.9269C25.0908 28.0395 25.0677 28.1057 25.028 28.1455C24.9916 28.1852 24.9255 28.2084 24.8097 28.2084H23.1995V28.2779C23.1995 28.3706 23.1995 28.4634 23.1995 28.5594V28.6289H29.1181C29.1776 28.6289 29.2272 28.5958 29.2537 28.5528C29.2801 28.5097 29.2901 28.4634 29.2901 28.417C29.2901 28.3706 29.2801 28.3243 29.2537 28.2812C29.2272 28.2415 29.1776 28.2051 29.1181 28.2051H27.5078C27.3954 28.2051 27.3293 28.1819 27.2896 28.1422C27.2499 28.1057 27.2268 28.0395 27.2268 27.9236V15.715H30.7581C31.6972 15.8541 32.5469 16.417 33.3703 17.4501C34.1969 18.4865 34.9905 19.9898 35.8138 21.9832C36.6106 23.9203 37.3976 25.5031 38.2969 26.6753C39.1963 27.8441 40.2147 28.5991 41.4679 28.8673C41.782 28.9336 42.106 28.9634 42.4135 28.9634C42.9227 28.9634 43.3989 28.8905 43.756 28.7879C43.9345 28.7382 44.08 28.6819 44.1858 28.619C44.2387 28.5892 44.285 28.5594 44.3181 28.523C44.3511 28.4898 44.3776 28.4501 44.3809 28.3971V28.3905L44.3545 28.3077C44.3214 28.2647 44.2784 28.2415 44.2255 28.215V28.2249ZM31.3235 15.3011H27.2268V4.53284H31.3269C32.7883 4.53284 34.2267 4.85734 35.2946 5.6686C36.3626 6.47986 37.0702 7.77788 37.0702 9.76132C37.0702 11.7646 36.4222 13.1322 35.3839 14.013C34.3457 14.8938 32.9074 15.2845 31.3269 15.3044L31.3235 15.3011Z" fill="#FAF3E8"/>
<path d="M51.2776 28.2089H49.6673C49.588 28.2089 49.5483 28.1923 49.5284 28.1724C49.5086 28.1526 49.4921 28.1128 49.4921 28.0334V4.74192C49.4921 4.66245 49.5086 4.62271 49.5284 4.60284C49.5483 4.58298 49.588 4.56642 49.6673 4.56642H51.2445C51.304 4.56642 51.3536 4.53331 51.3801 4.49026C51.4065 4.44721 51.4165 4.40086 51.4165 4.3545C51.4165 4.30814 51.4065 4.26178 51.3801 4.21874C51.3536 4.179 51.304 4.14258 51.2445 4.14258H45.7094C45.6466 4.14258 45.5904 4.16907 45.5573 4.21211C45.5243 4.25185 45.5077 4.30483 45.5077 4.3545C45.5077 4.40417 45.5243 4.45384 45.5573 4.49688C45.5904 4.53993 45.6466 4.56642 45.7094 4.56642H47.2139C47.2933 4.56642 47.3329 4.58298 47.3528 4.60284C47.3726 4.62271 47.3891 4.66245 47.3891 4.74192V28.0334C47.3891 28.1128 47.3726 28.1526 47.3528 28.1724C47.3329 28.1923 47.2933 28.2089 47.2139 28.2089H45.5673C45.4978 28.2089 45.4383 28.232 45.3986 28.2718C45.359 28.3115 45.3391 28.3645 45.3391 28.4175C45.3391 28.4704 45.359 28.5234 45.3986 28.5632C45.4383 28.6029 45.4978 28.6294 45.5673 28.6261H51.2776C51.3404 28.6261 51.3966 28.5996 51.4297 28.5565C51.4627 28.5168 51.4793 28.4638 51.4793 28.4142C51.4793 28.3645 51.4627 28.3148 51.4297 28.2718C51.3966 28.2287 51.3404 28.2022 51.2776 28.2022V28.2089Z" fill="#FAF3E8"/>
<path d="M72.832 28.2784C72.7989 28.2353 72.7427 28.2089 72.6799 28.2089H71.4929L63.5143 15.126L69.8826 4.56642H71.9789C72.0384 4.56642 72.088 4.53331 72.1145 4.49026C72.1409 4.44721 72.1509 4.40086 72.1509 4.3545C72.1509 4.30814 72.1409 4.26178 72.1145 4.21874C72.088 4.179 72.0384 4.14258 71.9789 4.14258H67.4953C67.4292 4.14258 67.373 4.16576 67.3366 4.20549C67.2969 4.24523 67.2804 4.2949 67.2837 4.34457C67.2837 4.39755 67.3035 4.45053 67.3399 4.49357C67.3763 4.53662 67.4325 4.56642 67.4986 4.56642H69.3701L63.2233 14.6757L57.0765 4.56642H58.5645C58.6273 4.56642 58.6835 4.53993 58.7166 4.49688C58.7496 4.45715 58.7662 4.40417 58.7662 4.3545C58.7662 4.30483 58.7496 4.25516 58.7166 4.21211C58.6835 4.16907 58.6273 4.14258 58.5645 4.14258H52.8211C52.7583 4.14258 52.702 4.16907 52.669 4.21211C52.6359 4.25185 52.6194 4.30483 52.6194 4.3545C52.6194 4.40417 52.6359 4.45384 52.669 4.49688C52.702 4.53993 52.7583 4.56642 52.8211 4.56642H54.5669L61.9503 16.8082L55.0232 28.2089H53.0294C52.9666 28.2089 52.9104 28.2353 52.8773 28.2784C52.8442 28.3181 52.8277 28.3711 52.8277 28.4208C52.8277 28.4704 52.8442 28.5201 52.8773 28.5632C52.9104 28.6062 52.9666 28.6327 53.0294 28.6327H57.4436C57.5064 28.6327 57.5626 28.6062 57.5957 28.5632C57.6287 28.5234 57.6453 28.4704 57.6453 28.4208C57.6453 28.3711 57.6287 28.3214 57.5957 28.2784C57.5626 28.2353 57.5064 28.2089 57.4436 28.2089H55.6052L62.2082 17.2585L68.8444 28.2089H67.4622C67.4027 28.2089 67.3531 28.242 67.3267 28.285C67.3002 28.3281 67.2903 28.3744 67.2903 28.4208C67.2903 28.4671 67.3002 28.5135 67.3267 28.5565C67.3531 28.5963 67.4027 28.6327 67.4622 28.6327H72.6799C72.7427 28.6327 72.7989 28.6062 72.832 28.5632C72.8651 28.5234 72.8816 28.4704 72.8816 28.4208C72.8816 28.3711 72.8651 28.3214 72.832 28.2784Z" fill="#FAF3E8"/>
<path d="M1.80277 0C0.807518 0 0.000732422 0.807949 0.000732422 1.80464C0.000732422 2.80133 0.807518 3.60928 1.80277 3.60928C2.79803 3.60928 3.60481 2.80133 3.60481 1.80464C3.60481 0.807949 2.79803 0 1.80277 0ZM1.80277 3.06292C1.2572 3.06292 0.817437 2.50001 0.817437 1.80464C0.817437 1.10927 1.26051 0.546359 1.80277 0.546359C2.34504 0.546359 2.78811 1.10927 2.78811 1.80464C2.78811 2.50001 2.34504 3.06292 1.80277 3.06292Z" fill="#FAF3E8"/>
</svg>
