<svg width="104" height="25" viewBox="0 0 104 25" fill="none" xmlns="http://www.w3.org/2000/svg">
<g clip-path="url(#clip0_336_1377)">
<path d="M100.558 1.28182C100.558 1.28182 100.63 1.33308 100.63 1.36384C100.63 1.40485 100.547 1.46637 100.496 1.44587C100.496 1.41511 100.465 1.3741 100.465 1.34334C100.465 1.30233 100.506 1.26131 100.547 1.28182M100.64 3.28114C100.64 3.28114 100.578 3.24013 100.588 3.18886C100.588 3.17861 100.599 3.16836 100.609 3.14785C100.64 3.16836 100.671 3.18886 100.701 3.21962C100.671 3.24013 100.65 3.28114 100.64 3.27089M96.1265 8.07951C96.2188 8.36659 96.1983 8.65367 96.229 8.951C96.229 9.02277 96.2598 9.09455 96.2906 9.15606C96.3316 9.22783 96.3932 9.2996 96.4342 9.37138C96.4957 9.4534 96.547 9.53542 96.6086 9.61744C96.4957 10.0686 96.5778 10.5505 96.4034 11.0016C96.4034 11.0118 96.4034 11.0323 96.4034 11.0426C96.4342 11.2682 96.3624 11.4732 96.3419 11.6988C96.3214 11.8423 96.3214 11.9859 96.4034 12.1192C96.4239 12.1499 96.4342 12.2012 96.4342 12.2422C96.4137 12.396 96.3829 12.5703 96.2496 12.6728C96.1367 12.7548 96.1162 12.8574 96.1162 12.9701C96.1162 13.3085 96.1162 13.6366 96.1983 13.9749C96.2496 14.139 96.2598 14.3235 96.2701 14.4978C96.3008 14.949 96.2803 15.4001 96.2701 15.8512C96.2496 16.2306 96.1983 16.6099 96.2496 16.9893C96.2598 17.0611 96.2496 17.1328 96.2393 17.2046C96.2188 17.4097 96.2085 17.6147 96.1983 17.8198C96.1983 17.9223 96.1983 18.0248 96.2188 18.1274C96.3111 18.4555 96.2906 18.7938 96.2803 19.1322C96.2803 19.368 96.2085 19.5935 96.3008 19.8191C96.3316 19.8909 96.3008 19.9934 96.3008 20.0754C96.2598 20.4855 96.2496 20.8957 96.1778 21.2955C96.1162 21.6646 96.1572 21.9722 96.3521 22.3003C96.5163 22.5771 96.6804 22.854 96.8548 23.1205C97.0599 23.4384 97.3574 23.5512 97.7164 23.5614C97.8292 23.5614 97.9523 23.5614 98.0754 23.5819C98.7421 23.6947 99.4191 23.828 100.086 23.951C100.301 23.992 100.517 24.0433 100.742 24.0741C101.142 24.1253 101.522 24.2484 101.871 24.4432C102.045 24.5457 102.23 24.5765 102.425 24.5867C102.619 24.597 102.773 24.5047 102.845 24.3304C102.917 24.1663 102.948 23.992 102.948 23.8177C102.948 23.4281 102.989 23.0283 102.927 22.6387C102.907 22.5259 102.927 22.4028 102.937 22.2901C102.968 21.9415 103.02 21.5929 103.03 21.2443C103.05 20.383 103.071 19.5218 102.886 18.6708C102.876 18.6195 102.886 18.558 102.886 18.4965C102.886 18.3222 102.886 18.1479 102.855 17.9736C102.804 17.666 102.804 17.3584 102.804 17.0508C102.804 16.5382 102.784 16.0255 102.773 15.5231C102.773 15.2873 102.753 15.0617 102.773 14.8259C102.794 14.6926 102.804 14.5594 102.773 14.4363C102.691 14.0057 102.722 13.5648 102.691 13.1239C102.681 13.0112 102.691 12.8881 102.691 12.7753C102.691 12.5293 102.712 12.2832 102.712 12.0269C102.712 10.8991 102.691 9.78149 102.702 8.65367C102.702 7.92571 102.691 7.19776 102.661 6.4698C102.64 5.97766 102.63 5.47526 102.64 4.98312C102.64 4.54225 102.64 4.11163 102.568 3.67075C102.517 3.35291 102.496 3.03507 102.568 2.71723C102.589 2.6147 102.589 2.51217 102.558 2.41989C102.414 2.00978 102.281 1.58941 102.137 1.17929C102.117 1.11777 102.066 1.05626 102.035 1.00499C101.963 0.994738 101.922 0.974232 101.881 0.984485C101.717 0.994738 101.563 0.984485 101.43 0.86145C101.378 0.820438 101.286 0.779427 101.224 0.789679C101.03 0.820438 100.814 0.789679 100.64 0.943473C100.599 0.974232 100.527 0.974232 100.476 0.974232C100.435 0.974232 100.394 0.953726 100.353 0.93322C100.065 0.810185 99.7782 0.799932 99.4807 0.881956C99.2858 0.93322 99.1012 0.922967 98.9063 0.881956C98.8755 0.881956 98.8447 0.86145 98.8242 0.851197C98.6396 0.789679 98.5062 0.851197 98.4036 1.00499C98.3524 1.08701 98.2806 1.16904 98.219 1.25106C98.1882 1.30233 98.178 1.35359 98.1575 1.41511C98.1369 1.46637 98.1575 1.49713 98.2087 1.51764C98.219 1.51764 98.2395 1.51764 98.2498 1.52789C98.26 1.52789 98.2806 1.52789 98.2908 1.53814C98.3113 1.5689 98.3524 1.60991 98.3524 1.64067C98.3524 1.67143 98.2908 1.71244 98.26 1.70219C98.0959 1.66118 98.0036 1.73295 97.9421 1.86624C97.9421 1.87649 97.9215 1.88674 97.9113 1.88674C97.8908 1.88674 97.8497 1.88674 97.8395 1.86624C97.819 1.84573 97.8087 1.81497 97.8087 1.78421C97.7984 1.70219 97.7984 1.60991 97.6754 1.58941C97.5933 1.57915 97.5625 1.49713 97.542 1.42536C97.501 1.33308 97.4702 1.23056 97.4292 1.13828C97.4292 1.13828 97.4087 1.13828 97.3881 1.13828C97.3676 1.14853 97.3266 1.15878 97.3163 1.17929C97.2035 1.40485 97.1317 1.64067 96.9471 1.82522C96.8958 1.86624 96.8855 1.95851 96.865 2.03028C96.8445 2.10205 96.824 2.17382 96.8137 2.24559C96.7932 2.29686 96.7214 2.31736 96.6701 2.28661C96.6291 2.2661 96.6086 2.22509 96.5368 2.16357C96.5881 2.34812 96.6496 2.47116 96.6599 2.59419C96.6701 2.79925 96.6599 3.00431 96.6599 3.20937C96.6599 3.36316 96.6086 3.49645 96.4855 3.59898C96.3829 3.681 96.3521 3.78353 96.3521 3.90657C96.3521 4.0296 96.3316 4.14238 96.2701 4.24491C96.147 4.47048 96.1367 4.71655 96.1572 4.97287C96.1572 5.10616 96.1778 5.23945 96.2085 5.36248C96.2803 5.7726 96.2906 6.17246 96.2085 6.58258C96.0957 7.08497 96.1572 7.59762 96.1675 8.11027" fill="#FAF3E8"/>
<path d="M100.69 3.21923L100.823 3.31151C100.823 3.31151 100.844 3.2705 100.844 3.23974C100.844 3.20898 100.844 3.15772 100.803 3.10645C100.772 3.06544 100.721 3.03468 100.669 3.02443C100.618 3.02443 100.567 3.02443 100.536 3.04493L100.69 3.21923ZM100.649 3.54733C100.649 3.54733 100.628 3.54733 100.618 3.54733C100.526 3.54733 100.454 3.49606 100.403 3.42429C100.362 3.37303 100.321 3.291 100.331 3.15771C100.341 3.07569 100.382 3.01417 100.403 3.00392L100.567 2.80912L101.131 3.20898L100.885 3.42429C100.885 3.42429 100.772 3.54733 100.649 3.54733ZM98.3101 1.42497C98.3101 1.42497 98.3203 1.42497 98.3306 1.42497C98.3306 1.42497 98.3203 1.42497 98.3101 1.42497ZM100.556 1.28143L100.454 1.5275C100.515 1.54801 100.587 1.54801 100.639 1.50699C100.69 1.47624 100.721 1.43522 100.731 1.37371L100.495 1.44548L100.587 1.19941C100.587 1.19941 100.577 1.19941 100.567 1.19941C100.536 1.19941 100.495 1.19941 100.474 1.19941C100.464 1.19941 100.444 1.20966 100.433 1.21991C100.392 1.26092 100.362 1.3327 100.372 1.42497C100.382 1.49674 100.433 1.51725 100.454 1.5275L100.556 1.29168V1.28143ZM96.6586 11.0832C96.6586 11.0832 96.6586 11.0832 96.6586 11.0935C96.6586 11.0935 96.6586 11.0935 96.6586 11.0832ZM96.6791 11.0525C96.6996 11.2268 96.6689 11.3908 96.6381 11.5344C96.6381 11.5959 96.6176 11.6574 96.6073 11.7189C96.5971 11.8522 96.5971 11.9137 96.6278 11.9752C96.6894 12.0675 96.7099 12.1803 96.6996 12.2828C96.6689 12.4776 96.6278 12.7237 96.4022 12.8877C96.3919 12.898 96.3816 12.9082 96.3816 12.9698C96.3816 13.0313 96.3816 13.0928 96.3816 13.1646C96.3816 13.4311 96.3816 13.6772 96.4535 13.913C96.5047 14.0873 96.515 14.2616 96.5253 14.4359V14.4872C96.5663 14.9486 96.5458 15.41 96.5253 15.8508C96.5253 15.9739 96.515 16.0866 96.5047 16.1892C96.4842 16.4558 96.4637 16.7121 96.5047 16.9581C96.515 17.0402 96.5047 17.1222 96.5047 17.1837C96.5047 17.2042 96.5047 17.2247 96.5047 17.235V17.3888C96.4842 17.5426 96.474 17.6861 96.4637 17.8296C96.4637 17.9014 96.4637 17.9937 96.474 18.0552C96.5765 18.4141 96.556 18.7627 96.5458 19.101V19.1318C96.5458 19.1933 96.5355 19.2651 96.5253 19.3266C96.515 19.4701 96.4945 19.6034 96.5458 19.7162C96.5971 19.8392 96.5765 19.952 96.5663 20.0443V20.0955C96.5458 20.2083 96.5458 20.3211 96.5355 20.4339C96.515 20.7312 96.4842 21.0388 96.4329 21.3361C96.3817 21.6437 96.4227 21.9001 96.5765 22.1666C96.7509 22.464 96.915 22.7305 97.0792 22.9766C97.2228 23.1919 97.4177 23.2842 97.7254 23.3047C97.7562 23.3047 97.7972 23.3047 97.828 23.3047C97.9203 23.3047 98.0126 23.3047 98.1152 23.3252C98.7101 23.4277 99.2948 23.5405 99.8897 23.6431L100.126 23.6841C100.208 23.6943 100.28 23.7148 100.362 23.7353C100.505 23.7661 100.639 23.7866 100.772 23.8071C101.213 23.8584 101.634 24.0019 102.003 24.207C102.116 24.2685 102.249 24.2992 102.444 24.3197C102.526 24.3197 102.567 24.2992 102.598 24.2275C102.649 24.0942 102.68 23.9506 102.68 23.8174C102.68 23.6738 102.68 23.5405 102.68 23.4072C102.68 23.1509 102.69 22.9048 102.659 22.669C102.639 22.546 102.659 22.423 102.659 22.3102V22.2589C102.68 22.1359 102.69 22.0128 102.7 21.8898C102.731 21.6642 102.752 21.4489 102.752 21.2336C102.772 20.3314 102.782 19.5214 102.618 18.7216C102.608 18.6601 102.608 18.5986 102.608 18.5576V18.5166C102.608 18.4653 102.608 18.4038 102.608 18.3423C102.608 18.2295 102.608 18.127 102.587 18.0245C102.536 17.7066 102.536 17.3888 102.526 17.0812C102.526 16.5583 102.516 16.0456 102.495 15.533V15.4305C102.485 15.2254 102.475 15.0101 102.505 14.7845C102.526 14.6512 102.526 14.559 102.505 14.4769C102.454 14.1899 102.444 13.913 102.434 13.6362C102.434 13.4619 102.434 13.3081 102.413 13.1441C102.413 13.0415 102.413 12.9493 102.413 12.8672V12.5084C102.434 12.3546 102.434 12.1905 102.434 12.0367C102.434 11.6574 102.434 11.2678 102.434 10.8884C102.434 10.1605 102.423 9.40174 102.434 8.66353C102.434 7.97659 102.434 7.26914 102.393 6.48991C102.372 5.9055 102.362 5.43386 102.372 4.98274C102.372 4.47009 102.362 4.08048 102.3 3.72163C102.259 3.43454 102.218 3.05519 102.3 2.66557C102.311 2.60406 102.311 2.55279 102.3 2.50153L102.146 2.02989C102.064 1.77357 101.972 1.51725 101.88 1.26092C101.88 1.26092 101.88 1.25067 101.88 1.24042C101.736 1.24042 101.469 1.26092 101.244 1.04561C101.192 1.04561 101.141 1.04561 101.1 1.05587C100.967 1.06612 100.885 1.07637 100.823 1.12764C100.823 1.12764 100.803 1.13789 100.803 1.14814C100.854 1.19941 100.905 1.26092 100.915 1.34295C100.936 1.44548 100.895 1.55826 100.803 1.64028C100.721 1.71205 100.577 1.77357 100.433 1.72231L100.3 1.68129L100.259 1.54801C100.259 1.54801 100.218 1.43522 100.218 1.34295C100.218 1.28143 100.249 1.23017 100.28 1.1789H100.259C100.023 1.07637 99.7974 1.06612 99.5512 1.12764C99.3256 1.18915 99.0999 1.18915 98.8537 1.12764C98.8229 1.12764 98.7922 1.10713 98.7717 1.09688C98.6999 1.07637 98.6896 1.06612 98.6383 1.13789C98.6075 1.1789 98.5768 1.23017 98.5357 1.27118C98.5152 1.29168 98.4947 1.32244 98.4844 1.34295C98.4947 1.3532 98.505 1.36345 98.5152 1.38396C98.5665 1.43522 98.6383 1.53775 98.628 1.67104C98.628 1.75306 98.5665 1.84534 98.4742 1.90686C98.3921 1.96838 98.2998 1.97863 98.2075 1.95812C98.2075 1.95812 98.1972 1.97863 98.187 1.98888C98.1357 2.08116 98.0229 2.16318 97.8895 2.15293C97.8485 2.15293 97.7356 2.14268 97.6536 2.06065C97.5818 1.99914 97.551 1.90686 97.5407 1.84534C97.4689 1.81458 97.4074 1.76332 97.3664 1.7018C97.3048 1.80433 97.2433 1.91711 97.1407 2.00939C97.1407 2.01964 97.1407 2.04015 97.1305 2.0504C97.1305 2.07091 97.1202 2.09141 97.1099 2.11192C97.1099 2.14268 97.0894 2.17343 97.0894 2.21445C97.0894 2.25546 97.0689 2.28622 97.0587 2.31698C97.0279 2.399 96.9766 2.47077 96.8945 2.51178C96.8945 2.53229 96.8945 2.55279 96.8945 2.5733C96.9048 2.77836 96.8945 2.98342 96.8945 3.17822V3.21923C96.8843 3.4653 96.7919 3.66011 96.6278 3.7934C96.6073 3.8139 96.5868 3.83441 96.5868 3.89593C96.5868 4.05997 96.5458 4.22402 96.474 4.35731C96.3919 4.5111 96.3714 4.6854 96.3919 4.94172C96.3919 5.05451 96.4124 5.17754 96.4329 5.31083C96.515 5.79272 96.515 6.22334 96.4329 6.6232C96.3509 6.98205 96.3714 7.35116 96.3816 7.74077C96.3816 7.8433 96.3817 7.94583 96.3919 8.04836C96.4535 8.26367 96.4637 8.47898 96.474 8.69429C96.474 8.77632 96.474 8.85834 96.4945 8.94036C96.4945 8.97112 96.515 9.01213 96.5355 9.04289C96.556 9.0839 96.5868 9.12492 96.6176 9.16593L96.915 9.5863L96.8843 9.69908C96.8432 9.87338 96.833 10.0579 96.8125 10.2527C96.7919 10.5193 96.7817 10.7961 96.6791 11.073M102.454 24.8324C102.454 24.8324 102.423 24.8324 102.403 24.8324C102.218 24.8221 101.972 24.7914 101.736 24.6581C101.418 24.4838 101.08 24.371 100.7 24.3197C100.546 24.2992 100.392 24.2685 100.249 24.2377C100.177 24.2275 100.105 24.207 100.033 24.1967L99.7974 24.1557C99.2127 24.0429 98.6178 23.9404 98.0331 23.8379C97.9716 23.8276 97.91 23.8276 97.828 23.8276C97.7869 23.8276 97.7459 23.8276 97.7151 23.8276C97.2228 23.8071 96.874 23.6225 96.6381 23.2637C96.474 23.0074 96.2996 22.7408 96.1252 22.4332C95.9098 22.0641 95.8483 21.6847 95.9201 21.2541C95.9714 20.9773 95.9919 20.7005 96.0124 20.4031C96.0124 20.2903 96.0329 20.1776 96.0431 20.0545C96.0431 20.034 96.0431 20.0033 96.0431 19.9828C96.0431 19.952 96.0431 19.911 96.0431 19.9007C95.9508 19.6854 95.9714 19.4701 95.9919 19.2856C95.9919 19.2343 96.0021 19.1728 96.0021 19.1215V19.0908C96.0124 18.7729 96.0329 18.4858 95.9508 18.1987C95.9098 18.0655 95.9098 17.9322 95.9201 17.8194C95.9201 17.6656 95.9406 17.5118 95.9508 17.3478V17.194C95.9508 17.194 95.9713 17.1324 95.9713 17.1017C95.9713 17.0812 95.9713 17.0402 95.9713 17.0299C95.9201 16.7223 95.9406 16.4352 95.9713 16.1482C95.9713 16.0456 95.9816 15.9431 95.9919 15.8406C96.0124 15.3895 96.0226 14.9486 95.9919 14.518V14.4667C95.9816 14.3129 95.9713 14.1796 95.9303 14.0463C95.8483 13.7387 95.838 13.4516 95.838 13.1646V12.98C95.838 12.8365 95.8483 12.6212 96.0739 12.4571C96.115 12.4264 96.1355 12.3341 96.1457 12.2316C96.0226 12.0265 96.0432 11.8112 96.0534 11.6676C96.0534 11.5959 96.0739 11.5138 96.0842 11.4421C96.1047 11.3088 96.1252 11.1858 96.115 11.073C96.115 11.0115 96.115 10.9397 96.1355 10.8884C96.2175 10.6834 96.2278 10.4475 96.2483 10.2015C96.2586 10.0272 96.2688 9.85287 96.2996 9.67857L96.1457 9.46326C96.1047 9.412 96.0637 9.35048 96.0226 9.27871C95.9816 9.20694 95.9406 9.10441 95.9303 8.98137C95.9303 8.89935 95.9201 8.80708 95.9098 8.7148C95.8995 8.51999 95.8893 8.33544 95.838 8.16114V8.08937C95.8277 7.97659 95.8175 7.86381 95.8175 7.75102C95.8072 7.34091 95.7867 6.92054 95.879 6.50017C95.9508 6.16182 95.9508 5.80297 95.879 5.3826C95.8585 5.23906 95.838 5.09552 95.8277 4.96223C95.8072 4.71616 95.8072 4.39832 95.9713 4.09073C96.0021 4.02921 96.0226 3.95744 96.0226 3.87542C96.0226 3.67036 96.1047 3.49606 96.2586 3.36277C96.2893 3.33201 96.3304 3.291 96.3304 3.15771V3.1167C96.3406 2.93215 96.3509 2.7476 96.3304 2.5733C96.3304 2.52203 96.2996 2.46052 96.2791 2.36824C96.2586 2.31698 96.238 2.25546 96.2278 2.19394L95.9816 1.32244L96.5868 1.85559C96.6073 1.78382 96.6381 1.68129 96.7201 1.60952C96.8227 1.50699 96.8843 1.36345 96.9561 1.20966C96.9868 1.14814 97.0074 1.09688 97.0381 1.03536C97.0894 0.932831 97.1715 0.902072 97.2125 0.881567L97.3048 0.820049L97.4074 0.840555C97.5407 0.850808 97.6023 0.943084 97.6331 1.0046V1.03536C97.6844 1.12764 97.7254 1.21991 97.7562 1.30194C97.7562 1.30194 97.7562 1.30194 97.7562 1.31219C97.7972 1.32244 97.828 1.34295 97.8587 1.36345C97.8587 1.3327 97.8587 1.30194 97.8792 1.27118V1.24042C97.8792 1.24042 97.9203 1.12764 97.9613 1.06612C97.9921 1.01485 98.0331 0.96359 98.0741 0.912325C98.0947 0.881567 98.1254 0.840555 98.1459 0.809796C98.3203 0.54322 98.5768 0.450944 98.8742 0.54322H98.9153C99.0896 0.604738 99.2435 0.604738 99.3768 0.563726C99.7359 0.461197 100.095 0.491956 100.423 0.635496C100.444 0.635496 100.454 0.645749 100.464 0.656002H100.474C100.659 0.512461 100.864 0.502208 101.028 0.491956C101.069 0.491956 101.121 0.491956 101.162 0.481703C101.326 0.461197 101.5 0.54322 101.592 0.625244C101.634 0.666255 101.675 0.686761 101.839 0.666255C101.91 0.666255 101.962 0.666255 102.003 0.686761L102.177 0.71752L102.259 0.861061C102.259 0.861061 102.331 0.96359 102.362 1.04561C102.454 1.30194 102.536 1.55826 102.628 1.82484L102.782 2.29647C102.834 2.44001 102.834 2.58355 102.803 2.73735C102.752 2.98342 102.752 3.23974 102.803 3.59859C102.864 3.9882 102.885 4.41882 102.875 4.95198C102.875 5.39285 102.875 5.85423 102.895 6.4284C102.926 7.21787 102.946 7.93558 102.936 8.63278C102.936 9.37099 102.936 10.1194 102.936 10.8474C102.936 11.2268 102.936 11.6164 102.936 11.9957C102.936 12.1598 102.936 12.3238 102.926 12.4879V12.7442C102.926 12.7442 102.916 12.816 102.916 12.857C102.916 12.9288 102.916 13.0005 102.916 13.062C102.936 13.2363 102.936 13.4209 102.936 13.5952C102.936 13.8618 102.946 14.1078 102.998 14.3539C103.029 14.4872 103.029 14.641 102.998 14.8358C102.977 15.0101 102.977 15.1946 102.998 15.3792V15.4817C103.018 15.9944 103.029 16.507 103.039 17.0197C103.039 17.3375 103.039 17.6143 103.09 17.9014C103.111 18.0347 103.121 18.168 103.121 18.291C103.121 18.3423 103.121 18.3936 103.121 18.4448C103.121 18.4653 103.121 18.4961 103.121 18.5166C103.121 18.5371 103.121 18.5679 103.121 18.5781C103.295 19.4291 103.295 20.2801 103.264 21.2131C103.264 21.4489 103.234 21.6847 103.203 21.9206C103.193 22.0436 103.172 22.1564 103.162 22.2794V22.3307C103.152 22.4127 103.141 22.4947 103.152 22.5665C103.193 22.8536 103.182 23.1202 103.182 23.3867C103.182 23.52 103.182 23.6533 103.182 23.7763C103.182 23.9814 103.141 24.1865 103.059 24.3915C102.946 24.6581 102.711 24.8119 102.423 24.8119" fill="#FAF3E8"/>
<path d="M88.1852 20.937C88.298 20.7935 88.4519 20.7115 88.6262 20.6704C88.7083 20.6499 88.8006 20.6294 88.8724 20.5884C89.1699 20.4141 89.4981 20.3218 89.8059 20.1886C89.97 20.1168 90.1136 20.0245 90.2162 19.8707C90.3495 19.6657 90.5239 19.4811 90.688 19.2863C91.0162 18.8967 91.2419 18.4558 91.3855 17.9842C91.5086 17.5946 91.642 17.205 91.8471 16.8461C91.8779 16.7948 91.8984 16.7333 91.8984 16.6821C91.8984 16.3745 92.001 16.0771 92.0625 15.7798C92.1138 15.5542 92.1856 15.3184 92.1753 15.0929C92.1651 14.8058 92.2574 14.5494 92.2882 14.2726C92.2882 14.2316 92.3189 14.1906 92.3292 14.1496C92.3702 13.9343 92.4113 13.7292 92.401 13.5036C92.401 13.3088 92.442 13.1038 92.401 12.8987C92.3908 12.8475 92.401 12.7859 92.4215 12.7244C92.4523 12.5706 92.442 12.4066 92.4523 12.2425C92.4728 11.8017 92.4113 11.3608 92.4831 10.9302C92.4831 10.8789 92.4831 10.8071 92.4626 10.7661C92.4113 10.6841 92.4113 10.6123 92.4318 10.52C92.5241 10.2227 92.4831 9.91513 92.5549 9.61779C92.5651 9.56653 92.5549 9.50501 92.5549 9.44349C92.5549 9.3102 92.5549 9.17692 92.5651 9.05388C92.5856 8.88983 92.5856 8.73604 92.5036 8.58225C92.4215 8.42845 92.4215 8.26441 92.5036 8.12086C92.5754 7.96707 92.5754 7.81328 92.6062 7.64923C92.6267 7.5467 92.6267 7.45442 92.5651 7.36215C92.4728 7.23911 92.4728 7.09557 92.5138 6.94178C92.5856 6.6752 92.6472 6.40863 92.7087 6.14205C92.678 6.01901 92.6472 5.88573 92.6267 5.76269C92.5856 5.54738 92.5754 5.33207 92.5754 5.11676C92.5754 4.87069 92.5754 4.62462 92.5754 4.37855C92.5754 4.00944 92.5754 3.65059 92.5138 3.29174C92.4728 3.06617 92.4523 2.83036 92.5344 2.60479C92.5856 2.46125 92.5856 2.31771 92.4933 2.18442C92.4215 2.07164 92.401 1.93835 92.3907 1.80506C92.3395 1.45647 92.1753 1.16938 91.8984 0.954072C91.7753 0.851543 91.642 0.749014 91.5189 0.646484C91.4368 0.66699 91.365 0.697749 91.2727 0.708002C91.1906 0.708002 91.0983 0.697749 91.006 0.687496C90.9342 0.687496 90.8624 0.687496 90.7906 0.687496C90.6265 0.708002 90.4726 0.738761 90.3085 0.769519C90.2059 0.790025 90.1033 0.810531 90.0007 0.810531C89.7238 0.810531 89.4366 0.810531 89.1596 0.810531C88.8211 0.810531 88.4826 0.810531 88.1441 0.738761C87.7133 0.66699 87.2825 0.718255 86.8825 0.902807C86.7799 0.954072 86.6671 1.00534 86.5747 1.04635C86.5132 1.15913 86.4516 1.26166 86.3901 1.36419C86.3593 1.41545 86.3286 1.46672 86.308 1.51798C86.2773 1.66152 86.2773 1.81532 86.226 1.94861C86.1747 2.08189 86.0721 2.19468 86.0106 2.32796C85.9798 2.38948 85.9695 2.4715 85.949 2.54327C85.9183 2.68682 85.8464 2.80985 85.7234 2.92263C85.7336 3.05592 85.7541 3.17896 85.7644 3.31224C85.7952 3.6916 85.867 4.07096 85.8465 4.45032C85.8157 5.04499 85.7746 5.63966 85.6823 6.23433C85.6003 6.75723 85.6105 7.28012 85.6823 7.80302C85.7131 8.03884 85.7541 8.2644 85.7849 8.50022C85.8054 8.63351 85.8259 8.75655 85.7439 8.87958C85.7028 8.93084 85.7131 9.02312 85.7028 9.09489C85.7028 9.27944 85.7028 9.47425 85.7028 9.6588C85.7336 10.2432 85.7541 10.8276 85.7336 11.4121C85.7131 11.9965 85.7131 12.5809 85.6516 13.1653C85.6105 13.5754 85.6105 13.9753 85.631 14.3854C85.6413 14.6212 85.6208 14.8468 85.6105 15.0826C85.6105 15.1851 85.549 15.2774 85.4669 15.3492C85.2925 15.4825 85.1079 15.6158 84.9643 15.7798C84.9233 15.8208 84.872 15.8516 84.8207 15.8721C84.4925 16.0259 84.154 15.9951 83.8257 15.8721C83.6719 15.8208 83.5488 15.708 83.4564 15.5645C83.4052 15.4927 83.3744 15.4107 83.3334 15.3389C83.1282 14.9801 82.9231 14.6315 82.7076 14.2829C82.6153 14.1291 82.5435 13.9753 82.523 13.801C82.5025 13.6574 82.5025 13.5139 82.482 13.3601C82.4512 13.114 82.4307 12.868 82.3179 12.6321C82.2358 12.4681 82.1435 12.2938 82.0512 12.1195C81.9076 12.0887 81.764 12.0477 81.6101 12.0272C81.3434 11.9862 81.087 11.9555 80.8203 11.9144C80.6869 11.8939 80.5536 11.8632 80.4305 11.8427C79.9484 11.7914 79.456 11.7504 78.9739 11.7094C78.4713 11.6684 77.9687 11.5864 77.466 11.6684C77.3737 11.6786 77.2917 11.6684 77.2199 11.6069C77.1378 11.5453 77.0558 11.5453 76.9737 11.5966C76.8814 11.6479 76.7891 11.6786 76.6762 11.6786C76.4813 11.6786 76.307 11.7914 76.1326 11.8529C76.1018 11.8632 76.071 11.9144 76.0505 11.9452C76.03 11.9862 76.0197 12.0272 76.0197 12.0682C75.9992 12.2938 75.9172 12.4886 75.7325 12.6424C75.63 12.7244 75.5992 12.8372 75.6094 12.9602C75.6094 13.0935 75.63 13.2166 75.6505 13.3499C75.6812 13.5447 75.6607 13.7292 75.5069 13.8728C75.4761 13.9035 75.4556 13.9445 75.4248 14.006C75.5479 14.5494 75.8351 15.0006 75.9787 15.503C76.03 15.667 76.1223 15.8208 76.1941 15.9849C76.2762 16.1592 76.3685 16.3232 76.4506 16.4975C76.5839 16.7948 76.7685 17.0614 76.9737 17.3075C77.1276 17.492 77.2712 17.6663 77.425 17.8406C77.8148 18.2713 78.2456 18.6404 78.8098 18.8352C78.9226 18.8762 79.0252 18.9377 79.1175 19.0095C79.3227 19.194 79.5483 19.3171 79.7843 19.4298C80.5946 19.8194 81.4152 20.1988 82.2973 20.4141C82.4307 20.4449 82.5538 20.4961 82.6769 20.5372C83.0667 20.6397 83.4462 20.7627 83.836 20.8345C84.3694 20.937 84.913 21.0088 85.4669 21.0703C85.949 21.1318 86.4311 21.2138 86.9235 21.1113C87.0979 21.0703 87.2722 21.0395 87.4364 20.9883C87.5697 20.9473 87.6928 20.9268 87.8262 20.978C87.8672 20.9883 87.9082 21.0088 87.9492 21.0088C88.0416 21.0088 88.1339 21.0088 88.1852 20.937Z" fill="#FAF3E8"/>
<path d="M75.6828 14.046C75.7444 14.2819 75.8367 14.4972 75.9393 14.733C76.0418 14.9586 76.1341 15.1944 76.2059 15.4404C76.2367 15.5327 76.288 15.6352 76.3393 15.7378C76.3598 15.7788 76.3906 15.8301 76.4111 15.8711C76.4419 15.9326 76.4829 16.0044 76.5137 16.0659C76.565 16.1684 76.6265 16.2812 76.6675 16.3837C76.7804 16.6298 76.9342 16.8656 77.1496 17.1322L77.2727 17.2757C77.3856 17.409 77.4881 17.532 77.601 17.6551C77.8984 17.9832 78.3087 18.383 78.8729 18.5778C79.0165 18.6291 79.1601 18.7111 79.2729 18.8034C79.4268 18.9469 79.6114 19.0597 79.8781 19.1828C80.6782 19.5621 81.4886 19.9415 82.3399 20.1465C82.422 20.167 82.4938 20.1875 82.5759 20.2183C82.6272 20.2388 82.6784 20.2593 82.7297 20.2696C82.8323 20.3003 82.9451 20.3311 83.0477 20.3618C83.3247 20.4439 83.5914 20.5156 83.8683 20.5669C84.412 20.6694 84.9761 20.7412 85.4788 20.8027L85.6224 20.8232C86.0532 20.8745 86.4532 20.936 86.843 20.8437C87.0174 20.8027 87.1815 20.772 87.3354 20.7207C87.4687 20.6797 87.6739 20.6387 87.8893 20.7104H87.9098C87.9098 20.7104 87.9406 20.7309 87.9508 20.7309H87.9713C88.1047 20.5669 88.2996 20.4541 88.5457 20.3926C88.6278 20.3721 88.6894 20.3618 88.7201 20.3413C88.9458 20.208 89.1817 20.1158 89.4074 20.0338C89.4997 20.003 89.592 19.962 89.6946 19.921C89.8382 19.8595 89.9203 19.7979 89.9818 19.6954C90.0946 19.5211 90.228 19.3673 90.3613 19.2238L90.4742 19.1007C90.7614 18.7624 90.9768 18.3625 91.1306 17.8806C91.264 17.4705 91.3973 17.0707 91.623 16.6913C91.6333 16.6708 91.6435 16.6605 91.6435 16.6503C91.6435 16.4042 91.6948 16.1581 91.7563 15.9326C91.7769 15.8608 91.7974 15.7788 91.8076 15.707C91.8179 15.6455 91.8384 15.5942 91.8487 15.5327C91.8897 15.3687 91.9205 15.2251 91.9205 15.0918C91.9102 14.8765 91.9512 14.6817 91.9923 14.4972C92.0128 14.4049 92.0333 14.3229 92.0436 14.2306C92.0436 14.1793 92.0641 14.1383 92.0846 14.1076C92.1256 13.9128 92.1667 13.7077 92.1564 13.5026C92.1564 13.4206 92.1564 13.3386 92.1564 13.2668C92.1564 13.154 92.1667 13.0515 92.1564 12.949C92.1359 12.8465 92.1564 12.7542 92.1667 12.6824C92.1872 12.5799 92.1872 12.4876 92.1872 12.3851C92.1872 12.3338 92.1872 12.2825 92.1872 12.2313C92.1872 12.0775 92.1872 11.9134 92.1872 11.7596C92.1872 11.4828 92.1769 11.1855 92.2179 10.8881C92.1359 10.7549 92.1154 10.6011 92.1769 10.437C92.2179 10.3037 92.2282 10.1602 92.2385 10.0064C92.2385 9.86285 92.259 9.71931 92.2897 9.56552C92.2897 9.56552 92.2897 9.54501 92.2897 9.53476C92.2897 9.504 92.2897 9.47324 92.2897 9.44248V9.3297C92.2897 9.22717 92.2897 9.12464 92.3 9.02211C92.3205 8.87857 92.3 8.7863 92.2692 8.70427C92.1564 8.47871 92.1564 8.23264 92.2692 8.00708C92.3 7.94556 92.3103 7.86353 92.3308 7.76101C92.3308 7.70974 92.3513 7.64822 92.3615 7.59696C92.3718 7.53544 92.3615 7.52519 92.3615 7.50468C92.2385 7.32013 92.2077 7.11507 92.2692 6.869C92.3205 6.68445 92.3615 6.4999 92.4026 6.3256L92.4436 6.14104V6.07953C92.4026 5.98725 92.3821 5.89497 92.3718 5.8027C92.3308 5.59764 92.3205 5.38233 92.3205 5.1055V4.92095C92.3205 4.73639 92.3205 4.55184 92.3205 4.35704V4.27501C92.3205 3.94692 92.3205 3.62908 92.2692 3.32149C92.2282 3.06517 92.1974 2.77809 92.3 2.50126C92.341 2.39873 92.3205 2.34746 92.3 2.3167C92.1974 2.16291 92.1769 1.99886 92.1564 1.85532C92.1154 1.55799 91.982 1.33242 91.7563 1.14787C91.664 1.0761 91.5717 1.00433 91.4794 0.922307C91.4281 0.93256 91.3768 0.942813 91.3153 0.953066C91.2332 0.953066 91.1614 0.953066 91.0999 0.942813C91.0691 0.942813 91.0486 0.942813 91.0178 0.942813C90.9563 0.942813 90.8947 0.942813 90.8537 0.942813C90.7511 0.953066 90.6588 0.973572 90.5562 0.994078L90.31 1.03509C90.228 1.04534 90.1357 1.06585 90.0331 1.06585C89.8279 1.06585 89.633 1.06585 89.4279 1.06585H89.1817C88.8227 1.06585 88.4739 1.0556 88.1149 0.994078C87.7251 0.93256 87.3559 0.973572 87.0174 1.13762C86.9456 1.16838 86.884 1.19914 86.8122 1.22989H86.7815L86.6173 1.53748C86.6173 1.54774 86.5968 1.56824 86.5968 1.57849C86.5968 1.61951 86.5866 1.67077 86.5763 1.71178C86.566 1.81431 86.5455 1.91684 86.5045 2.02962C86.4635 2.1424 86.4019 2.23468 86.3506 2.3167C86.3199 2.35772 86.2993 2.39873 86.2686 2.43974C86.2583 2.46025 86.2481 2.51151 86.2378 2.56277C86.207 2.73707 86.1352 2.88061 86.0224 3.00365L86.0532 3.27023C86.0532 3.38301 86.0737 3.48554 86.0942 3.59832C86.125 3.87515 86.1557 4.15198 86.1455 4.43906C86.1147 5.01322 86.0737 5.6284 85.9711 6.25383C85.8993 6.71521 85.8993 7.20735 85.9711 7.75075C85.9916 7.88404 86.0121 8.00708 86.0224 8.14036C86.0429 8.24289 86.0532 8.34542 86.0634 8.44795C86.0839 8.59149 86.1147 8.7863 85.9916 8.99136C85.9916 9.01186 85.9916 9.04262 85.9916 9.06313C85.9916 9.26818 85.9916 9.45274 85.9916 9.63729C86.0121 10.2012 86.0429 10.8061 86.0224 11.411C86.0224 11.5751 86.0224 11.7289 86.0121 11.8929C86.0019 12.3133 85.9916 12.7439 85.9403 13.1745C85.8993 13.5231 85.8993 13.9025 85.9198 14.3639C85.9198 14.5484 85.9198 14.7432 85.9096 14.9175V15.0816C85.8891 15.2559 85.807 15.4097 85.6634 15.5327C85.6224 15.5635 85.5813 15.5942 85.5403 15.625C85.4172 15.7275 85.2941 15.8198 85.2018 15.9223C85.13 16.0146 85.0274 16.0556 84.9659 16.0864C84.5966 16.2504 84.1966 16.2607 83.7657 16.1069C83.5606 16.0351 83.3862 15.8916 83.2631 15.6968C83.2323 15.6455 83.2016 15.5942 83.1811 15.543C83.1605 15.5122 83.1503 15.4815 83.1298 15.4507L82.9759 15.1944C82.8221 14.9278 82.6682 14.6612 82.5041 14.3946C82.381 14.1998 82.3092 14.005 82.2887 13.8C82.2887 13.7282 82.2784 13.6462 82.2681 13.5744C82.2681 13.5026 82.2681 13.4411 82.2476 13.3694V13.3181C82.2169 13.1028 82.1963 12.908 82.104 12.7337C82.0425 12.6209 81.9912 12.5081 81.9296 12.3953L81.8886 12.3441C81.7963 12.3236 81.704 12.303 81.6014 12.2825C81.4373 12.2518 81.2834 12.2415 81.1193 12.2108C81.0167 12.2005 80.9142 12.18 80.8116 12.1698C80.75 12.1698 80.6885 12.1493 80.6269 12.139C80.5551 12.1287 80.4936 12.1082 80.4321 12.1082C80.0936 12.0775 79.7653 12.0467 79.4268 12.016L78.9755 11.975C78.8934 11.975 78.8114 11.9544 78.719 11.9544C78.3087 11.9134 77.919 11.8724 77.5394 11.9339C77.3856 11.9647 77.242 11.9339 77.1086 11.8417C76.9855 11.9134 76.8624 11.9442 76.7188 11.9544C76.6265 11.9544 76.5342 11.9955 76.4214 12.0467C76.3803 12.057 76.3496 12.0775 76.3085 12.0877C76.3085 12.0877 76.3085 12.098 76.3085 12.1082C76.2778 12.4261 76.1547 12.6722 75.929 12.8567C75.9187 12.8567 75.888 12.8875 75.8982 12.9592C75.8982 13.0618 75.9187 13.1745 75.9393 13.3181C75.9905 13.6257 75.9187 13.8717 75.7341 14.0666M86.3917 21.4281C86.1045 21.4281 85.8275 21.3871 85.5608 21.3564L85.4172 21.3359C84.9146 21.2744 84.3299 21.2026 83.776 21.0898C83.4785 21.0385 83.1913 20.9565 82.9144 20.8745C82.8118 20.8437 82.699 20.813 82.5964 20.7822C82.5348 20.7617 82.4733 20.7412 82.4117 20.7207C82.3502 20.7002 82.2887 20.6797 82.2271 20.6592C81.3245 20.4439 80.4833 20.044 79.6832 19.6646C79.3448 19.5109 79.1191 19.3571 78.9242 19.1828C78.8729 19.1315 78.7908 19.0905 78.719 19.0597C78.042 18.8342 77.5599 18.3728 77.2214 17.9934C77.1086 17.8601 76.9958 17.7268 76.8829 17.5936L76.7599 17.45C76.5034 17.1424 76.329 16.8656 76.1957 16.5785C76.1547 16.476 76.1034 16.3837 76.0521 16.2812C76.0111 16.2094 75.9803 16.1376 75.9495 16.0761C75.929 16.0351 75.9085 15.9941 75.888 15.9531C75.8264 15.8301 75.7546 15.6968 75.7136 15.5532C75.652 15.3379 75.57 15.1329 75.4674 14.9175C75.3443 14.6407 75.2212 14.3639 75.1494 14.0358L75.1289 13.9333L75.211 13.8C75.211 13.8 75.2623 13.7077 75.3033 13.6667C75.3648 13.6052 75.3956 13.5334 75.3648 13.3694C75.3341 13.2053 75.3238 13.072 75.3238 12.949C75.3238 12.7337 75.3956 12.5491 75.5495 12.4261C75.6623 12.3338 75.7238 12.2108 75.7444 12.0262C75.7444 11.9442 75.7751 11.8724 75.8059 11.8109C75.8675 11.6981 75.9393 11.6264 76.0316 11.5956C76.0829 11.5751 76.1239 11.5546 76.1752 11.5341C76.3085 11.4726 76.4726 11.411 76.6573 11.4008C76.7291 11.4008 76.7804 11.3803 76.8317 11.3495C77.006 11.247 77.2112 11.2573 77.3753 11.3803C77.4061 11.4008 77.4163 11.4008 77.4266 11.3905C77.8779 11.3188 78.3293 11.3598 78.7498 11.4008C78.8319 11.4008 78.9139 11.4213 78.996 11.4213L79.4473 11.4623C79.7858 11.4931 80.1243 11.5238 80.4628 11.5546C80.5449 11.5546 80.6269 11.5751 80.709 11.5956C80.7603 11.5956 80.8116 11.6161 80.8629 11.6264C80.9654 11.6366 81.068 11.6571 81.1706 11.6674C81.3347 11.6879 81.4988 11.7084 81.663 11.7391C81.7655 11.7494 81.8784 11.7802 81.9912 11.8007L82.2476 11.8519L82.3912 12.1185C82.4528 12.2415 82.5143 12.3543 82.5759 12.4773C82.699 12.7234 82.7297 12.9797 82.7605 13.2258V13.2771C82.7708 13.3591 82.781 13.4309 82.781 13.5129C82.781 13.5847 82.781 13.6462 82.8015 13.718C82.8118 13.841 82.8631 13.964 82.9451 14.0973C83.1093 14.3639 83.2734 14.6305 83.4272 14.9073L83.5709 15.1636C83.5709 15.1636 83.6119 15.2354 83.6324 15.2764C83.6529 15.3174 83.6734 15.3482 83.6939 15.3892C83.7555 15.4917 83.8375 15.5532 83.9299 15.584C84.2376 15.6865 84.4838 15.6865 84.7197 15.584C84.7505 15.5737 84.771 15.5635 84.7812 15.5532C84.8941 15.4097 85.0479 15.2969 85.1915 15.1841C85.2326 15.1534 85.2633 15.1226 85.3044 15.0918C85.3454 15.0611 85.3454 15.0303 85.3454 15.0201V14.8458C85.3659 14.6715 85.3762 14.5074 85.3659 14.3434C85.3454 13.8615 85.3454 13.4616 85.3864 13.0823C85.4275 12.6722 85.4377 12.2415 85.448 11.8417C85.448 11.6776 85.448 11.5136 85.4582 11.3495C85.4787 10.7651 85.4582 10.1807 85.4275 9.62704C85.4275 9.43223 85.4275 9.23742 85.4275 9.04262C85.4275 8.94009 85.4275 8.8068 85.5095 8.69402C85.53 8.66326 85.53 8.612 85.5095 8.49922C85.4993 8.39669 85.4787 8.29416 85.4685 8.20188C85.448 8.06859 85.4275 7.9353 85.4069 7.80202C85.3249 7.20735 85.3249 6.66394 85.4069 6.16155C85.4993 5.56688 85.5403 4.96196 85.5711 4.39805C85.5813 4.15198 85.5506 3.90591 85.5198 3.63933C85.5095 3.52655 85.489 3.41377 85.4788 3.30098L85.4275 2.77809L85.53 2.68581C85.6121 2.61404 85.6531 2.54227 85.6736 2.46025C85.6942 2.35772 85.7147 2.27569 85.7557 2.18342C85.7865 2.1219 85.8275 2.07063 85.8583 2.00912C85.8993 1.9476 85.9403 1.88608 85.9609 1.83482C85.9814 1.78355 85.9916 1.71178 86.0019 1.62976C86.0019 1.56824 86.0224 1.50672 86.0327 1.44521C86.0532 1.36318 86.0942 1.30167 86.1147 1.2504L86.3609 0.819778L86.5455 0.737755C86.6071 0.706996 86.6686 0.676237 86.7404 0.645478C87.1815 0.430167 87.6533 0.368649 88.156 0.460926C88.4739 0.51219 88.7817 0.522443 89.1304 0.522443H89.3766C89.5715 0.522443 89.7767 0.522443 89.9715 0.522443C90.0331 0.522443 90.0946 0.51219 90.1664 0.501937L90.4126 0.460926C90.5152 0.44042 90.6178 0.419914 90.7306 0.409661C90.8229 0.399408 90.9152 0.409661 90.9973 0.409661C91.0383 0.409661 91.0794 0.409661 91.1204 0.419914C91.1614 0.419914 91.2024 0.419914 91.2332 0.419914C91.264 0.419914 91.305 0.409661 91.3461 0.389155C91.3768 0.389155 91.3973 0.368649 91.4281 0.368649L91.5615 0.337891L91.664 0.419914C91.7974 0.522443 91.9205 0.624972 92.0436 0.727502C92.3821 0.994078 92.577 1.33242 92.6385 1.74254C92.659 1.86558 92.6693 1.9476 92.7 2.00912C92.7924 2.1424 92.8744 2.36797 92.7616 2.6653C92.7 2.8191 92.7103 2.9934 92.7616 3.21896C92.8231 3.57781 92.8231 3.92641 92.8231 4.26476V4.34678C92.8231 4.53133 92.8231 4.72614 92.8231 4.92095V5.09525C92.8231 5.34132 92.8231 5.52587 92.8642 5.68992C92.8744 5.77194 92.8949 5.85396 92.9155 5.93599L92.9565 6.11028L92.8847 6.40762C92.8437 6.59217 92.8026 6.78698 92.7513 6.97153C92.7206 7.08431 92.7411 7.13558 92.7719 7.17659C92.9052 7.37139 92.8847 7.55595 92.8539 7.66873C92.8539 7.70974 92.8334 7.75075 92.8334 7.79176C92.8129 7.9148 92.7924 8.04809 92.7308 8.19163C92.6898 8.27365 92.6898 8.34542 92.7308 8.42745C92.8539 8.66326 92.8334 8.88883 92.8231 9.04262C92.8231 9.12464 92.8231 9.20667 92.8231 9.28869V9.40147C92.8231 9.40147 92.8231 9.42198 92.8231 9.44248C92.8231 9.49375 92.8231 9.55527 92.8231 9.63729C92.8026 9.75007 92.7924 9.87311 92.7821 9.99614C92.7821 10.1807 92.7616 10.3652 92.7 10.5601V10.5908C92.7616 10.6831 92.7821 10.8164 92.7616 10.9394C92.7206 11.1855 92.7308 11.4418 92.7308 11.7186C92.7308 11.8929 92.7308 12.057 92.7308 12.2313C92.7308 12.2825 92.7308 12.3236 92.7308 12.3748C92.7308 12.4979 92.7308 12.6209 92.7 12.7542C92.7 12.7952 92.6898 12.8157 92.6898 12.8362C92.7206 12.99 92.7103 13.1438 92.7103 13.2771C92.7103 13.3386 92.7103 13.4104 92.7103 13.4719C92.7103 13.7282 92.6795 13.9743 92.6385 14.1793C92.6385 14.2101 92.618 14.2511 92.6077 14.2819C92.5872 14.3946 92.5667 14.4972 92.5462 14.5997C92.5154 14.7637 92.4744 14.9175 92.4846 15.0713C92.4846 15.2764 92.4436 15.4712 92.4026 15.6558C92.3923 15.707 92.3718 15.7685 92.3615 15.8198C92.341 15.9018 92.3205 15.9838 92.3 16.0659C92.2487 16.2709 92.1974 16.4657 92.2077 16.6708C92.2077 16.7631 92.1769 16.8656 92.1154 16.9681C91.9205 17.2962 91.8076 17.6551 91.6743 18.0447C91.4999 18.5881 91.2537 19.0392 90.9255 19.4391L90.8127 19.5724C90.6896 19.7159 90.5665 19.8492 90.4742 20.003C90.3511 20.1875 90.187 20.3208 89.951 20.4131C89.8485 20.4541 89.7561 20.4951 89.6536 20.5259C89.4382 20.6079 89.233 20.6797 89.0484 20.7925C88.9458 20.854 88.833 20.8847 88.7406 20.9052C88.5868 20.9463 88.4945 20.9975 88.4329 21.0795C88.3201 21.2231 88.1662 21.2846 87.9508 21.2538C87.8893 21.2538 87.838 21.2333 87.7969 21.2128C87.7149 21.1821 87.6533 21.1923 87.5508 21.2128C87.3764 21.2641 87.1918 21.3051 87.0174 21.3461C86.8225 21.3871 86.6276 21.4076 86.443 21.4076" fill="#FAF3E8"/>
<path d="M72.0496 14.8056C72.0085 14.4878 71.9983 14.1699 71.988 13.8418C71.988 13.3599 71.988 12.8781 71.9367 12.3962C71.906 12.0783 71.8854 11.7605 71.9162 11.4324C71.9573 11.0633 71.947 10.7044 71.9162 10.3353C71.906 10.202 71.8854 10.0688 71.8854 9.94572C71.8854 9.8637 71.8854 9.77142 71.906 9.6894C72.0085 9.42282 72.0085 9.15625 71.906 8.87942C71.7931 8.59234 71.7829 8.28475 71.8752 7.97716C71.947 7.76185 71.9367 7.54654 71.8752 7.33123C71.8342 7.18769 71.8136 7.04414 71.7829 6.9006C71.7624 6.80833 71.7624 6.7263 71.7931 6.64428C71.906 6.39821 71.8649 6.16239 71.7931 5.91632C71.7624 5.81379 71.7213 5.72152 71.7008 5.61899C71.6393 5.36267 71.5982 5.10634 71.6085 4.83977C71.6085 4.5937 71.6393 4.34763 71.6598 4.10156C71.6803 3.92726 71.7111 3.76321 71.7931 3.59916C71.9572 3.28132 71.9572 2.95323 71.8342 2.62514C71.8034 2.55337 71.7931 2.48159 71.7624 2.42008C71.67 2.17401 71.6187 1.91768 71.6495 1.65111C71.67 1.47681 71.6495 1.30251 71.588 1.13846C71.5675 1.0872 71.5367 1.03593 71.5059 0.984668C71.4546 0.902645 71.3315 0.902645 71.2392 0.974416C71.2084 0.994921 71.1777 1.01543 71.1469 1.03593C71.0546 0.85138 71.0341 0.820622 70.952 0.800116C70.7366 0.738598 70.5315 0.677081 70.3263 0.625816C70.0801 0.70784 69.8339 0.769357 69.5775 0.697587C69.5262 0.687334 69.4544 0.697587 69.4031 0.697587C69.1569 0.697587 68.9005 0.687334 68.6441 0.677081C68.2748 0.666828 67.9055 0.646322 67.5363 0.636069C67.4029 0.636069 67.2696 0.636069 67.1362 0.656575C66.9823 0.687334 66.8387 0.677081 66.7054 0.615563C66.49 0.523287 66.2746 0.523287 66.0489 0.574552C65.8335 0.625816 65.6181 0.687334 65.4027 0.748851C65.2899 0.77961 65.1873 0.851381 65.1155 0.943657C64.8488 1.2615 64.5718 1.56909 64.418 1.94844C64.3667 2.07148 64.2949 2.17401 64.182 2.25603C63.6897 2.62514 63.2281 3.03525 62.7973 3.48638C62.6537 3.62992 62.5306 3.80422 62.3767 3.93751C62.0382 4.2451 61.7305 4.57319 61.433 4.92179C61.1971 5.19862 60.9612 5.47545 60.7047 5.74202C60.2637 6.21366 59.8739 6.73656 59.4123 7.18769C59.3815 7.21844 59.3508 7.25946 59.3302 7.29022C59.0841 7.5773 58.8379 7.87463 58.5917 8.16171C58.5712 8.18222 58.5507 8.21298 58.5302 8.22323C58.5096 8.23348 58.4686 8.24374 58.4481 8.23348C58.4276 8.23348 58.4071 8.19247 58.4071 8.17197C58.366 7.78235 58.325 7.39274 58.3045 6.99288C58.2737 6.19315 58.2532 5.39342 58.1711 4.58344C58.1199 4.06054 58.1096 3.53765 58.1711 3.01475C58.2019 2.70716 58.2019 2.39957 58.1506 2.09198C58.1096 1.86642 58.0788 1.6306 58.048 1.39479C57.9968 1.05644 57.9865 1.04619 57.6275 1.03593C57.5967 1.03593 57.5762 1.02568 57.5352 1.00517C57.4531 0.871886 57.3198 0.77961 57.1556 0.728345C56.7864 0.625816 56.4171 0.492528 56.0273 0.60531C55.9247 0.636069 55.8119 0.625816 55.7401 0.543793C55.6273 0.420758 55.4939 0.410505 55.3401 0.410505C55.2272 0.410505 55.1041 0.389999 54.9913 0.369493C54.858 0.348987 54.7246 0.328482 54.5913 0.318229C54.4477 0.307976 54.2938 0.318229 54.1502 0.28747C53.7707 0.215699 53.3911 0.195194 53.0116 0.307976C52.8065 0.369493 52.5705 0.369493 52.3654 0.472022C52.3141 0.492528 52.2525 0.492528 52.191 0.492528C52.0166 0.492528 51.8833 0.574552 51.7807 0.718093C51.7089 0.810369 51.6371 0.892392 51.5756 0.964163C51.555 1.35377 51.5448 1.72288 51.5243 2.08173C51.4832 2.79944 51.4217 3.50689 51.4525 4.22459C51.4525 4.31687 51.4422 4.39889 51.4422 4.49117C51.4422 4.80901 51.4319 5.1371 51.4217 5.45494C51.4217 5.61899 51.4217 5.77278 51.4114 5.93683C51.3909 6.21366 51.3704 6.49049 51.4422 6.76732C51.473 6.89035 51.473 7.02364 51.4832 7.15693C51.4935 7.47477 51.5038 7.79261 51.514 8.1207C51.514 8.42829 51.5448 8.73588 51.514 9.04346C51.4525 9.55611 51.4114 10.0585 51.4319 10.5711C51.4319 10.6634 51.4217 10.7454 51.4114 10.8377C51.4114 10.9403 51.4012 11.0428 51.4114 11.1453C51.4525 11.699 51.5037 12.2526 51.5448 12.8063C51.5756 13.1651 51.6371 13.5342 51.5961 13.8931C51.5858 14.0059 51.5961 14.1289 51.5961 14.2417C51.6166 14.4262 51.5961 14.6211 51.5858 14.8056C51.5653 14.9594 51.5448 15.1234 51.5653 15.2875C51.6063 15.7079 51.5653 16.1282 51.5448 16.5589C51.5243 17.0407 51.5243 17.5226 51.514 18.0045C51.514 18.0353 51.5345 18.0558 51.5448 18.0865C51.7602 18.2096 51.9961 18.1891 52.232 18.1686C52.4987 18.1378 52.7654 18.0968 53.0219 18.066C53.1244 18.066 53.2373 18.0353 53.3296 18.066C53.7707 18.1891 54.2425 18.1891 54.6938 18.2403C54.9298 18.2608 55.1657 18.2506 55.4016 18.2506C55.658 18.2506 55.9042 18.2096 56.1299 18.0865C56.2427 18.025 56.3453 18.0148 56.4684 18.0558C56.6428 18.1173 56.8171 18.0763 56.9915 18.0558C57.1351 17.902 57.3505 17.861 57.4941 17.7072C58.0583 17.1535 58.684 16.6614 59.3302 16.1897C59.5456 16.036 59.7611 15.8822 59.9662 15.7181C60.4483 15.3285 60.8894 14.8979 61.3407 14.4775C61.9356 13.9239 62.4485 13.3087 62.9819 12.6935C63.3102 12.3141 63.6794 11.9758 64.0487 11.6375C64.2641 11.4426 64.4795 11.2376 64.6744 11.0223C64.8693 10.807 65.0745 10.5917 65.2796 10.3763C65.3309 10.3251 65.3719 10.2636 65.5053 10.2636C65.5668 10.6634 65.6078 11.053 65.6078 11.4426C65.6078 12.1296 65.6078 12.8165 65.6078 13.5035C65.6078 14.1289 65.6078 14.7646 65.6078 15.39C65.6078 15.7591 65.6181 16.118 65.6489 16.4871C65.6796 17.01 65.7822 17.5226 65.8745 18.0455C65.9976 18.1481 66.1207 18.2506 66.2643 18.3634C66.449 18.3736 66.6644 18.4249 66.8695 18.4044C67.3927 18.3634 67.9055 18.3839 68.4184 18.4659C68.4287 18.4659 68.4492 18.4659 68.4594 18.4659C68.9415 18.5274 69.4339 18.5787 69.916 18.6505C70.0904 18.671 70.2545 18.7325 70.4186 18.8145C71.0033 19.0913 71.4341 18.8247 71.7213 18.4249C71.9367 18.1276 71.9162 18.1173 71.9162 17.779C71.9162 17.5226 71.8854 17.2561 71.9983 16.9997C72.0291 16.928 71.9983 16.8254 72.0085 16.7434C72.0188 16.4768 72.0085 16.2205 72.0598 15.9539C72.1214 15.5643 72.1111 15.1645 72.0598 14.7748" fill="#FAF3E8"/>
<path d="M67.3627 18.148C67.7114 18.148 68.0705 18.1787 68.4397 18.23C68.45 18.23 68.4602 18.23 68.4808 18.23L68.9013 18.2812C69.2501 18.3223 69.5988 18.3633 69.9476 18.4145C70.1835 18.4453 70.3887 18.5376 70.5323 18.5991C70.7784 18.7119 71.1374 18.8041 71.5067 18.3017C71.6025 18.1719 71.6503 18.0352 71.6503 17.8916V17.8096C71.6503 17.8096 71.6503 17.7173 71.6503 17.6661C71.6503 17.4405 71.6503 17.1944 71.7529 16.9381C71.7529 16.9381 71.7529 16.8971 71.7529 16.8766C71.7529 16.8356 71.7529 16.7946 71.7529 16.7638C71.7529 16.6818 71.7529 16.5998 71.7632 16.528C71.7632 16.3434 71.7734 16.1486 71.8042 15.9538C71.8555 15.6052 71.8555 15.2361 71.8042 14.8465C71.7529 14.4774 71.7426 14.1186 71.7426 13.852C71.7426 13.4111 71.7426 12.9087 71.6914 12.4371C71.6606 12.0987 71.6298 11.7604 71.6708 11.422C71.7016 11.1144 71.7016 10.7864 71.6708 10.3762V10.2942C71.6503 10.1814 71.6401 10.0686 71.6401 9.96612C71.6401 9.86359 71.6401 9.74055 71.6811 9.60727C71.7632 9.39196 71.7632 9.19715 71.6811 8.98184C71.5477 8.63324 71.5375 8.26413 71.6401 7.91553C71.6914 7.76174 71.6811 7.59769 71.6401 7.41314C71.6093 7.31061 71.5888 7.20808 71.5683 7.10555C71.5683 7.06454 71.5478 7.01328 71.5478 6.97227C71.5272 6.85948 71.5067 6.70569 71.5785 6.5519C71.6503 6.38785 71.6298 6.2238 71.558 6.00849L71.5272 5.91622C71.5067 5.84444 71.4759 5.77267 71.4657 5.7009C71.3836 5.39332 71.3529 5.11649 71.3631 4.84991C71.3631 4.64485 71.3836 4.43979 71.4041 4.24499V4.10145C71.4349 3.9374 71.4657 3.71184 71.5785 3.49653C71.7016 3.26071 71.7119 3.00439 71.6093 2.73781C71.5888 2.6968 71.5785 2.65579 71.5683 2.61477C71.5683 2.58402 71.5477 2.56351 71.5375 2.53275C71.4144 2.20466 71.3836 1.91758 71.4144 1.64075C71.4349 1.50746 71.4144 1.38442 71.3631 1.25114C71.3631 1.25114 71.3631 1.25114 71.3529 1.25114L71.0656 1.45619L70.9323 1.16911C70.9118 1.11785 70.8913 1.08709 70.881 1.06658L70.3579 0.91279C70.0912 0.994813 69.8245 1.04608 69.527 0.964054C69.527 0.964054 69.5065 0.964054 69.4962 0.964054C69.4757 0.964054 69.445 0.964054 69.4244 0.964054H69.2295C69.0449 0.953801 68.85 0.953801 68.6551 0.943549C68.5115 0.943549 68.3679 0.933296 68.2243 0.923043C67.9986 0.923043 67.773 0.902537 67.5473 0.902537C67.4037 0.902537 67.3011 0.902537 67.1986 0.923043C66.9832 0.964054 66.7883 0.943548 66.6139 0.861525C66.4703 0.800008 66.3164 0.789755 66.1318 0.830766C65.9164 0.882031 65.7112 0.943549 65.4958 1.00507C65.424 1.02557 65.3625 1.07684 65.3317 1.11785L65.2804 1.16911C65.0342 1.45619 64.8086 1.72277 64.6752 2.05086C64.6034 2.22516 64.5008 2.3482 64.347 2.47123C63.8854 2.80958 63.4341 3.2197 62.9827 3.67083C62.9314 3.73234 62.8801 3.79386 62.8289 3.84513C62.7468 3.9374 62.6647 4.03993 62.5622 4.13221C62.275 4.38853 61.9775 4.69612 61.6492 5.09598C61.4236 5.3523 61.1774 5.64964 60.9107 5.93672C60.7158 6.14178 60.5312 6.35709 60.3568 6.5724C60.1209 6.84923 59.8849 7.12606 59.6183 7.39264C59.608 7.40289 59.5875 7.42339 59.5772 7.43365L59.5362 7.47466C59.29 7.76174 59.0438 8.05908 58.7976 8.34616C58.7669 8.37692 58.7258 8.42818 58.6643 8.46919C58.6233 8.4897 58.5002 8.55122 58.3566 8.49995C58.2437 8.45894 58.1514 8.34616 58.1412 8.21287L58.1104 7.90528C58.0796 7.6182 58.0489 7.32087 58.0386 7.02353L58.0181 6.54164C57.9976 5.91622 57.9668 5.26003 57.9052 4.62435C57.854 4.03993 57.854 3.51703 57.9052 3.00439C57.936 2.7173 57.9258 2.43022 57.8847 2.15339C57.8437 1.93808 57.8129 1.71252 57.7822 1.48695V1.45619C57.7822 1.45619 57.7616 1.36392 57.7616 1.33316C57.7206 1.33316 57.6591 1.33316 57.618 1.33316C57.5565 1.33316 57.5052 1.31265 57.4642 1.3024L57.3719 1.27164L57.3001 1.17937C57.2385 1.08709 57.1462 1.03582 57.0744 1.02557L56.9616 0.994813C56.6436 0.902537 56.3769 0.820513 56.0999 0.902537C55.8845 0.964054 55.6691 0.91279 55.5358 0.769249C55.505 0.73849 55.4742 0.717984 55.3306 0.717984C55.228 0.717984 55.1255 0.707731 55.0331 0.687225C55.0024 0.687225 54.9716 0.676973 54.9408 0.676973L54.7972 0.656467C54.7152 0.656467 54.6331 0.635961 54.551 0.625708C54.4997 0.625708 54.4485 0.625708 54.3972 0.625708C54.3049 0.625708 54.192 0.625708 54.0792 0.594949C53.6997 0.523179 53.3714 0.523179 53.0637 0.615455C52.9714 0.646214 52.8791 0.656467 52.7867 0.676973C52.6637 0.697478 52.5508 0.717984 52.4585 0.758996C52.3662 0.800008 52.2636 0.800008 52.1918 0.810261C52.12 0.810261 52.0482 0.830766 51.9661 0.933296C51.9149 1.00507 51.8636 1.06658 51.8123 1.11785V1.39468C51.7918 1.651 51.7815 1.90732 51.761 2.15339C51.761 2.29693 51.7405 2.44047 51.7405 2.59427C51.7097 3.14793 51.6687 3.72209 51.6994 4.27575C51.6994 4.33727 51.6994 4.39878 51.6994 4.4603C51.6994 4.49106 51.6994 4.52182 51.6994 4.55258L51.6789 5.64964C51.6789 5.77267 51.6789 5.89571 51.6687 6.00849C51.6482 6.25456 51.6276 6.51088 51.6892 6.75696C51.72 6.89024 51.72 7.02353 51.7302 7.14657V7.23884C51.7507 7.54643 51.761 7.86427 51.761 8.17186C51.761 8.24363 51.761 8.3154 51.761 8.38717C51.761 8.62299 51.7712 8.86906 51.7507 9.11513C51.6994 9.52524 51.6584 10.0686 51.6687 10.6121C51.6687 10.6736 51.6687 10.7351 51.6584 10.7966C51.6584 10.8274 51.6584 10.8581 51.6584 10.8889V10.9607C51.6584 11.0324 51.6482 11.0939 51.6584 11.1657C51.6789 11.4938 51.7097 11.8219 51.7405 12.15L51.7918 12.8267C51.7918 12.9087 51.802 12.9907 51.8123 13.0728C51.843 13.3598 51.8738 13.6572 51.8328 13.9648C51.8225 14.057 51.8328 14.1596 51.8328 14.2518C51.8533 14.4774 51.8328 14.6927 51.8225 14.8773V14.9285C51.802 15.0618 51.7918 15.1849 51.802 15.2976C51.8431 15.6462 51.8225 15.9743 51.802 16.3024C51.802 16.405 51.7918 16.5075 51.7918 16.5998C51.7815 16.9791 51.7712 17.3687 51.7712 17.7481V17.9326C51.8841 17.9634 52.0277 17.9531 52.1918 17.9326C52.3252 17.9224 52.4688 17.9019 52.6021 17.8814C52.7252 17.8609 52.8585 17.8506 52.9816 17.8301H53.0227C53.1252 17.8096 53.2586 17.7994 53.3919 17.8301C53.6894 17.9121 53.9971 17.9326 54.3254 17.9634C54.4587 17.9634 54.5818 17.9839 54.7152 17.9942C54.8895 18.0147 55.0639 18.0044 55.2485 18.0044H55.4024C55.6486 18.0044 55.8332 17.9634 56.0076 17.8711C56.1922 17.7686 56.3769 17.7583 56.5718 17.8301C56.6538 17.8609 56.7564 17.8404 56.8795 17.8301C56.9616 17.7583 57.0436 17.7173 57.1257 17.6763C57.2077 17.6353 57.2693 17.5943 57.3206 17.5533C57.9463 16.9381 58.613 16.4357 59.1874 16.0153L59.3721 15.8821C59.5259 15.7693 59.6695 15.6667 59.8131 15.554C60.2337 15.2054 60.644 14.826 61.0338 14.4569L61.1774 14.3236C61.721 13.8212 62.2134 13.2368 62.6853 12.6831L62.7878 12.5601C63.1161 12.1705 63.4956 11.8322 63.8751 11.4836C64.1008 11.2785 64.2957 11.0837 64.4906 10.8786C64.6957 10.6633 64.8906 10.448 65.0958 10.2327C65.1573 10.1609 65.2804 10.0481 65.5163 10.0379H65.742L65.783 10.2635C65.8548 10.7248 65.8959 11.1144 65.8959 11.4938V14.0775C65.8959 14.5287 65.8959 14.9798 65.8959 15.4309C65.8959 15.8308 65.9164 16.1896 65.9266 16.5075C65.9471 16.9279 66.0292 17.3482 66.101 17.7788L66.1318 17.9429L66.3882 18.148C66.3882 18.148 66.46 18.1479 66.5011 18.1582C66.6344 18.1787 66.7472 18.189 66.8601 18.1787C67.0344 18.1685 67.2191 18.1582 67.3934 18.1582M70.8708 19.2143C70.6861 19.2143 70.4912 19.1732 70.2861 19.0707C70.122 18.9887 69.9886 18.9477 69.8655 18.9272C69.527 18.8759 69.1783 18.8349 68.8295 18.7939L68.409 18.7426C68.409 18.7426 68.3679 18.7426 68.3474 18.7426C67.8345 18.6709 67.3524 18.6503 66.8703 18.6914C66.7062 18.7016 66.5421 18.6914 66.3985 18.6606C66.3369 18.6606 66.2856 18.6503 66.2241 18.6401H66.142L65.6086 18.1992L65.5471 17.8404C65.4753 17.4097 65.3932 16.9586 65.3727 16.5075C65.3522 16.1794 65.3419 15.8103 65.3317 15.4002C65.3317 14.949 65.3317 14.4979 65.3317 14.0365V11.4528C65.3317 11.2272 65.3214 10.9914 65.2907 10.7351C65.1471 10.8889 65.0035 11.0427 64.8598 11.1965C64.665 11.4118 64.4495 11.6168 64.2136 11.8322C63.8443 12.1705 63.4853 12.4986 63.1674 12.8574L63.0648 12.9805C62.5827 13.5444 62.0801 14.1391 61.5159 14.662L61.3723 14.7952C60.9722 15.1746 60.5619 15.554 60.1209 15.9128C59.967 16.0358 59.8029 16.1486 59.649 16.2614L59.4644 16.3947C58.9002 16.8048 58.254 17.297 57.6591 17.8916C57.5565 17.9942 57.4437 18.0557 57.3513 18.1069C57.2693 18.148 57.2077 18.189 57.1564 18.23L57.0949 18.3017L56.941 18.3223C56.7769 18.3428 56.5615 18.3735 56.3564 18.3017C56.3153 18.2915 56.2948 18.2812 56.2333 18.312C55.9871 18.4453 55.7101 18.5068 55.3819 18.5068H55.2383C55.0434 18.5068 54.8485 18.5068 54.6434 18.4966C54.5203 18.4863 54.3972 18.476 54.2741 18.4658C53.9356 18.4453 53.5868 18.4145 53.2381 18.312C53.2073 18.312 53.1355 18.312 53.0842 18.312H53.0329C52.9098 18.3325 52.7867 18.3428 52.6637 18.3633C52.52 18.3838 52.3867 18.4043 52.2431 18.4145C52.0072 18.435 51.6892 18.476 51.3917 18.3017L51.3097 18.2505L51.2789 18.1582C51.2789 18.1582 51.2276 18.0557 51.2276 17.9737V17.6968C51.2276 17.3072 51.2379 16.9176 51.2584 16.528C51.2584 16.4255 51.2584 16.3229 51.2789 16.2204C51.2994 15.9026 51.3097 15.6052 51.2789 15.2976C51.2584 15.1336 51.2789 14.9593 51.2994 14.8158V14.7645C51.3199 14.6107 51.3404 14.4261 51.3199 14.2518C51.3097 14.1186 51.2994 13.9853 51.3199 13.8417C51.3507 13.5854 51.3199 13.3393 51.2994 13.0625C51.2994 12.9805 51.2789 12.8882 51.2789 12.8062L51.2276 12.1295C51.1968 11.8014 51.1763 11.4733 51.1455 11.1452C51.1455 11.0529 51.1455 10.9607 51.1455 10.8786V10.8171C51.1455 10.8171 51.1455 10.7351 51.1558 10.6941C51.1558 10.6531 51.1558 10.6121 51.1558 10.571C51.1455 9.99688 51.1968 9.43297 51.2481 9.0126C51.2686 8.79729 51.2686 8.58197 51.2481 8.35641C51.2481 8.28464 51.2481 8.20262 51.2481 8.13085C51.2481 7.82326 51.2276 7.51567 51.2173 7.20808V7.11581C51.2173 7.01328 51.2071 6.91075 51.1866 6.82873C51.1148 6.51088 51.125 6.19304 51.1558 5.92647C51.1558 5.82394 51.1558 5.71116 51.1558 5.60863L51.1763 4.50131C51.1763 4.50131 51.1763 4.41929 51.1763 4.37828C51.1763 4.33727 51.1763 4.29625 51.1763 4.25524C51.1558 3.67083 51.1866 3.08641 51.2276 2.5225C51.2276 2.37896 51.2481 2.23542 51.2481 2.09188C51.2584 1.84581 51.2686 1.59974 51.2789 1.33316L51.2994 0.882031L51.402 0.758996C51.4533 0.697478 51.5046 0.635961 51.5558 0.574443C51.72 0.369385 51.9251 0.256603 52.1713 0.256603C52.1815 0.256603 52.2021 0.256603 52.2123 0.256603C52.2328 0.256603 52.2431 0.256603 52.2533 0.256603C52.397 0.184832 52.5611 0.164326 52.6944 0.133568C52.7662 0.123315 52.8483 0.102809 52.9201 0.0823031C53.3099 -0.0304791 53.7202 -0.040732 54.192 0.0515443C54.2638 0.0617972 54.3356 0.0720502 54.4177 0.0720502C54.4792 0.0720502 54.5408 0.0720502 54.6023 0.0823031C54.6844 0.0823031 54.7767 0.102809 54.869 0.113062L55.0126 0.133568C55.0126 0.133568 55.0844 0.143821 55.1255 0.154074C55.1973 0.164326 55.2691 0.174579 55.3306 0.174579C55.5152 0.174579 55.7409 0.195085 55.9255 0.389891C55.9255 0.389891 55.9255 0.389891 55.9461 0.389891C56.3769 0.256603 56.7667 0.379638 57.1154 0.471914L57.2283 0.502673C57.4129 0.553937 57.577 0.656467 57.6898 0.800008C58.1309 0.820513 58.2437 0.933296 58.3053 1.37417V1.40493C58.3463 1.62024 58.3771 1.84581 58.4079 2.06112C58.4592 2.37896 58.4694 2.70705 58.4284 3.0454C58.3771 3.52728 58.3771 4.01942 58.4284 4.57308C58.4899 5.21902 58.5104 5.8752 58.5412 6.51088L58.5617 6.98252C58.572 7.22859 58.5925 7.47466 58.6233 7.71048C58.7874 7.51567 58.9618 7.32087 59.1259 7.11581L59.1567 7.08505C59.1567 7.08505 59.208 7.02353 59.2285 7.00303C59.4746 6.75695 59.7106 6.48013 59.9362 6.21355C60.1209 5.99824 60.3158 5.77267 60.5107 5.55736C60.7671 5.29079 61.0133 4.99345 61.2287 4.74738C61.5774 4.32701 61.8852 4.00917 62.1929 3.73234C62.2647 3.66057 62.3365 3.57855 62.4083 3.49653C62.4698 3.42476 62.5314 3.35299 62.5929 3.29147C63.0545 2.81983 63.5366 2.39946 64.0187 2.04061C64.0905 1.97909 64.1418 1.92783 64.1726 1.84581C64.3367 1.44594 64.6034 1.1281 64.8701 0.820513L64.9214 0.769249C65.0342 0.635961 65.1778 0.533432 65.3419 0.49242C65.5574 0.430902 65.7728 0.369385 65.9984 0.31812C66.2959 0.24635 66.5729 0.266856 66.8293 0.379638C66.9114 0.420649 66.9934 0.420649 67.1062 0.400144C67.2396 0.379638 67.3832 0.369385 67.5576 0.369385C67.7832 0.369385 68.0192 0.379638 68.2448 0.389891C68.3884 0.389891 68.532 0.400144 68.6756 0.400144C68.8603 0.400144 69.0552 0.410397 69.2398 0.410397H69.4244C69.4244 0.410397 69.445 0.410397 69.4655 0.410397C69.5168 0.410397 69.5886 0.410397 69.6706 0.430902C69.8553 0.482167 70.0399 0.430902 70.2656 0.359132L70.3476 0.338626L71.0554 0.543685C71.158 0.574443 71.2195 0.615455 71.2708 0.676973C71.3426 0.656467 71.4144 0.646214 71.4759 0.656467C71.5888 0.676973 71.6914 0.73849 71.7529 0.830766C71.8042 0.902537 71.835 0.974307 71.8657 1.03582C71.9478 1.24088 71.9683 1.45619 71.9478 1.68176C71.9273 1.87656 71.9478 2.08162 72.0401 2.32769C72.0504 2.35845 72.0606 2.39946 72.0709 2.43022C72.0811 2.46098 72.0914 2.50199 72.1017 2.53275C72.2555 2.94287 72.235 3.34273 72.0504 3.72209C71.9991 3.83487 71.9683 3.94765 71.9478 4.13221V4.286C71.917 4.48081 71.8965 4.67561 71.8965 4.87042C71.8965 5.08573 71.917 5.32155 71.9786 5.57787C71.9888 5.63939 72.0093 5.7009 72.0299 5.75217L72.0606 5.8547C72.1427 6.12127 72.2042 6.43911 72.0606 6.76721C72.0606 6.76721 72.0606 6.79797 72.0606 6.85948C72.0709 6.91075 72.0811 6.95176 72.0914 7.00303C72.1119 7.0953 72.1222 7.17732 72.1427 7.2696C72.2247 7.54643 72.2247 7.81301 72.1427 8.05908C72.0709 8.30515 72.0811 8.55122 72.1735 8.79729C72.2966 9.13563 72.2966 9.45347 72.1735 9.79182C72.1632 9.82258 72.1632 9.89435 72.1735 9.95587C72.1735 10.0481 72.1837 10.1507 72.194 10.2532V10.3352C72.235 10.7761 72.2453 11.135 72.2042 11.4836C72.1735 11.7809 72.2042 12.068 72.2248 12.3858C72.276 12.8882 72.276 13.4008 72.276 13.852C72.276 14.1083 72.276 14.4466 72.3273 14.7747C72.3889 15.2156 72.3889 15.6257 72.3273 16.0256C72.3068 16.1896 72.2966 16.3537 72.2863 16.5382C72.2863 16.6203 72.2863 16.7023 72.276 16.7843C72.276 16.8048 72.276 16.8253 72.276 16.8458C72.276 16.9176 72.276 17.0201 72.2453 17.1329C72.1837 17.2867 72.1837 17.461 72.1837 17.6558C72.1837 17.7071 72.1837 17.7583 72.1837 17.8096V17.8916C72.1837 18.2095 72.1632 18.3017 71.9375 18.6093C71.6503 19.0092 71.2811 19.2245 70.881 19.2245" fill="#FAF3E8"/>
<path d="M38.8779 11.7089C38.8779 11.7089 38.7753 11.7806 38.724 11.8011C38.6317 11.8421 38.5291 11.8729 38.4265 11.9037C37.7393 12.1292 37.052 12.3445 36.3648 12.5701C35.9852 12.6931 35.9134 12.7034 35.5339 12.7034C35.0005 12.7136 34.5082 12.5701 34.0773 12.2625C34.0055 12.2113 33.9337 12.16 33.8722 12.0882C33.7081 11.9037 33.6363 11.6884 33.7081 11.4423C33.7388 11.3295 33.7799 11.2167 33.8209 11.1142C33.8824 10.9501 33.9542 10.7861 34.0158 10.622C34.1491 10.2837 34.2312 9.92485 34.2312 9.55574C34.2312 9.31993 34.2825 9.09436 34.3645 8.8688C34.5902 8.26388 34.9595 7.76148 35.4826 7.38212C35.698 7.22833 35.9237 7.09504 36.1596 6.96176C36.3032 6.87973 36.4571 6.82847 36.6212 6.80796C36.97 6.7772 37.1546 6.88999 37.2674 7.20783C37.3187 7.34111 37.3495 7.48465 37.3803 7.6282C37.5136 8.16135 37.6982 8.6945 37.9342 9.19689C38.1701 9.69929 38.4368 10.1914 38.683 10.6836C38.765 10.8374 38.8573 10.9912 38.9291 11.1449C38.9702 11.2167 38.9907 11.309 39.0009 11.391C39.0112 11.5141 38.9599 11.6166 38.8573 11.6986M47.6173 17.5633C47.3916 17.2147 47.2685 16.8251 47.1967 16.4149C47.1557 16.2099 47.0941 16.0253 47.0018 15.8408C46.9095 15.646 46.8069 15.4409 46.7351 15.2359C46.6428 14.9693 46.5402 14.7232 46.3966 14.4771C46.1504 14.0465 45.9555 13.5851 45.8222 13.1033C45.7709 12.9392 45.7196 12.7649 45.6683 12.6009C45.4734 12.0472 45.3093 11.4935 45.0529 10.9604C44.9708 10.7861 44.9195 10.6015 44.8683 10.4272C44.7657 10.0889 44.6734 9.75055 44.5708 9.42246C44.3964 8.8688 44.1605 8.32539 43.8938 7.8025C43.7604 7.54617 43.6373 7.2796 43.545 7.00277C43.4219 6.64391 43.3091 6.28506 43.2168 5.91596C43.145 5.62888 43.0219 5.37255 42.8578 5.11623C42.7757 4.99319 42.7039 4.87016 42.6424 4.73687C42.2936 3.95765 41.9551 3.18868 41.6064 2.40946C41.5448 2.26592 41.4833 2.11212 41.3909 1.97884C41.2679 1.80454 41.1961 1.61998 41.114 1.42518C40.9499 1.35341 40.7858 1.27138 40.6319 1.19961C40.4985 1.1381 40.3549 1.08683 40.2319 1.00481C39.9857 0.830508 39.7087 0.748485 39.4112 0.686967C39.124 0.62545 38.8471 0.615197 38.6214 0.779244C38.3752 0.707473 38.1496 0.635703 37.9137 0.574185C37.6777 0.512668 37.4521 0.492162 37.2059 0.522921C36.7956 0.574185 36.3853 0.604944 35.9647 0.594691C35.6878 0.594691 35.4006 0.635703 35.1236 0.676714C35.021 0.686967 34.9287 0.717726 34.8877 0.840761C34.8672 0.902279 34.7954 0.912532 34.7338 0.902279C34.6723 0.902279 34.6107 0.881773 34.5594 0.861267C34.4466 0.810002 34.3338 0.820255 34.2107 0.861267C33.8722 0.963796 33.5439 1.11759 33.2567 1.32265C33.1131 1.42518 32.99 1.54821 32.8977 1.70201C32.6413 2.13263 32.4156 2.5735 32.3028 3.06565C32.1797 3.58854 31.9438 4.08068 31.7284 4.58308C31.6873 4.69586 31.6258 4.78814 31.5642 4.89067C31.4104 5.15724 31.2257 5.40331 31.0924 5.68014C30.8872 6.13127 30.6206 6.55164 30.3744 6.98226C30.0564 7.54617 29.7897 8.13059 29.564 8.73551C29.4204 9.10462 29.2768 9.47372 29.123 9.83257C28.9486 10.2529 28.7639 10.6631 28.569 11.0732C28.4357 11.3705 28.3024 11.6576 28.1382 11.9344C27.6972 12.6624 27.3484 13.4416 27.0407 14.2311C26.9791 14.3849 26.9176 14.5284 26.8868 14.6925C26.8048 15.1128 26.6406 15.5024 26.4047 15.8613C26.3227 15.9843 26.2508 16.1176 26.2098 16.2509C26.097 16.6303 26.0047 17.0096 26.0047 17.4095C26.0047 17.6145 25.9636 17.8196 25.8713 18.0042C25.6662 18.4245 25.6764 18.8859 25.5636 19.3268C25.5533 19.378 25.5636 19.4498 25.5841 19.5011C25.7175 19.7677 25.9739 19.9112 26.2714 19.8804C26.6099 19.8394 26.9484 19.7882 27.2869 19.7471C27.8305 19.6754 28.3742 19.6036 28.9178 19.5318C29.4204 19.4601 29.923 19.4396 30.4051 19.255C30.4975 19.2242 30.6103 19.2242 30.7129 19.214C30.8052 19.214 30.8872 19.214 30.9796 19.214C31.1642 19.214 31.3283 19.1525 31.4719 19.0397C31.7489 18.8141 31.9643 18.5373 32.1079 18.2092C32.1694 18.0554 32.2207 17.9016 32.2925 17.7581C32.4566 17.43 32.5592 17.0814 32.59 16.7123C32.59 16.6713 32.6003 16.6303 32.6105 16.5892C32.6413 16.4867 32.7233 16.4149 32.8362 16.4047C33.0721 16.3842 33.308 16.3842 33.5439 16.3637C34.2209 16.2919 34.8979 16.2201 35.5852 16.1791C36.016 16.1484 36.4366 16.1074 36.8776 16.0971C36.9905 16.0971 37.1136 16.0766 37.2264 16.0663C37.5341 16.0253 37.8418 15.9843 38.1496 15.9638C38.3958 15.9433 38.6522 15.9228 38.8984 15.8921C39.2676 15.8408 39.6369 15.8203 40.0062 15.7895C40.3037 15.769 40.3755 15.769 40.4473 16.0766C40.4473 16.1074 40.4678 16.1279 40.478 16.1586C40.6627 16.5585 40.7652 16.9789 40.7755 17.43C40.7755 17.635 40.8576 17.8299 40.9704 18.0042C41.0422 18.1169 41.1243 18.2195 41.2576 18.2707C41.4833 18.3528 41.7192 18.4348 41.9449 18.3733C42.3654 18.2605 42.7962 18.2502 43.2168 18.2605C43.3091 18.2605 43.3912 18.2502 43.4835 18.2502C43.781 18.2502 44.0784 18.2502 44.3759 18.2605C44.5195 18.2605 44.6734 18.2707 44.817 18.2605C45.0324 18.24 45.258 18.2092 45.4837 18.2092C45.7504 18.2092 46.0171 18.2502 46.2838 18.2605C46.6736 18.2707 47.0531 18.2605 47.4224 18.1272C47.7916 17.9836 47.8122 17.9221 47.607 17.594" fill="#FAF3E8"/>
<path d="M36.7446 7.07422C36.7446 7.07422 36.6933 7.07422 36.6522 7.07422C36.5394 7.07422 36.4163 7.12548 36.3035 7.187C36.0676 7.32029 35.8522 7.45358 35.647 7.59712C35.1752 7.93547 34.8367 8.37634 34.6213 8.96076C34.5392 9.17607 34.4982 9.37087 34.4982 9.55543C34.4982 9.93478 34.4264 10.3141 34.2725 10.714C34.2417 10.8063 34.2007 10.8883 34.1699 10.9806C34.1392 11.0524 34.1084 11.1241 34.0776 11.2061C34.0366 11.3087 34.0058 11.4112 33.975 11.5137C33.934 11.6573 33.975 11.7803 34.0879 11.9136C34.1289 11.9546 34.1699 11.9956 34.2417 12.0469C34.6213 12.3237 35.0521 12.4468 35.5342 12.4468C35.8829 12.4468 35.924 12.4468 36.283 12.3237C36.6933 12.1904 37.1036 12.0571 37.5139 11.9239L38.3447 11.6573C38.4371 11.6265 38.5294 11.5958 38.6217 11.5547C38.6525 11.5445 38.6832 11.524 38.714 11.5035C38.714 11.5035 38.755 11.4522 38.7448 11.4317C38.7448 11.3702 38.7243 11.3087 38.7037 11.2677C38.6627 11.1754 38.6114 11.0831 38.5601 11.0011C38.5294 10.9396 38.4883 10.8781 38.4576 10.8063L38.2627 10.4269C38.078 10.0578 37.8831 9.68871 37.7088 9.31961C37.4728 8.82747 37.2882 8.30457 37.1343 7.7099V7.65864C37.0933 7.5356 37.0625 7.41257 37.0215 7.31004C36.96 7.13574 36.8984 7.07422 36.7343 7.07422M35.4829 12.9696C34.9085 12.9696 34.3853 12.8056 33.934 12.4775C33.8622 12.4262 33.7699 12.3545 33.6878 12.2725C33.4519 12.0059 33.3698 11.6983 33.4622 11.3804C33.4929 11.2574 33.534 11.1446 33.5852 11.0318C33.616 10.9498 33.6468 10.8781 33.6776 10.796C33.7083 10.714 33.7494 10.632 33.7801 10.5397C33.9135 10.1911 33.975 9.87327 33.975 9.56568C33.975 9.31961 34.0263 9.06329 34.1289 8.78646C34.3853 8.10976 34.7956 7.57661 35.3393 7.17675C35.5547 7.02296 35.7804 6.88967 36.0368 6.74613C36.2214 6.6436 36.4163 6.58208 36.6112 6.56157C37.0728 6.52056 37.3805 6.70511 37.5344 7.13574C37.5857 7.26903 37.6165 7.40231 37.6472 7.5356V7.57661C37.8011 8.14052 37.9755 8.63266 38.2011 9.09404C38.3755 9.46315 38.5704 9.83226 38.755 10.1911L38.9499 10.5705C38.9807 10.632 39.0115 10.6935 39.0422 10.755C39.0935 10.8575 39.1448 10.9498 39.1961 11.0524C39.2371 11.1549 39.2782 11.2677 39.2884 11.3907C39.3089 11.5958 39.2166 11.8008 39.0422 11.9239C38.9704 11.9751 38.8986 12.0161 38.8268 12.0469C38.7243 12.0879 38.6217 12.1187 38.5191 12.1597L37.6883 12.4262C37.278 12.5595 36.8677 12.6928 36.4574 12.8261C36.0471 12.9594 35.9342 12.9696 35.5444 12.9799H35.4829M34.3956 1.08651C34.3956 1.08651 34.334 1.08651 34.293 1.10702C33.9545 1.20955 33.6673 1.35309 33.4109 1.52739C33.2775 1.62992 33.1852 1.72219 33.1237 1.82472C32.8877 2.21433 32.6621 2.64496 32.5595 3.10634C32.4569 3.55747 32.2723 3.97784 32.0979 4.38795C32.0569 4.48023 32.0158 4.57251 31.9748 4.66478C31.9235 4.77757 31.862 4.89035 31.8004 4.99288C31.7389 5.09541 31.6773 5.18768 31.6261 5.27996C31.5132 5.45426 31.4106 5.61831 31.3388 5.78235C31.185 6.1207 31.0003 6.42829 30.8157 6.73587C30.7439 6.85891 30.6721 6.98194 30.6106 7.10498C30.3131 7.62788 30.0567 8.18154 29.8207 8.81722C29.6874 9.15556 29.5438 9.52467 29.3694 9.92453C29.1745 10.3757 29.0001 10.7858 28.8155 11.1754L28.7847 11.2472C28.6616 11.5137 28.5283 11.8008 28.3744 12.0674C27.9846 12.7133 27.6359 13.4515 27.2974 14.323C27.2358 14.4768 27.1845 14.6101 27.164 14.7332C27.0717 15.1843 26.9076 15.5944 26.6409 15.9943C26.5588 16.1173 26.5076 16.2198 26.487 16.3121C26.3845 16.6504 26.2921 17.0196 26.2921 17.3989C26.2921 17.6552 26.2409 17.8911 26.1383 18.1064C26.0254 18.3422 25.9844 18.5985 25.9434 18.8651C25.9126 19.0291 25.8921 19.2034 25.8408 19.3777C25.9229 19.5418 26.0767 19.6238 26.2614 19.6033C26.4768 19.5828 26.7024 19.552 26.9179 19.5213L27.841 19.3982C28.1898 19.3572 28.5488 19.306 28.8976 19.2547C29.0104 19.2342 29.1232 19.2239 29.2361 19.2137C29.6156 19.1727 29.9849 19.1214 30.3234 18.9984C30.4464 18.9574 30.5695 18.9471 30.6721 18.9368H30.7131C30.7747 18.9368 30.8362 18.9368 30.8978 18.9368C30.9285 18.9368 30.9593 18.9368 30.9901 18.9368C31.1132 18.9368 31.2158 18.8958 31.3183 18.8241C31.5748 18.619 31.7491 18.3832 31.8722 18.0961C31.8928 18.0346 31.9235 17.9833 31.944 17.9218C31.9851 17.8295 32.0158 17.727 32.0671 17.6347C32.221 17.3169 32.3133 17.0093 32.3338 16.6812C32.3338 16.6299 32.3441 16.5787 32.3646 16.5274C32.4261 16.3018 32.6108 16.1481 32.8262 16.1275C32.9185 16.1275 33.0108 16.1275 33.0929 16.1173C33.2365 16.1173 33.3801 16.107 33.5237 16.0865C34.3033 16.0045 34.9598 15.943 35.5752 15.902C35.7086 15.902 35.8316 15.8815 35.965 15.8712C36.2625 15.8507 36.5702 15.82 36.8779 15.82C36.9497 15.82 37.0318 15.8097 37.1036 15.7995H37.2062C37.2985 15.7789 37.3908 15.7687 37.4831 15.7482C37.6985 15.7174 37.9242 15.6867 38.1396 15.6764H38.1806C38.4165 15.6559 38.6422 15.6354 38.8679 15.6047C39.2474 15.5534 39.6269 15.5226 39.9962 15.5021C40.345 15.4714 40.6014 15.5021 40.7245 15.984L40.745 16.0148C40.9501 16.4761 41.0527 16.9273 41.0732 17.3887C41.0732 17.5219 41.1245 17.6655 41.2271 17.8398C41.2784 17.9218 41.3297 17.9731 41.381 17.9936C41.5656 18.0654 41.7502 18.1269 41.9144 18.0859C42.4067 17.9628 42.8991 17.9526 43.2683 17.9628C43.2991 17.9628 43.3401 17.9628 43.3812 17.9628C43.4325 17.9628 43.4838 17.9628 43.535 17.9628H43.7299C43.9659 17.9628 44.2018 17.9628 44.4377 17.9731C44.5505 17.9731 44.6941 17.9833 44.8275 17.9731H44.8788C45.0839 17.9423 45.3096 17.9218 45.5147 17.9218C45.6686 17.9218 45.8225 17.9321 45.9661 17.9526C46.0789 17.9526 46.202 17.9731 46.3148 17.9731C46.7149 17.9833 47.0431 17.9731 47.3508 17.85C47.4021 17.8295 47.4432 17.809 47.4637 17.7988C47.4534 17.7783 47.4329 17.7373 47.4021 17.686C47.1867 17.3374 47.0329 16.9375 46.9508 16.4556C46.92 16.2813 46.8585 16.1173 46.7764 15.943C46.6738 15.7482 46.5815 15.5329 46.4995 15.3176C46.3866 15.0202 46.2943 14.7947 46.1815 14.5999C45.9353 14.1692 45.7302 13.6874 45.5865 13.1645C45.5353 13.0004 45.484 12.8364 45.4327 12.6723C45.3917 12.5595 45.3506 12.4365 45.3199 12.3237C45.1762 11.8828 45.0326 11.4625 44.8377 11.0626C44.7659 10.9088 44.7147 10.755 44.6736 10.6012L44.6429 10.4884C44.6018 10.3449 44.5608 10.2116 44.5198 10.0681C44.4582 9.87327 44.4069 9.67846 44.3454 9.48366C44.1813 8.97101 43.9659 8.45836 43.6786 7.90471C43.535 7.61762 43.412 7.3408 43.3094 7.06397C43.176 6.68461 43.0632 6.30525 42.9709 5.95665C42.9093 5.71058 42.8068 5.48502 42.6426 5.23895C42.5606 5.11591 42.4785 4.97237 42.4067 4.81858C42.2016 4.36745 42.0067 3.91632 41.8118 3.46519C41.6682 3.1371 41.5246 2.809 41.381 2.49116L41.3399 2.40914C41.2886 2.29636 41.2476 2.19383 41.1861 2.11181C41.063 1.93751 40.9809 1.76321 40.9194 1.59916L40.5296 1.41461C40.5296 1.41461 40.4578 1.38385 40.4168 1.36334C40.3142 1.32233 40.2013 1.27107 40.0988 1.1993C39.8731 1.0455 39.6167 0.973731 39.3807 0.922467C39.1038 0.860949 38.9294 0.881455 38.7961 0.973732L38.6935 1.0455L38.396 0.963479C38.2114 0.912214 38.037 0.860949 37.8729 0.809685C37.6883 0.75842 37.4934 0.737914 37.278 0.768673C36.8779 0.819938 36.4368 0.860949 35.9958 0.840443C35.8111 0.840443 35.6265 0.860949 35.4316 0.891708C35.3495 0.891708 35.2777 0.912214 35.1957 0.922467C35.1957 0.922467 35.1854 0.922467 35.1752 0.922467C35.1136 1.08651 34.9392 1.17879 34.7443 1.14803C34.652 1.13778 34.5802 1.11727 34.5084 1.08651C34.4879 1.08651 34.4674 1.07626 34.4366 1.07626M26.1998 20.1262C25.8408 20.1262 25.5228 19.9314 25.3587 19.593C25.3074 19.4905 25.2869 19.3572 25.3177 19.2444C25.3587 19.0906 25.3792 18.9471 25.3997 18.7831C25.451 18.4857 25.4921 18.1781 25.6357 17.8808C25.7075 17.7373 25.7382 17.5732 25.7382 17.3989C25.7382 16.958 25.8408 16.5479 25.9536 16.1686C25.9947 16.025 26.0665 15.8712 26.1793 15.7072C26.405 15.3688 26.5486 15.01 26.6204 14.6306C26.6512 14.4563 26.7127 14.2923 26.7742 14.1385C27.1333 13.226 27.4923 12.4673 27.8923 11.7906C28.0359 11.5445 28.159 11.2779 28.2821 11.0216L28.3129 10.9498C28.4873 10.5705 28.6719 10.1603 28.8565 9.70922C29.0206 9.30936 29.1643 8.96076 29.2976 8.62241C29.5438 7.95597 29.8207 7.37155 30.1182 6.8384C30.19 6.71537 30.2618 6.59233 30.3336 6.4693C30.508 6.17196 30.6824 5.86438 30.826 5.55679C30.9183 5.35173 31.0414 5.16718 31.1542 4.99288C31.2055 4.91085 31.2568 4.82883 31.3081 4.73655C31.3696 4.63402 31.4209 4.54175 31.4619 4.45972C31.503 4.36745 31.544 4.27517 31.585 4.1829C31.7594 3.78303 31.9235 3.39342 32.0261 2.99356C32.1492 2.46041 32.4056 1.98877 32.6518 1.55815C32.7544 1.38385 32.898 1.24031 33.0826 1.09677C33.3801 0.881455 33.7186 0.717408 34.1084 0.594373C34.3033 0.532856 34.4776 0.543109 34.6315 0.604626C34.6315 0.604626 34.652 0.604626 34.6623 0.604626C34.7341 0.502097 34.8469 0.409821 35.0623 0.389315C35.1341 0.389315 35.2059 0.368809 35.2777 0.358556C35.4931 0.327797 35.7086 0.297039 35.9342 0.307292C36.3445 0.317545 36.7548 0.286786 37.1343 0.235521C37.4216 0.204762 37.6883 0.225268 37.9447 0.297039C38.1191 0.348303 38.2934 0.399568 38.4781 0.450832L38.5396 0.471338C38.8474 0.317545 39.1859 0.358556 39.4218 0.409821C39.709 0.471338 40.0475 0.563615 40.345 0.768673C40.4065 0.809685 40.4886 0.840444 40.5706 0.881455C40.6116 0.901961 40.6629 0.922467 40.704 0.942973L41.2886 1.20955L41.3297 1.31208C41.3912 1.47612 41.463 1.65042 41.5759 1.80422C41.6682 1.92725 41.7195 2.07079 41.781 2.19383L41.822 2.27585C41.9656 2.60395 42.1092 2.93204 42.2528 3.24988C42.4477 3.70101 42.6529 4.15214 42.8478 4.60327C42.8991 4.7263 42.9709 4.83908 43.0427 4.95187C43.2273 5.23895 43.3607 5.52603 43.4325 5.82336C43.5145 6.16171 43.6274 6.52056 43.7607 6.88967C43.8428 7.13574 43.9659 7.39206 44.0992 7.65864C44.3967 8.2328 44.6223 8.7762 44.7967 9.30936C44.8583 9.50416 44.9198 9.70922 44.9813 9.91428C45.0224 10.0476 45.0634 10.1911 45.1044 10.3244L45.1352 10.4474C45.1762 10.5807 45.2173 10.714 45.2686 10.8268C45.4737 11.2574 45.6276 11.7085 45.7712 12.1494C45.8122 12.2622 45.8532 12.3852 45.8943 12.498C45.9558 12.6723 46.0071 12.8364 46.0584 13.0107C46.1917 13.4823 46.3764 13.9232 46.6123 14.323C46.7456 14.5486 46.8482 14.7947 46.9713 15.1228C47.0431 15.3176 47.1354 15.5124 47.2278 15.6969C47.3303 15.902 47.4021 16.1173 47.4432 16.3429C47.5252 16.7632 47.6483 17.1118 47.8329 17.3989C47.956 17.5937 48.0484 17.768 47.9868 17.9628C47.9253 18.1576 47.7406 18.2397 47.5252 18.3217C47.1047 18.4857 46.6738 18.4857 46.2841 18.4755C46.161 18.4755 46.0276 18.4652 45.9045 18.455C45.7712 18.4447 45.6276 18.4345 45.4942 18.4242C45.3198 18.4242 45.125 18.4447 44.9198 18.4652H44.8685C44.6839 18.496 44.5198 18.4857 44.3762 18.4755C44.1607 18.4652 43.9351 18.4652 43.7094 18.4652H43.5043C43.5043 18.4652 43.4325 18.4652 43.3914 18.4652C43.3401 18.4652 43.2889 18.4652 43.2273 18.4652C42.8888 18.455 42.458 18.4652 42.0272 18.5677C41.7195 18.6498 41.422 18.5472 41.1656 18.455C41.0014 18.3934 40.8578 18.2602 40.745 18.0756C40.5911 17.8193 40.5296 17.604 40.5193 17.3682C40.5193 16.9785 40.4168 16.5889 40.2424 16.1993C40.2219 16.1583 40.2013 16.1173 40.1911 16.0763C40.1808 16.0353 40.1706 16.0045 40.1706 15.984C40.1295 15.984 40.0783 15.984 40.027 15.984C39.668 16.0045 39.2987 16.0353 38.9397 16.0865C38.6935 16.1173 38.4473 16.1378 38.2216 16.1583H38.1806C37.9652 16.1788 37.7601 16.2096 37.5549 16.2301C37.4626 16.2403 37.36 16.2506 37.2677 16.2608H37.1651C37.0728 16.2813 36.9805 16.2916 36.8882 16.3018C36.601 16.3018 36.2932 16.3326 36.006 16.3531C35.8727 16.3634 35.7393 16.3736 35.606 16.3839C35.0008 16.4249 34.3546 16.4864 33.5852 16.5684C33.4314 16.5889 33.2775 16.5889 33.1237 16.5992C33.0416 16.5992 32.9493 16.5992 32.8672 16.6094C32.8672 16.6299 32.8672 16.6607 32.8672 16.6812C32.8364 17.0708 32.7339 17.4502 32.5492 17.8193C32.5082 17.9013 32.4774 17.9833 32.4467 18.0654C32.4261 18.1269 32.3954 18.1986 32.3646 18.2602C32.2107 18.619 31.9748 18.9368 31.6568 19.1932C31.4619 19.347 31.2465 19.429 31.0003 19.429C30.9593 19.429 30.9183 19.429 30.867 19.429C30.826 19.429 30.7849 19.429 30.7439 19.429H30.6926C30.6208 19.429 30.549 19.429 30.508 19.4495C30.1079 19.6033 29.6976 19.6546 29.2976 19.6956C29.1848 19.7058 29.0822 19.7263 28.9694 19.7366C28.6103 19.7878 28.2616 19.8289 27.9026 19.8801L26.9794 20.0032C26.7537 20.0339 26.5281 20.0647 26.3127 20.0954C26.2716 20.0954 26.2306 20.0954 26.1998 20.0954" fill="#FAF3E8"/>
<path d="M18.7107 14.272C18.7107 14.272 18.7107 14.272 18.7107 14.2823C18.8031 14.2925 18.8338 14.3643 18.8543 14.4463C18.8543 14.4463 18.8543 14.4668 18.8338 14.4771C18.8338 14.4771 18.8133 14.4771 18.8031 14.4771C18.7313 14.4258 18.7005 14.3643 18.7107 14.2823C18.7107 14.2823 18.6902 14.272 18.68 14.2618C18.6902 14.2618 18.7005 14.2618 18.721 14.272M18.9569 20.4955C19.1826 20.4033 19.4082 20.352 19.6442 20.3315C19.9724 20.3007 20.3007 20.2905 20.6186 20.27C20.7212 20.27 20.8238 20.2495 20.9264 20.2495C21.2956 20.2187 21.5828 19.9829 21.9008 19.8393C21.9316 19.8188 21.9521 19.7778 21.9726 19.7368C21.9931 19.6958 21.9931 19.6445 22.0239 19.6138C22.188 19.4907 22.1983 19.3267 22.1778 19.1422C22.1778 19.0601 22.1778 18.9679 22.1778 18.8756C22.1983 18.7115 22.147 18.5885 22.0034 18.5065C21.8803 18.4347 21.7983 18.3322 21.7675 18.1989C21.7367 18.0041 21.6239 17.8503 21.511 17.6965C21.4187 17.5632 21.3469 17.4197 21.2649 17.2864C21.152 17.1018 21.0392 16.907 20.9161 16.7327C20.711 16.4354 20.4853 16.138 20.2699 15.8407C19.7262 15.0717 19.1928 14.3028 18.6492 13.5338C18.6184 13.4928 18.5774 13.462 18.5364 13.421C18.5364 13.421 18.5364 13.421 18.5261 13.421C18.5261 13.462 18.5158 13.503 18.4953 13.5338C18.4748 13.5646 18.4338 13.5851 18.403 13.5953C18.3517 13.5953 18.3107 13.5338 18.321 13.4723C18.321 13.4108 18.3825 13.3698 18.4338 13.38C18.4748 13.38 18.5056 13.4108 18.5364 13.421C18.4851 13.2262 18.3517 13.0724 18.2389 12.9186C18.2286 12.8981 18.1876 12.8981 18.1671 12.8879C18.1363 12.9084 18.1158 12.9391 18.085 12.9596C18.0748 12.9596 18.0337 12.9494 18.0235 12.9289C17.9825 12.8366 18.0337 12.7751 18.085 12.7136C18.0748 12.6623 18.0645 12.6008 18.044 12.5495C17.9619 12.406 17.8799 12.2727 17.7876 12.1394C17.4696 11.6883 17.1208 11.2474 16.8541 10.7553C16.8131 10.6835 16.7618 10.6527 16.6797 10.6527C16.6387 10.6527 16.5977 10.6322 16.5567 10.622C16.5156 10.6015 16.5054 10.5605 16.5464 10.5194C16.5669 10.4989 16.5874 10.4784 16.5977 10.4579C16.4746 10.0478 16.3207 9.6582 16.1566 9.27884C16.0746 9.09429 16.0027 8.89948 15.9207 8.71493C15.8899 8.64316 15.8694 8.58164 15.8386 8.50987C15.8079 8.4381 15.8386 8.36633 15.8797 8.30481C15.9207 8.2433 15.972 8.19203 16.0233 8.14077C16.8131 7.31028 17.6029 6.47979 18.3928 5.64931C19.1313 4.87009 19.8596 4.08061 20.5981 3.30139C20.6597 3.23987 20.7315 3.14759 20.8033 3.13734C20.9674 3.11684 21.0494 2.9938 21.1623 2.91178C21.1725 2.79899 21.1725 2.67596 21.2136 2.57343C21.2546 2.4504 21.3367 2.34787 21.3879 2.23508C21.3572 2.15306 21.3264 2.09154 21.3161 2.01977C21.3059 1.95825 21.3161 1.88648 21.3161 1.82497C21.2136 1.7737 21.1007 1.80446 21.0187 1.71218C20.8033 1.47637 20.5161 1.36359 20.1981 1.31232C19.9827 1.28156 19.757 1.28156 19.5313 1.27131C19.2852 1.26106 19.0185 1.29182 18.7825 1.2303C18.5056 1.15853 18.2286 1.11752 17.9619 1.04574C17.7465 0.984227 17.5209 0.973975 17.3055 0.99448C17.09 1.01499 16.8644 1.03549 16.649 1.00473C16.4336 0.984227 16.2387 1.02524 16.0335 1.0765C15.8079 1.13802 15.5719 1.18929 15.3463 1.24055C15.2642 1.26106 15.1719 1.26106 15.0898 1.29182C14.8847 1.36359 14.6898 1.37384 14.4846 1.32257C14.3205 1.28156 14.1974 1.35333 14.1051 1.48662C14.0743 1.53789 14.0538 1.58915 14.023 1.64041C13.9102 1.84547 13.7769 2.03003 13.5307 2.11205C13.4691 2.13255 13.4179 2.20433 13.3768 2.26584C13.3255 2.36837 13.2845 2.48115 13.2537 2.57343C13.1512 2.60419 13.0486 2.60419 12.9665 2.68621C12.6793 2.98355 12.3716 3.26038 12.0741 3.54746C11.8279 3.78328 11.5818 4.00884 11.3458 4.24466C11.2638 4.32668 11.192 4.41896 11.1202 4.51123C10.9663 4.72654 10.8124 4.94185 10.6073 5.11615C10.5355 5.16742 10.4842 5.23919 10.4329 5.32121C10.3406 5.47501 10.2278 5.6083 10.1047 5.73133C9.96107 5.85437 9.87901 6.03892 9.68411 6.11069C9.64308 6.12094 9.62257 6.17221 9.60205 6.21322C9.38665 6.55156 9.13021 6.83865 8.7712 7.0437C8.71991 7.07446 8.67888 7.11547 8.63785 7.15649C8.38141 7.3718 8.22755 7.64863 8.07368 7.93571C8.03265 8.00748 7.99162 8.0895 7.93008 8.15102C7.7557 8.32532 7.57106 8.49962 7.39669 8.67392C7.33514 8.73544 7.2736 8.83797 7.18128 8.80721C7.05819 8.76619 7.09922 8.63291 7.09922 8.54063C7.09922 8.45861 7.10948 8.36633 7.11973 8.28431C7.15051 7.92546 7.19154 7.55635 7.23257 7.1975C7.28385 6.77713 7.2736 6.35676 7.28385 5.92614C7.28385 5.05464 7.26334 4.17289 7.19154 3.30139C7.17102 3.08608 7.15051 2.86051 7.16076 2.6452C7.16076 2.08129 7.18128 2.22483 6.82227 1.85573C6.64789 1.67117 6.44274 1.5789 6.19656 1.55839C5.68368 1.51738 5.22209 1.30207 4.80153 1.04574C4.62716 0.932963 4.44252 0.850939 4.23737 0.799675C4.0117 0.738157 3.78604 0.656134 3.59115 0.522846C3.4578 0.43057 3.29368 0.389558 3.15007 0.32804C3.06801 0.287029 2.97569 0.297282 2.89363 0.348546C2.77054 0.43057 2.65771 0.522846 2.48333 0.563858C2.42179 0.533099 2.33973 0.492087 2.26793 0.461328C2.10381 0.399811 1.9602 0.420317 1.8884 0.574111C1.82685 0.707399 1.73453 0.779169 1.60119 0.820181C1.43707 0.871445 1.26269 0.912457 1.09857 0.963722C1.09857 0.973975 1.08831 0.99448 1.09857 1.00473C1.17037 1.14827 1.27295 1.27131 1.19089 1.44561C1.17037 1.48662 1.2114 1.55839 1.2114 1.61991C1.2114 1.71218 1.24217 1.80446 1.2114 1.87623C1.09857 2.31711 0.995992 2.75798 0.862645 3.18861C0.790842 3.41417 0.719039 3.62948 0.719039 3.8653C0.708782 4.17289 0.708782 4.48047 0.667752 4.77781C0.626722 5.09565 0.616464 5.41349 0.616464 5.74158C0.616464 6.1517 0.616464 6.55156 0.554919 6.96168C0.503631 7.3718 0.452344 7.77166 0.493374 8.18178C0.524146 8.45861 0.524146 8.73544 0.493374 9.01226C0.493374 9.10454 0.493374 9.18656 0.493374 9.27884C0.493374 9.51466 0.493374 9.75047 0.493374 9.97604C0.472859 10.9398 0.411314 11.9036 0.483116 12.8571C0.483116 12.9289 0.483116 13.0007 0.472859 13.0724C0.462601 13.216 0.452344 13.3595 0.442086 13.5133C0.421571 13.7184 0.401056 13.9234 0.390799 14.1285C0.390799 14.2207 0.370284 14.3028 0.370284 14.395C0.329254 15.0205 0.349769 15.6459 0.370284 16.2816C0.370284 16.3841 0.380541 16.4866 0.401056 16.5892C0.452344 16.8045 0.442086 17.0198 0.401056 17.2454C0.380541 17.3889 0.360026 17.5324 0.360026 17.676C0.380541 18.2604 0.298481 18.8448 0.329254 19.4292C0.360026 19.9521 0.349769 20.4853 0.370284 21.0082C0.390799 21.3158 0.442086 21.6131 0.493374 21.9207C0.524146 22.136 0.565177 22.3513 0.626722 22.5666C0.698524 22.8435 0.719039 23.11 0.626722 23.3869C0.626722 23.4176 0.626722 23.4484 0.636979 23.5201C0.852387 23.6227 0.88316 23.8585 0.944705 24.0841C0.944705 24.1148 0.96522 24.1353 0.975477 24.1661C1.00625 24.2379 1.12934 24.2789 1.20114 24.2481C1.24217 24.2276 1.2832 24.2173 1.31398 24.1866C1.42681 24.0738 1.57041 24.0533 1.72428 24.0636C2.01149 24.0841 2.28844 24.0533 2.56539 23.9918C2.82183 23.9303 3.08853 23.8995 3.35522 23.8687C4.06299 23.7765 4.77076 23.6739 5.40673 23.3253C5.72471 23.151 6.09398 23.1715 6.43248 23.069C6.51454 23.0383 6.62737 23.0895 6.74021 23.11C6.85304 23.1203 6.98639 23.028 6.99664 22.9152C6.99664 22.7717 7.01716 22.6179 6.99664 22.4846C6.90433 21.9207 6.87355 21.3568 6.84278 20.7826C6.82227 20.4135 6.80175 20.0547 6.78124 19.6856C6.78124 19.5728 6.77098 19.4497 6.78124 19.337C6.78124 18.9986 6.80175 18.6705 6.81201 18.3322C6.81201 18.1681 6.83252 18.0143 6.83252 17.8503C6.83252 17.6862 6.89407 17.5427 7.01716 17.4197C7.08896 17.3479 7.16076 17.2761 7.21205 17.1838C7.29411 17.0608 7.38643 16.948 7.50952 16.866C7.57106 16.825 7.63261 16.784 7.6839 16.7225C7.79673 16.5892 7.89931 16.4456 8.03265 16.3226C8.15574 16.1996 8.33012 16.1278 8.44295 15.9945C8.62759 15.7997 8.82248 15.6254 9.01737 15.4408C9.13021 15.3383 9.22253 15.2255 9.31484 15.123C9.43793 14.9897 9.55077 14.8564 9.67386 14.7334C9.79695 14.6104 9.92004 14.4771 10.0021 14.3233C10.0944 14.1285 10.2483 14.0054 10.4534 13.9337C10.597 14.0567 10.6483 14.231 10.7201 14.3848C10.9253 14.8052 11.1612 15.2153 11.4484 15.5844C11.6946 15.9022 11.91 16.2201 12.1151 16.5584C12.3306 16.9275 12.587 17.2659 12.8742 17.5735C12.9973 17.6965 13.0999 17.84 13.2024 17.9836C13.3358 18.1681 13.4691 18.3732 13.6025 18.568C13.9615 19.0909 14.4026 19.542 14.7924 20.0342C15.0385 20.3417 15.3155 20.6288 15.6335 20.8749C15.8899 21.08 16.1771 21.2132 16.4849 21.326C16.5874 21.367 16.7003 21.3568 16.7823 21.285C16.9259 21.1825 17.0388 21.0389 17.2439 21.0492C17.2644 21.0492 17.2952 21.0184 17.3157 20.9979C17.3978 20.8851 17.5106 20.8749 17.6337 20.8851C17.9414 20.8954 18.2184 20.8236 18.5056 20.7211C18.6697 20.6596 18.8338 20.5981 18.9979 20.5365" fill="#FAF3E8"/>
<path d="M1.27289 0.84063C1.27289 0.84063 1.27289 0.84063 1.27289 0.850883C1.27289 0.850883 1.27289 0.850883 1.27289 0.84063ZM18.3209 13.8413L18.6389 13.9644C18.6389 13.9644 18.5671 13.8721 18.5363 13.8208C18.5055 13.8311 18.4748 13.8413 18.444 13.8516C18.403 13.8516 18.3619 13.8516 18.3209 13.8516M0.852333 23.3048C1.02671 23.4586 1.08826 23.6841 1.12929 23.8584V23.8892C1.28315 23.7662 1.47804 23.7149 1.70371 23.7354C1.92937 23.7559 2.15504 23.7354 2.45251 23.6636C2.68843 23.6124 2.91409 23.5816 3.13976 23.5508L3.26285 23.5303C3.88856 23.4483 4.60659 23.356 5.22204 23.0177C5.45796 22.8947 5.70414 22.8537 5.91955 22.8126C6.0529 22.7921 6.18624 22.7716 6.29908 22.7306C6.43243 22.6896 6.55551 22.7204 6.63758 22.7306C6.64783 22.7306 6.66835 22.7306 6.67861 22.7306C6.67861 22.6178 6.67861 22.5153 6.67861 22.4128C6.58629 21.8694 6.54526 21.326 6.52474 20.68C6.52474 20.4545 6.50423 20.2289 6.48371 20.0136C6.48371 19.8701 6.4632 19.7368 6.4632 19.5932C6.4632 19.4702 6.45294 19.3472 6.45294 19.2241C6.45294 18.8858 6.47346 18.5577 6.48371 18.2193C6.48371 18.1271 6.48371 18.045 6.49397 17.963C6.49397 17.881 6.49397 17.8092 6.50423 17.7272C6.50423 17.4914 6.6068 17.2863 6.76067 17.1223C6.82221 17.0608 6.88376 16.9992 6.92479 16.9377C7.03762 16.7532 7.16071 16.6301 7.31457 16.5378C7.36586 16.5071 7.39663 16.4763 7.4274 16.4456C7.46843 16.3943 7.50947 16.343 7.5505 16.302C7.6223 16.2098 7.6941 16.1175 7.78642 16.0355C7.85822 15.9637 7.94028 15.9124 8.01208 15.8612C8.08389 15.8099 8.14543 15.7689 8.18646 15.7176C8.39161 15.5023 8.59676 15.3075 8.77114 15.1537C8.84294 15.0922 8.90449 15.0204 8.96603 14.9486L9.05835 14.8461C9.05835 14.8461 9.14041 14.7538 9.18144 14.7128C9.2635 14.6206 9.34556 14.5283 9.42762 14.4463C9.5302 14.354 9.63277 14.2309 9.70458 14.0977C9.82767 13.8516 10.0328 13.6773 10.2995 13.585L10.4431 13.5337L10.5662 13.6363C10.7201 13.7696 10.7919 13.9336 10.8534 14.0772C10.8637 14.1079 10.8842 14.1387 10.8944 14.1694C11.0996 14.5898 11.3253 14.9794 11.592 15.3178C11.8484 15.6458 12.0741 15.9842 12.2792 16.3225C12.4946 16.6814 12.7305 16.9992 13.0075 17.2966C13.1408 17.4401 13.2537 17.5939 13.3563 17.7374C13.4486 17.8605 13.5306 17.9835 13.6127 18.1065C13.664 18.1783 13.7153 18.2501 13.7666 18.3219C13.9922 18.65 14.2487 18.9575 14.5051 19.2549C14.659 19.4292 14.8026 19.6035 14.9462 19.7778C15.1923 20.0854 15.459 20.3519 15.7463 20.5775C15.9514 20.7415 16.2078 20.8748 16.5258 20.9876C16.5463 20.9876 16.5566 20.9876 16.5669 20.9876L16.6284 20.9364C16.7412 20.8441 16.8848 20.7313 17.09 20.7005C17.2541 20.516 17.49 20.5262 17.5926 20.5365C17.8183 20.5365 18.0645 20.4955 18.3517 20.3929C18.5158 20.3314 18.6799 20.2699 18.844 20.2084C19.0902 20.1161 19.3466 20.0546 19.6133 20.0238C19.8288 20.0033 20.0442 19.9931 20.2596 19.9828C20.3724 19.9828 20.4852 19.9726 20.5981 19.9623C20.6494 19.9623 20.7109 19.9623 20.7622 19.9521H20.9058C21.1109 19.9213 21.2853 19.8188 21.4905 19.706C21.5623 19.665 21.6443 19.624 21.7264 19.583C21.7264 19.5317 21.7572 19.4292 21.8495 19.3677C21.8905 19.3369 21.9213 19.2959 21.9008 19.1318C21.8905 19.0191 21.8905 18.9063 21.9008 18.8037C21.9008 18.7217 21.8905 18.7012 21.8495 18.6807C21.6546 18.5679 21.5315 18.3936 21.4905 18.1886C21.47 18.0553 21.3879 17.9425 21.2853 17.7887C21.2135 17.6964 21.1622 17.6042 21.1109 17.5016C21.0802 17.4504 21.0597 17.3991 21.0289 17.3581L20.9468 17.2248C20.8648 17.0915 20.7827 16.948 20.6904 16.8147C20.5775 16.6506 20.4647 16.4866 20.3416 16.3328C20.2391 16.1995 20.1467 16.056 20.0442 15.9227C19.7775 15.5433 19.5005 15.1537 19.2338 14.7743C19.1825 14.6923 19.121 14.6206 19.0697 14.5385C19.0492 14.5693 19.0287 14.6 18.9979 14.6308C18.8953 14.7128 18.7517 14.7231 18.6389 14.6513C18.5671 14.6 18.5158 14.5385 18.4748 14.477H18.3722L18.403 14.3335L17.5721 13.5132L18.2183 13.7593C18.2183 13.7593 18.167 13.7286 18.1465 13.708C18.0645 13.626 18.0132 13.503 18.0234 13.3902C18.0234 13.3184 18.0542 13.2467 18.1055 13.1954V13.1749H18.085L17.9619 13.1339C17.9619 13.1339 17.8183 13.0826 17.7567 12.9698C17.6952 12.8263 17.726 12.693 17.7567 12.611L17.5003 12.1906C17.4285 12.0881 17.3567 11.9856 17.2746 11.883C17.0387 11.5549 16.7823 11.2166 16.5771 10.8372C16.5156 10.8372 16.454 10.8167 16.3822 10.7757C16.2796 10.7244 16.2181 10.6424 16.1976 10.5399C16.1873 10.4681 16.1976 10.3861 16.2386 10.3143C16.136 10.0067 16.013 9.67865 15.8488 9.28904C15.7873 9.15575 15.736 9.01221 15.6745 8.86867L15.6129 8.71487C15.5821 8.6431 15.5616 8.57133 15.5308 8.49956C15.4796 8.35602 15.5001 8.19197 15.6027 8.05869C15.6539 7.99717 15.7052 7.93565 15.7565 7.88439L16.6899 6.90011C17.1721 6.39771 17.6542 5.88507 18.1363 5.37242C18.5568 4.92129 18.9876 4.47016 19.4082 4.01904C19.7159 3.69094 20.0236 3.3526 20.3416 3.0245L20.3621 2.99374C20.4339 2.91172 20.5365 2.79894 20.7006 2.77843C20.7314 2.77843 20.7622 2.74767 20.8135 2.69641C20.8135 2.69641 20.8237 2.68616 20.834 2.6759C20.834 2.58363 20.8442 2.4811 20.8853 2.37857C20.9263 2.27604 20.9776 2.18376 21.0186 2.10174C20.9981 2.05047 20.9879 2.00946 20.9776 1.94795C20.9776 1.93769 20.9776 1.92744 20.9776 1.90693C20.9058 1.88643 20.834 1.84542 20.7622 1.77365C20.6083 1.6096 20.3929 1.50707 20.1057 1.45581C19.9621 1.4353 19.8082 1.42505 19.6441 1.42505H19.4697C19.3979 1.41479 19.3159 1.42505 19.2338 1.42505C19.0492 1.42505 18.8543 1.42505 18.6594 1.38403C18.5363 1.35328 18.4235 1.33277 18.3004 1.30201C18.1465 1.27125 17.9927 1.24049 17.8388 1.19948C17.6542 1.14822 17.4695 1.13796 17.2746 1.15847C17.049 1.17898 16.8028 1.19948 16.5566 1.16872C16.3822 1.14822 16.2078 1.18923 16.0437 1.24049C15.8591 1.29176 15.6642 1.33277 15.4796 1.38403L15.3462 1.41479C15.3462 1.41479 15.2642 1.4353 15.2231 1.4353C15.1821 1.4353 15.1411 1.44555 15.1205 1.45581C14.8539 1.54808 14.6077 1.55833 14.341 1.48656C14.3205 1.48656 14.2999 1.48656 14.2589 1.54808C14.2487 1.56859 14.2384 1.58909 14.2281 1.59935C14.2179 1.6301 14.1974 1.66086 14.1871 1.68137C14.064 1.90693 13.8896 2.14275 13.5717 2.26579C13.5717 2.26579 13.5614 2.28629 13.5511 2.29654C13.5204 2.35806 13.4999 2.41958 13.4691 2.49135C13.4588 2.52211 13.4486 2.55287 13.4281 2.58363L13.387 2.69641L13.2639 2.73742C13.2639 2.73742 13.1921 2.75793 13.1614 2.76818C13.1306 2.76818 13.0896 2.78868 13.0896 2.78868C12.8639 3.01425 12.628 3.23981 12.392 3.46538L11.9612 3.87549C11.7971 4.02929 11.6227 4.19334 11.4586 4.34713C11.3971 4.40865 11.3355 4.49067 11.2637 4.58295C11.0996 4.81876 10.9252 5.04433 10.6996 5.23913C10.6585 5.26989 10.6175 5.32116 10.5867 5.37242C10.4841 5.54672 10.3611 5.70051 10.2072 5.8338C10.1662 5.86456 10.1354 5.90557 10.1046 5.94658C10.0226 6.04911 9.91998 6.1619 9.76612 6.24392L9.74561 6.26443C9.47891 6.68479 9.18144 6.98213 8.82243 7.17693C8.80191 7.17693 8.79166 7.19744 8.7814 7.21795C8.76088 7.23845 8.74037 7.24871 8.73011 7.26921C8.5147 7.44351 8.3711 7.68958 8.22749 7.96641C8.1762 8.06894 8.12492 8.16121 8.04286 8.24324C7.86848 8.42779 7.68384 8.60209 7.49921 8.76614C7.49921 8.76614 7.47869 8.78664 7.47869 8.7969C7.41715 8.86867 7.26328 9.04297 7.02736 8.96094C6.74015 8.85841 6.76067 8.59184 6.76067 8.49956C6.76067 8.48931 6.76067 8.4688 6.76067 8.45855C6.76067 8.37653 6.76067 8.2945 6.77092 8.23299V8.16122C6.81195 7.80236 6.85298 7.43326 6.89401 7.06415C6.93504 6.7053 6.93504 6.31569 6.9453 5.94658V5.82355C6.9453 4.90079 6.92479 4.04979 6.85298 3.21931C6.83247 2.97324 6.81195 2.75793 6.82221 2.54261V2.49135C6.82221 2.35806 6.82221 2.22477 6.82221 2.19402C6.82221 2.19402 6.77092 2.14275 6.74015 2.11199C6.68886 2.07098 6.63758 2.01972 6.56577 1.94795C6.43243 1.81466 6.28882 1.74289 6.11444 1.73263C5.62208 1.69162 5.13998 1.51732 4.59633 1.17898C4.41169 1.06619 4.25783 0.994424 4.10397 0.963665C3.81676 0.891894 3.57058 0.789365 3.36543 0.656077C3.29362 0.604813 3.20131 0.574054 3.10899 0.533042C3.0577 0.512536 3.01667 0.492031 2.96538 0.471525C2.93461 0.492031 2.91409 0.502284 2.89358 0.522789C2.791 0.59456 2.6474 0.686836 2.46276 0.717595L2.3807 0.738101L2.25761 0.676583C2.25761 0.676583 2.15504 0.625319 2.09349 0.604813C2.06272 0.59456 2.05246 0.59456 2.04221 0.59456C1.96015 0.789365 1.80628 0.9124 1.60113 0.973918C1.51907 0.994424 1.44727 1.01493 1.36521 1.04569C1.39598 1.14822 1.4165 1.261 1.36521 1.39429C1.37547 1.4353 1.38572 1.46606 1.38572 1.50707V1.55833C1.39598 1.64036 1.4165 1.74289 1.38572 1.84542L1.35495 1.9787C1.25238 2.36831 1.16006 2.77843 1.02671 3.16804C0.954908 3.39361 0.893363 3.57816 0.893363 3.78322V3.97802C0.883105 4.22409 0.872848 4.47016 0.842075 4.71623C0.811303 4.98281 0.790787 5.26989 0.801045 5.639C0.801045 6.13114 0.78053 6.531 0.7395 6.88985C0.69847 7.2487 0.636925 7.66908 0.677955 8.05869C0.708727 8.36627 0.708727 8.65336 0.677955 8.94044C0.677955 8.9917 0.677955 9.04297 0.677955 9.10448V9.42232C0.677955 9.57612 0.677955 9.74016 0.677955 9.89396C0.677955 10.0888 0.667697 10.2836 0.65744 10.4886C0.636925 11.2371 0.606152 12.0061 0.65744 12.7545C0.65744 12.8263 0.65744 12.8981 0.647182 12.9493V13.1441C0.626667 13.2467 0.61641 13.3492 0.606152 13.4517C0.595895 13.5953 0.585637 13.7491 0.565122 13.8926L0.544607 14.1592C0.544607 14.2104 0.534349 14.2617 0.534349 14.313C0.493319 14.8666 0.513834 15.4305 0.534349 15.9842V16.1687C0.534349 16.2713 0.554864 16.3533 0.565122 16.4251C0.61641 16.6506 0.61641 16.8967 0.565122 17.1838C0.544607 17.3068 0.524092 17.4504 0.524092 17.5631C0.534349 17.8502 0.524092 18.1373 0.513834 18.4141C0.503577 18.7217 0.493319 19.0191 0.503577 19.3061C0.513834 19.5727 0.524092 19.8393 0.524092 20.1059C0.524092 20.3622 0.524092 20.6185 0.544607 20.8851C0.554864 21.1209 0.595895 21.367 0.636925 21.613L0.65744 21.7668C0.688212 21.9514 0.729242 22.177 0.78053 22.382C0.86259 22.6999 0.872848 22.9869 0.811303 23.2638M1.09851 24.4531C0.913878 24.4531 0.7395 24.3506 0.677955 24.207C0.65744 24.1558 0.647182 24.125 0.636925 24.084L0.61641 23.9815C0.57538 23.7969 0.544607 23.7149 0.483062 23.6841L0.349714 23.6226L0.329199 23.4791C0.329199 23.4791 0.329199 23.4381 0.329199 23.4278C0.329199 23.3765 0.308684 23.315 0.329199 23.2433C0.390744 23.028 0.390744 22.8126 0.329199 22.5666C0.267654 22.341 0.226624 22.0949 0.185594 21.9001L0.165079 21.7463C0.124048 21.49 0.0830184 21.2337 0.0625033 20.9671C0.0522458 20.7005 0.0419883 20.434 0.0419883 20.1776C0.0419883 19.9213 0.0419883 19.6547 0.0214732 19.3984C0.000958194 19.0806 0.0214732 18.7627 0.0317308 18.4551C0.0419883 18.1783 0.0522458 17.9117 0.0522458 17.6452C0.0522458 17.4709 0.0727609 17.3068 0.0932759 17.1633C0.134306 16.9377 0.124048 16.7737 0.0932759 16.6096C0.0727609 16.5071 0.0522458 16.3841 0.0522458 16.2508V16.0662C0.0317308 15.5023 0.0112157 14.9179 0.0522458 14.3437C0.0522458 14.2822 0.0625033 14.2309 0.0727609 14.1694L0.0932759 13.9029C0.103533 13.7593 0.124048 13.6158 0.134306 13.462C0.134306 13.3594 0.144564 13.2672 0.154821 13.1646V13.0314C0.154821 13.0314 0.165079 12.9801 0.175336 12.9493C0.175336 12.9186 0.185594 12.8878 0.175336 12.8468C0.124048 12.0676 0.144564 11.2781 0.175336 10.5194C0.175336 10.3246 0.185594 10.1298 0.195851 9.93497C0.195851 9.78118 0.195851 9.63764 0.195851 9.48384V9.23777V9.166C0.195851 9.09423 0.195851 9.02246 0.195851 8.95069C0.216366 8.70462 0.216366 8.4483 0.195851 8.17147C0.154821 7.72034 0.206109 7.27946 0.257396 6.88985C0.298426 6.54125 0.318941 6.1824 0.318941 5.70051C0.318941 5.3109 0.329199 4.99306 0.370229 4.70598C0.401002 4.48042 0.411259 4.25485 0.411259 4.00878V3.80372C0.431774 3.5474 0.493319 3.31158 0.575379 3.05526C0.69847 2.6759 0.790788 2.27604 0.893363 1.89668L0.924135 1.76339C0.924135 1.76339 0.924135 1.69162 0.924135 1.66086C0.924135 1.6301 0.924135 1.6096 0.924135 1.58909C0.90362 1.51732 0.872848 1.40454 0.924135 1.29176C0.924135 1.27125 0.924135 1.261 0.872848 1.14822C0.86259 1.11746 0.842075 1.09695 0.831818 1.06619C0.801045 1.00468 0.790788 0.922653 0.831818 0.830377L0.883105 0.707342L1.01645 0.656077L1.20109 0.604813C1.30366 0.574054 1.4165 0.543295 1.51907 0.512536C1.58062 0.492031 1.62165 0.461272 1.65242 0.399754C1.78577 0.133178 2.07298 0.0409021 2.37045 0.163937C2.42173 0.184443 2.47302 0.204949 2.51405 0.225455C2.56534 0.204949 2.61663 0.163937 2.67817 0.133178C2.70894 0.112673 2.73972 0.0921667 2.76023 0.0716609C2.91409 -0.0308683 3.09873 -0.0411213 3.26285 0.0306492C3.30388 0.051155 3.34491 0.0614079 3.38594 0.0819138C3.49877 0.122925 3.63212 0.17419 3.74495 0.256213C3.89882 0.358743 4.08345 0.440766 4.30912 0.492031C4.51427 0.543295 4.71942 0.635571 4.94508 0.768859C5.42719 1.06619 5.81697 1.20974 6.22727 1.25075C6.535 1.28151 6.79144 1.40454 7.0171 1.6301C7.07865 1.69162 7.12994 1.74289 7.17097 1.7839C7.4274 2.01972 7.43766 2.11199 7.4274 2.55287V2.60413C7.4274 2.79894 7.43766 3.004 7.45818 3.22956C7.52998 4.0703 7.56075 4.93155 7.5505 5.87481V5.99785C7.5505 6.37721 7.55049 6.77707 7.49921 7.16668C7.45818 7.52553 7.41715 7.88439 7.38637 8.25349V8.274C7.50946 8.16121 7.6223 8.03818 7.74539 7.9254C7.77616 7.89464 7.79668 7.84337 7.82745 7.79211V7.7716C8.01208 7.45376 8.18646 7.15643 8.47367 6.92061L8.50445 6.88985C8.50445 6.88985 8.58651 6.81808 8.64805 6.77707C8.925 6.62328 9.16093 6.37721 9.38659 6.02861C9.42762 5.95684 9.48917 5.86456 9.59174 5.82355C9.65329 5.80304 9.70457 5.74153 9.77638 5.6595C9.82767 5.60824 9.8687 5.54672 9.93024 5.49546C10.0431 5.39293 10.1354 5.28014 10.2175 5.14686C10.279 5.04433 10.3611 4.95205 10.4431 4.88028C10.6175 4.72649 10.7611 4.54193 10.9047 4.32662C10.9868 4.20359 11.0688 4.11131 11.1611 4.01904C11.3253 3.85499 11.4996 3.69094 11.6638 3.53715L12.0946 3.12703C12.3305 2.91172 12.5562 2.68616 12.7818 2.47084C12.8742 2.37857 12.9767 2.33756 13.0485 2.31705C13.0793 2.24528 13.0998 2.17351 13.1408 2.10174C13.1819 2.01972 13.2742 1.87617 13.4383 1.82491C13.5819 1.77365 13.6742 1.66086 13.7768 1.47631C13.7871 1.45581 13.7973 1.44555 13.7973 1.42505C13.8178 1.38403 13.8384 1.34302 13.8589 1.31226C14.023 1.06619 14.2692 0.963665 14.5256 1.04569C14.6795 1.0867 14.8128 1.0867 14.9667 1.02518C15.0385 0.994424 15.1103 0.984171 15.1821 0.973918C15.2129 0.973918 15.2334 0.973918 15.2642 0.963665L15.3975 0.932906C15.5821 0.891895 15.7565 0.850883 15.9411 0.799618C16.1566 0.738101 16.3925 0.686836 16.6592 0.717595C16.8643 0.738101 17.0695 0.717595 17.2644 0.707342C17.5311 0.676583 17.7772 0.697089 18.0234 0.758606C18.167 0.799618 18.3106 0.830377 18.4645 0.861136C18.5876 0.891894 18.7209 0.9124 18.844 0.943159C18.9774 0.973918 19.121 0.973918 19.2851 0.973918C19.3672 0.973918 19.4595 0.973918 19.5518 0.973918H19.7262C19.9006 0.984171 20.0749 0.994424 20.2493 1.01493C20.6596 1.07645 20.9776 1.23024 21.2135 1.48656C21.2238 1.48656 21.234 1.48656 21.2443 1.48656C21.2956 1.48656 21.3571 1.50707 21.4289 1.53783L21.593 1.6096V1.7839C21.593 1.7839 21.5828 1.82491 21.5725 1.85567C21.5725 1.87617 21.5725 1.91719 21.5725 1.92744C21.5725 1.94795 21.593 1.98896 21.6033 2.02997L21.6648 2.21452L21.6136 2.31705C21.6136 2.31705 21.5725 2.38882 21.552 2.41958C21.511 2.49135 21.47 2.55287 21.4494 2.60413C21.4392 2.64514 21.4289 2.70666 21.4289 2.77843C21.4289 2.81944 21.4289 2.86046 21.4187 2.90147V3.01425L21.3058 3.08602C21.2853 3.10653 21.2545 3.12703 21.234 3.14754C21.152 3.21931 21.0391 3.32184 20.8648 3.3526C20.8442 3.36285 20.8237 3.39361 20.8135 3.40386L20.7827 3.43462C20.475 3.76271 20.157 4.10106 19.8493 4.42915C19.4287 4.88028 19.0082 5.33141 18.5773 5.78254C18.0952 6.29518 17.6131 6.79758 17.1208 7.31022L16.1771 8.2945C16.1771 8.2945 16.1053 8.36627 16.0745 8.40728C16.095 8.4688 16.1155 8.52007 16.136 8.58158L16.1976 8.73538C16.2489 8.86867 16.3002 9.00196 16.3617 9.13524C16.5669 9.59662 16.7105 9.98624 16.813 10.3451V10.3964C16.9259 10.4374 16.9977 10.5091 17.049 10.6014C17.2439 10.95 17.4695 11.2678 17.726 11.6164C17.808 11.7292 17.8901 11.842 17.9721 11.965C18.0645 12.0881 18.1465 12.2214 18.2388 12.3957C18.2388 12.4059 18.2491 12.4162 18.2593 12.4264H18.5568L18.3722 12.693C18.3722 12.693 18.4132 12.734 18.4337 12.7545L18.4748 12.8058C18.5773 12.9391 18.6799 13.0826 18.7517 13.2569C18.7825 13.2877 18.8235 13.3184 18.8543 13.3697C19.121 13.7491 19.3979 14.1387 19.6646 14.518C19.9313 14.9076 20.2083 15.287 20.475 15.6664C20.5673 15.7996 20.6699 15.9329 20.7622 16.0662C20.8853 16.2303 20.9981 16.3943 21.1109 16.5584C21.2135 16.7019 21.2956 16.8454 21.3879 16.989L21.47 17.1223C21.5007 17.1735 21.5315 17.2351 21.5623 17.2863C21.6033 17.3683 21.6546 17.4504 21.7059 17.5221C21.8187 17.6759 21.9521 17.8707 22.0033 18.1271C22.0136 18.1886 22.0649 18.2296 22.1059 18.2603C22.2598 18.3526 22.4444 18.5372 22.4034 18.8858C22.4034 18.9473 22.4034 19.0191 22.4034 19.0908C22.4136 19.2036 22.4547 19.5112 22.2085 19.747C22.2085 19.7778 22.188 19.7983 22.1777 19.829C22.147 19.9008 22.0957 19.9931 21.9828 20.0443C21.9008 20.0854 21.8187 20.1366 21.7367 20.1776C21.511 20.3109 21.2443 20.4545 20.916 20.4852H20.7827C20.7212 20.5057 20.6596 20.5057 20.6083 20.516C20.4955 20.516 20.3827 20.5262 20.2698 20.5365C20.0647 20.5467 19.8493 20.557 19.6441 20.5775C19.4287 20.598 19.2236 20.6493 19.0287 20.721C18.8645 20.7928 18.6902 20.8543 18.526 20.9158C18.167 21.0491 17.8593 21.1107 17.5516 21.0901C17.49 21.0901 17.4695 21.0901 17.4593 21.0901C17.4387 21.1312 17.3362 21.2644 17.1618 21.2439C17.1105 21.2439 17.0592 21.2747 16.9464 21.367C16.9259 21.3875 16.8951 21.408 16.8746 21.4285C16.7207 21.5515 16.5156 21.572 16.3207 21.5105C15.9411 21.367 15.6437 21.2132 15.3975 21.0184C15.0795 20.7723 14.7923 20.4852 14.5154 20.1366C14.3717 19.9623 14.2281 19.788 14.0845 19.624C13.8178 19.3164 13.5511 18.9986 13.3152 18.6602C13.2639 18.5884 13.2126 18.5064 13.1614 18.4346C13.0793 18.3116 12.9972 18.1988 12.9152 18.086C12.8229 17.9528 12.7203 17.8195 12.6075 17.6964C12.2997 17.3786 12.0433 17.03 11.8074 16.6301C11.6125 16.3123 11.3971 15.9944 11.1611 15.6766C10.8739 15.3075 10.6175 14.8871 10.4021 14.436C10.3816 14.4052 10.3713 14.3642 10.3508 14.3335C10.3303 14.2925 10.3098 14.2514 10.2995 14.2104C10.2482 14.2514 10.1969 14.313 10.1662 14.3847C10.0636 14.5795 9.91998 14.7436 9.78664 14.8666C9.70458 14.9384 9.64303 15.0204 9.57123 15.1024C9.5302 15.1537 9.48917 15.1947 9.44814 15.246L9.36608 15.3383C9.29427 15.4203 9.21221 15.5023 9.13015 15.5843C8.96603 15.7381 8.76088 15.9124 8.57625 16.1175C8.49419 16.2098 8.40187 16.2713 8.30955 16.3328C8.24801 16.3738 8.18646 16.4148 8.14543 16.4558C8.07363 16.5173 8.02234 16.5891 7.95054 16.6711C7.89925 16.7224 7.85822 16.7839 7.80693 16.8352C7.74539 16.907 7.67358 16.9685 7.58127 17.0197C7.49921 17.071 7.43766 17.1428 7.36586 17.2556C7.29406 17.3581 7.212 17.4504 7.12994 17.5324C7.05813 17.6042 7.02736 17.6862 7.0171 17.7887C7.0171 17.8707 7.0171 17.9528 7.00685 18.0348C7.00685 18.1168 7.00685 18.1886 6.99659 18.2706C6.98633 18.6089 6.97607 18.937 6.96582 19.2754C6.96582 19.3882 6.96582 19.4907 6.96582 19.6035C6.96582 19.747 6.97607 19.8803 6.98633 20.0238C6.99659 20.2494 7.0171 20.475 7.02736 20.7005C7.05813 21.326 7.08891 21.8489 7.18122 22.3718C7.212 22.5461 7.20174 22.7204 7.18122 22.8639C7.18122 22.9869 7.10942 23.0997 7.00685 23.1817C6.89401 23.274 6.76067 23.315 6.62732 23.2945C6.57603 23.2945 6.52474 23.2843 6.48371 23.2638C6.4632 23.2638 6.43243 23.2535 6.42217 23.2535C6.2683 23.3048 6.1247 23.3253 5.98109 23.3458C5.7862 23.3765 5.61182 23.4073 5.45796 23.4893C4.76045 23.8687 3.99113 23.9712 3.31414 24.0635L3.19105 24.084C2.96538 24.1148 2.76023 24.1455 2.55508 24.1865C2.20633 24.2686 1.90886 24.2891 1.6319 24.2686C1.50881 24.2583 1.46778 24.2788 1.43701 24.3096C1.37547 24.3711 1.30366 24.4018 1.25238 24.4223C1.20109 24.4429 1.13954 24.4531 1.078 24.4531" fill="#FAF3E8"/>
</g>
<defs>
<clipPath id="clip0_336_1377">
<rect width="103.304" height="24.8437" fill="white"/>
</clipPath>
</defs>
</svg>
