<svg width="133" height="23" viewBox="0 0 133 23" fill="none" xmlns="http://www.w3.org/2000/svg">
<path d="M43.2 4.37086L43.2124 4.3584L43.2 4.37086Z" fill="#FAF3E8"/>
<path d="M6.2078 19.0008C6.2078 20.9636 4.77628 21.975 3.11619 21.975C1.45611 21.975 0.0366211 20.9636 0.0366211 19.0008V3.11812C0.0366211 1.23966 1.43205 0.167969 3.12822 0.167969C4.8244 0.167969 6.21983 1.23966 6.21983 3.10608V8.19962L11.2723 1.29987C11.8737 0.444922 12.3549 0.167969 13.6541 0.167969C15.6871 0.167969 16.866 1.42028 16.866 3.14221C16.866 3.85265 16.6735 4.52697 16.1683 5.00863L10.9835 10.644L16.2044 17.0862C16.6856 17.6642 16.9382 18.3144 16.9382 18.9526C16.9382 20.795 15.627 21.963 13.7263 21.963C12.8 21.963 11.9459 21.6258 11.3444 20.795L6.21983 13.8952V18.9888L6.2078 19.0008Z" fill="#FAF3E8"/>
<path d="M6.20775 19.0005H6.15964C6.15964 19.9758 5.81078 20.6983 5.25742 21.192C4.70406 21.6857 3.94619 21.9265 3.12818 21.9265C2.31017 21.9265 1.54028 21.6737 0.986914 21.192C0.433553 20.6983 0.096725 19.9758 0.096725 19.0005V3.11778C0.096725 2.19059 0.445583 1.48015 0.986914 0.986448C1.52825 0.480707 2.28611 0.215795 3.12818 0.215795C3.97025 0.215795 4.70406 0.480707 5.25742 0.974406C5.81078 1.46811 6.15964 2.19059 6.15964 3.10574V8.34377L11.3083 1.33565C11.609 0.902158 11.8737 0.637246 12.2225 0.456624C12.5714 0.288044 13.0045 0.215795 13.6541 0.215795C14.6646 0.215795 15.4465 0.528873 15.9878 1.04665C16.5291 1.56444 16.8178 2.29897 16.8178 3.14187C16.8178 3.84027 16.6254 4.50255 16.1322 4.97217L10.9113 10.6437L16.1562 17.122C16.6254 17.7 16.878 18.3261 16.878 18.9643C16.878 19.8674 16.5532 20.602 15.9998 21.1198C15.4465 21.6375 14.6525 21.9145 13.7142 21.9145C12.8 21.9145 11.9579 21.5773 11.3684 20.7706L6.15964 13.7504V18.9884H6.25587V14.0514L11.2842 20.8308C11.8977 21.6737 12.7759 22.0229 13.7142 22.0108C14.6766 22.0108 15.4946 21.7218 16.072 21.18C16.6494 20.6501 16.9742 19.8795 16.9742 18.9523C16.9742 18.29 16.7096 17.6398 16.2284 17.0497L11.0436 10.6437L16.2043 5.03237C16.7216 4.52663 16.9261 3.84027 16.9261 3.12983C16.9261 2.26284 16.6254 1.50423 16.072 0.962365C15.5187 0.4205 14.7006 0.107422 13.6661 0.107422C13.0165 0.107422 12.5594 0.179671 12.1865 0.360292C11.8135 0.540914 11.5369 0.829909 11.2361 1.2634L6.2679 8.04274V3.11778C6.2679 2.16651 5.90701 1.41994 5.32959 0.902158C4.74014 0.396417 3.95822 0.119463 3.12818 0.119463C2.29814 0.119463 1.49216 0.396417 0.926766 0.902158C0.349346 1.4079 0.000488281 2.16651 0.000488281 3.10574V18.9884C0.000488281 19.9758 0.361376 20.7465 0.926766 21.2522C1.50419 21.7579 2.28611 22.0108 3.12818 22.0108C3.97025 22.0108 4.75217 21.7579 5.32959 21.2522C5.90701 20.7465 6.2679 19.9879 6.2679 18.9884H6.21978L6.20775 19.0005Z" fill="#FAF3E8"/>
<path d="M28.9812 16.1111C31.8442 16.1111 34.202 13.9316 34.202 11.1501C34.202 8.36849 31.8442 6.11674 28.9812 6.11674C26.1181 6.11674 23.7964 8.35645 23.7964 11.1501C23.7964 13.9437 26.1181 16.1111 28.9812 16.1111ZM28.9571 0.0478516C35.2847 0.0478516 40.4093 4.94872 40.4093 11.0537C40.4093 17.1588 35.2847 22.0596 28.9571 22.0596C22.6295 22.0596 17.541 17.1588 17.541 11.0537C17.541 4.94872 22.6175 0.0478516 28.9571 0.0478516Z" fill="#FAF3E8"/>
<path d="M28.9812 16.1115V16.1596C30.4248 16.1596 31.748 15.6057 32.6984 14.7026C33.6487 13.7995 34.2502 12.5472 34.2502 11.1383C34.2502 9.72949 33.6607 8.4531 32.6984 7.53795C31.748 6.6228 30.4248 6.05685 28.9812 6.05685C27.5377 6.05685 26.2265 6.6228 25.2761 7.53795C24.3258 8.4531 23.7484 9.72949 23.7484 11.1383C23.7484 12.5472 24.3378 13.7995 25.2761 14.7026C26.2265 15.6057 27.5377 16.1596 28.9812 16.1596V16.0633C27.5617 16.0633 26.2746 15.5214 25.3483 14.6424C24.422 13.7634 23.8446 12.5352 23.8446 11.1504C23.8446 9.76562 24.422 8.52535 25.3483 7.62224C26.2746 6.71913 27.5617 6.16522 28.9812 6.16522C30.4007 6.16522 31.6879 6.71913 32.6262 7.62224C33.5645 8.52535 34.1419 9.76562 34.1419 11.1504C34.1419 12.5352 33.5645 13.7634 32.6262 14.6424C31.6879 15.5214 30.4007 16.0633 28.9812 16.0633V16.1115ZM28.9572 0.0481658V0.0963316C32.1089 0.0963316 34.9599 1.31252 37.017 3.29936C39.0741 5.2862 40.3492 8.01961 40.3492 11.0541C40.3492 14.0885 39.0741 16.834 37.017 18.8087C34.9599 20.7835 32.1089 22.0118 28.9572 22.0118C25.8054 22.0118 22.9664 20.7956 20.9094 18.8087C18.8523 16.8219 17.5892 14.0885 17.5892 11.0541C17.5892 8.01961 18.8523 5.27416 20.9094 3.29936C22.9544 1.32456 25.8054 0.0963316 28.9572 0.0963316V0C25.7814 0 22.9183 1.22823 20.8372 3.22711C18.7681 5.22599 17.481 7.99552 17.481 11.0541C17.481 14.1126 18.7561 16.8821 20.8372 18.881C22.9063 20.8799 25.7814 22.1081 28.9572 22.1081C32.133 22.1081 35.0081 20.8799 37.0892 18.881C39.1703 16.8821 40.4575 14.1246 40.4575 11.0541C40.4575 7.98348 39.1703 5.22599 37.0892 3.22711C35.0081 1.22823 32.133 0 28.9572 0V0.0481658Z" fill="#FAF3E8"/>
<path d="M54.0138 2.99739C54.0138 1.15505 55.349 0.179688 56.9971 0.179688C58.5609 0.179688 59.9203 1.16709 59.9203 2.99739V19.0005C59.9203 20.8669 58.4888 21.9747 56.9971 21.9747C55.9746 21.9747 54.9641 21.5171 54.2303 20.4455L48.4441 12.1368V19.157C48.4441 20.9994 47.1088 21.9747 45.4487 21.9747C43.8969 21.9747 42.5496 20.9873 42.5496 19.157V3.1178C42.5496 1.27546 43.945 0.179688 45.4487 0.179688C46.4953 0.179688 47.5178 0.61318 48.2516 1.68487L54.0138 9.99347V2.99739Z" fill="#FAF3E8"/>
<path d="M54.0118 2.99802H54.0599C54.0599 2.09492 54.3847 1.39651 54.914 0.938936C55.4433 0.481361 56.1771 0.22849 56.9952 0.22849C57.7651 0.22849 58.4868 0.469319 59.0161 0.938936C59.5454 1.40855 59.8823 2.09492 59.8823 2.99802V19.0011C59.8823 19.9283 59.5334 20.6508 58.9921 21.1565C58.4507 21.6623 57.741 21.9272 56.9952 21.9272C55.9967 21.9272 54.9982 21.4696 54.2644 20.41L48.382 11.9689V19.1456C48.382 20.0487 48.0572 20.7471 47.5279 21.2047C46.9986 21.6743 46.2648 21.9151 45.4468 21.9151C44.6769 21.9151 43.9671 21.6743 43.4499 21.2047C42.9326 20.7351 42.6078 20.0487 42.6078 19.1456V3.11844C42.6078 2.21533 42.9566 1.49284 43.4739 0.999143C44.0032 0.505444 44.713 0.22849 45.4468 0.22849C46.4813 0.22849 47.4798 0.649941 48.2015 1.70959L54.0479 10.1506V2.99802H53.9517V9.83757L48.2857 1.66142C47.5519 0.577692 46.5054 0.1442 45.4468 0.1442C44.6889 0.1442 43.9551 0.421153 43.4017 0.938936C42.8604 1.45672 42.4995 2.20329 42.4995 3.13048V19.1697C42.4995 20.0969 42.8363 20.8194 43.3777 21.3131C43.919 21.7947 44.6528 22.0476 45.4468 22.0476C46.2888 22.0476 47.0467 21.7947 47.6001 21.3131C48.1534 20.8314 48.4902 20.1089 48.4902 19.1697V12.3061L54.1923 20.4822C54.9261 21.5659 55.9726 22.0356 56.9952 22.0356C57.753 22.0356 58.4989 21.7586 59.0522 21.2408C59.6056 20.723 59.9665 19.9644 59.9665 19.0132V2.99802C59.9665 2.07083 59.6176 1.34835 59.0643 0.854646C58.5229 0.372988 57.7771 0.120117 56.9831 0.120117C56.1531 0.120117 55.3832 0.372988 54.8419 0.854646C54.2885 1.3363 53.9517 2.05879 53.9517 2.99802H53.9998H54.0118Z" fill="#FAF3E8"/>
<path d="M68.4605 13.4142V15.8707H73.0679C73.9581 15.8707 74.343 15.2205 74.343 14.6425C74.343 14.0284 73.9581 13.4142 73.0679 13.4142H68.4605ZM68.4605 6.27366V9.06727H73.0679C73.922 9.06727 74.343 8.33274 74.343 7.56209C74.343 6.91185 73.9581 6.27366 73.0679 6.27366H68.4605ZM62.542 3.26329C62.542 1.27645 63.4683 0.25293 65.3449 0.25293H75.1129C78.2647 0.25293 79.8887 3.01042 79.8887 5.82812C79.8887 8.28458 78.8421 10.3316 76.5444 10.8253C78.806 11.0662 80.2616 13.4263 80.2616 16.256C80.2616 19.2905 78.6376 21.8312 74.6919 21.8312H65.5013C63.5284 21.8312 62.542 20.8197 62.542 18.7968V3.26329Z" fill="#FAF3E8"/>
<path d="M68.4605 13.4139H68.4124V15.9185H73.0799C73.537 15.9185 73.8738 15.7499 74.0903 15.5091C74.3069 15.2683 74.4031 14.9432 74.4031 14.6421C74.4031 14.3411 74.3069 14.0039 74.0903 13.7631C73.8738 13.5223 73.537 13.3657 73.0799 13.3657H68.4124V13.4139H68.4605V13.4621H73.0678C73.5009 13.4621 73.8016 13.6066 74.0061 13.8233C74.1986 14.0401 74.2949 14.3411 74.2949 14.6301C74.2949 14.907 74.1986 15.2081 74.0061 15.4248C73.8137 15.6536 73.5129 15.7981 73.0678 15.8101H68.5086V13.4019H68.4605V13.4139ZM68.4605 6.27332H68.4124V9.1151H73.0799C73.525 9.1151 73.8618 8.92244 74.0783 8.63344C74.2949 8.34445 74.4031 7.95912 74.4031 7.56175C74.4031 7.22459 74.3069 6.89947 74.0903 6.6466C73.8738 6.39373 73.537 6.22515 73.0799 6.22515H68.4124V6.27332H68.4605V6.32148H73.0678C73.5009 6.32148 73.8016 6.47802 74.0061 6.70681C74.1986 6.9356 74.2949 7.24867 74.2949 7.56175C74.2949 7.93504 74.1866 8.29628 73.9941 8.57323C73.7896 8.83815 73.4889 9.01877 73.0799 9.01877H68.5207V6.27332H68.4725H68.4605ZM62.5419 3.26295H62.5901C62.5901 2.27555 62.8186 1.54103 63.2758 1.04733C63.7329 0.553626 64.4186 0.312797 65.3448 0.312797H75.1129C76.6767 0.312797 77.8436 0.99916 78.6375 2.02268C79.4315 3.05825 79.8285 4.44302 79.8285 5.83982C79.8285 7.05601 79.5638 8.17587 79.0225 9.05489C78.4811 9.92188 77.6631 10.548 76.5324 10.7889L76.2316 10.8491L76.5444 10.8852C77.6511 11.0056 78.5774 11.6438 79.215 12.6071C79.8525 13.5704 80.2254 14.8589 80.2254 16.2557C80.2254 17.7609 79.8164 19.1456 78.9383 20.1571C78.0481 21.1566 76.6767 21.7947 74.7159 21.7947H65.5253C64.5509 21.7947 63.8171 21.5419 63.3359 21.0482C62.8547 20.5545 62.6141 19.8079 62.6141 18.8085V3.26295H62.5179V18.8085C62.5179 19.832 62.7705 20.6026 63.2758 21.1204C63.781 21.6382 64.5389 21.8911 65.5253 21.8911H74.7159C76.7008 21.8911 78.1082 21.2529 79.0104 20.2173C79.9247 19.1938 80.3337 17.7849 80.3337 16.2557C80.3337 14.8348 79.9608 13.5343 79.3112 12.5469C78.6616 11.5595 77.7113 10.8972 76.5684 10.7768V10.825V10.8732C77.7233 10.6203 78.5774 9.98208 79.1307 9.09102C79.6841 8.19995 79.9488 7.06805 79.9488 5.82778C79.9488 4.40689 79.5397 2.99804 78.7338 1.95043C77.9278 0.890787 76.7128 0.192383 75.1249 0.192383H65.3569C64.4065 0.192383 63.6968 0.445253 63.2156 0.963036C62.7344 1.48082 62.5059 2.23943 62.5059 3.25091H62.554L62.5419 3.26295Z" fill="#FAF3E8"/>
<path d="M88.8763 19.0005C88.8763 20.9632 87.4448 21.9747 85.7847 21.9747C84.1246 21.9747 82.6931 20.9632 82.6931 19.0005V3.1178C82.6931 1.25138 84.0885 0.179688 85.7847 0.179688C87.4809 0.179688 88.8763 1.25138 88.8763 3.1178V19.0005Z" fill="#FAF3E8"/>
<path d="M88.8763 19.0011H88.8282C88.8282 19.9765 88.4793 20.699 87.9259 21.1927C87.3726 21.6864 86.6147 21.9272 85.7967 21.9272C84.9787 21.9272 84.2088 21.6743 83.6554 21.1927C83.1021 20.699 82.7652 19.9765 82.7652 19.0011V3.11844C82.7652 2.19125 83.1141 1.4808 83.6554 0.987102C84.2088 0.493402 84.9667 0.22849 85.7967 0.22849C86.6267 0.22849 87.3726 0.493402 87.9259 0.987102C88.4793 1.4808 88.8282 2.20329 88.8282 3.11844V19.0011H88.9244V3.11844C88.9244 2.16716 88.5635 1.42059 87.9861 0.902812C87.4087 0.397071 86.6267 0.120117 85.7847 0.120117C84.9426 0.120117 84.1486 0.397071 83.5833 0.902812C83.0058 1.40855 82.657 2.16716 82.657 3.1064V18.9891C82.657 19.9765 83.0179 20.7471 83.5833 21.2529C84.1607 21.7586 84.9426 22.0115 85.7847 22.0115C86.6267 22.0115 87.4087 21.7586 87.9861 21.2529C88.5635 20.7471 88.9244 19.9885 88.9244 18.9891H88.8763V19.0011Z" fill="#FAF3E8"/>
<path d="M102.902 2.99739C102.902 1.15505 104.237 0.179688 105.897 0.179688C107.461 0.179688 108.82 1.16709 108.82 2.99739V19.0005C108.82 20.8669 107.389 21.9747 105.897 21.9747C104.875 21.9747 103.864 21.5171 103.13 20.4455L97.3441 12.1368V19.157C97.3441 20.9994 96.0088 21.9747 94.3608 21.9747C92.7969 21.9747 91.4617 20.9873 91.4617 19.157V3.1178C91.4617 1.27546 92.8571 0.179688 94.3608 0.179688C95.4074 0.179688 96.4299 0.61318 97.1637 1.68487L102.926 9.99347V2.99739H102.902Z" fill="#FAF3E8"/>
<path d="M102.902 2.99802H102.95C102.95 2.09492 103.275 1.39651 103.804 0.938936C104.333 0.469319 105.067 0.22849 105.885 0.22849C106.655 0.22849 107.377 0.469319 107.906 0.938936C108.436 1.40855 108.772 2.09492 108.772 2.99802V19.0011C108.772 19.9283 108.423 20.6508 107.882 21.1565C107.341 21.6623 106.631 21.9272 105.897 21.9272C104.899 21.9272 103.888 21.4696 103.167 20.41L97.2841 11.9689V19.1456C97.2841 20.0487 96.9593 20.7471 96.43 21.2047C95.9007 21.6743 95.1669 21.9151 94.3489 21.9151C93.579 21.9151 92.8692 21.6743 92.3519 21.2047C91.8347 20.7351 91.5099 20.0487 91.5099 19.1456V3.11844C91.5099 2.21533 91.8587 1.49284 92.376 0.999143C92.9053 0.505444 93.6151 0.22849 94.3489 0.22849C95.3834 0.22849 96.3819 0.649941 97.1036 1.70959L102.95 10.1506V2.99802H102.854V9.83757L97.1878 1.66142C96.454 0.577692 95.4075 0.1442 94.3489 0.1442C93.591 0.1442 92.8572 0.421153 92.3038 0.938936C91.7625 1.45672 91.4016 2.20329 91.4016 3.13048V19.1697C91.4016 20.0969 91.7384 20.8194 92.2798 21.3131C92.8211 21.7947 93.5549 22.0476 94.3489 22.0476C95.1909 22.0476 95.9488 21.7947 96.5022 21.3131C97.0555 20.8314 97.3923 20.1089 97.3923 19.1697V12.3061L103.094 20.4822C103.828 21.5659 104.875 22.0356 105.897 22.0356C106.655 22.0356 107.401 21.7586 107.954 21.2408C108.508 20.723 108.869 19.9644 108.869 19.0132V2.99802C108.869 2.07083 108.52 1.34835 107.978 0.854646C107.437 0.372988 106.691 0.120117 105.897 0.120117C105.055 0.120117 104.297 0.372988 103.744 0.854646C103.191 1.3363 102.854 2.05879 102.854 2.99802H102.902Z" fill="#FAF3E8"/>
<path d="M117.541 19.0005C117.541 20.9632 116.109 21.9747 114.449 21.9747C112.789 21.9747 111.358 20.9632 111.358 19.0005V3.1178C111.358 1.25138 112.753 0.179688 114.449 0.179688C116.145 0.179688 117.541 1.25138 117.541 3.1178V19.0005Z" fill="#FAF3E8"/>
<path d="M117.543 19.0011H117.495C117.495 19.9765 117.146 20.699 116.592 21.1927C116.039 21.6864 115.281 21.9272 114.463 21.9272C113.645 21.9272 112.875 21.6743 112.322 21.1927C111.769 20.699 111.432 19.9765 111.432 19.0011V3.11844C111.432 2.19125 111.781 1.4808 112.322 0.987102C112.875 0.493402 113.633 0.22849 114.463 0.22849C115.293 0.22849 116.039 0.493402 116.592 0.987102C117.146 1.4808 117.495 2.20329 117.495 3.11844V19.0011H117.591V3.11844C117.591 2.16716 117.23 1.42059 116.653 0.902812C116.075 0.397071 115.293 0.120117 114.451 0.120117C113.609 0.120117 112.815 0.397071 112.25 0.902812C111.672 1.40855 111.323 2.16716 111.323 3.1064V18.9891C111.323 19.9765 111.684 20.7471 112.25 21.2529C112.827 21.7586 113.609 22.0115 114.451 22.0115C115.293 22.0115 116.075 21.7586 116.653 21.2529C117.23 20.7471 117.591 19.9885 117.591 18.9891H117.543V19.0011Z" fill="#FAF3E8"/>
<path d="M132.303 15.4013C132.303 18.6164 129.716 21.2294 126.516 21.2294C123.317 21.2294 120.73 18.6164 120.73 15.4013C120.73 12.1862 123.317 9.57324 126.516 9.57324C129.716 9.57324 132.303 12.1862 132.303 15.4013Z" fill="#FAF3E8"/>
<path d="M131.04 15.5328V15.5449V15.569L131.052 15.593V15.6171V15.6412V15.6894C131.052 15.6894 131.04 15.7737 131.028 15.8098C131.028 15.858 131.028 15.8941 131.028 15.9422V16.0025V16.0627C131.028 16.1108 131.028 16.147 131.04 16.1951C131.04 16.1951 131.04 16.2794 131.04 16.3035L131.016 16.3517L130.98 16.3757H130.919H130.895L130.871 16.3517C130.847 16.3276 130.847 16.2914 130.847 16.2553V16.1951C130.847 16.1951 130.847 16.0988 130.847 16.0506V16.0145C130.847 16.0145 130.811 15.9422 130.799 15.9182C130.775 15.882 130.739 15.8459 130.703 15.8218C130.667 15.7978 130.631 15.7737 130.583 15.7616C130.498 15.7375 130.414 15.7255 130.318 15.7255C130.222 15.7255 130.137 15.7255 130.053 15.7857L129.981 15.8339L129.945 15.8941C129.945 15.8941 129.921 16.0025 129.921 16.0627C129.921 16.1229 129.945 16.171 129.969 16.2192C129.969 16.2192 130.029 16.3035 130.053 16.3396L130.101 16.3757L130.161 16.3998H130.222L130.282 16.4239C130.318 16.4239 130.366 16.4359 130.402 16.4359C130.438 16.4359 130.486 16.4359 130.522 16.448C130.607 16.448 130.691 16.4721 130.763 16.4962L130.823 16.5202L130.883 16.5443C130.883 16.5443 130.955 16.5804 130.992 16.6166C131.052 16.6647 131.112 16.737 131.136 16.8092C131.172 16.8815 131.184 16.9658 131.172 17.038C131.172 17.1223 131.16 17.1946 131.136 17.2668C131.112 17.3391 131.076 17.4113 131.028 17.4715C131.028 17.4715 130.943 17.5558 130.895 17.5919C130.859 17.616 130.835 17.6401 130.799 17.6521C130.715 17.7003 130.607 17.7244 130.51 17.7364C130.414 17.7364 130.306 17.7364 130.21 17.7364C130.113 17.7244 130.017 17.6883 129.945 17.6401C129.897 17.628 129.861 17.604 129.837 17.5799V17.616V17.6642V17.6883V17.7123L129.801 17.7605H129.777L129.752 17.7725H129.668L129.584 17.7364H129.572V17.7123V17.6762V17.6521V17.616V17.5919V17.5678C129.572 17.5678 129.572 17.4956 129.584 17.4595V17.3511V17.2548V17.2066V17.1584C129.584 17.1584 129.584 17.0982 129.584 17.0621C129.584 17.026 129.584 17.0019 129.572 16.9658L129.56 16.8815V16.8333V16.8092V16.7851C129.56 16.7851 129.596 16.7009 129.632 16.6768H129.656L129.692 16.6527H129.752H129.777H129.813L129.849 16.6768L129.873 16.7009C129.873 16.7009 129.921 16.7851 129.933 16.8213V16.8454V16.8694V16.9899C129.933 16.9899 129.933 17.0862 129.945 17.1344C129.957 17.1825 129.981 17.2186 130.005 17.2668C130.053 17.3511 130.149 17.4113 130.246 17.4354C130.426 17.4836 130.655 17.4595 130.787 17.327C130.823 17.2909 130.847 17.2548 130.859 17.2186C130.871 17.1705 130.883 17.1344 130.883 17.0862C130.883 16.9899 130.859 16.9056 130.787 16.8333H130.763L130.739 16.8213C130.691 16.7851 130.607 16.7731 130.558 16.7731C130.474 16.7611 130.39 16.737 130.306 16.7129H130.246L130.186 16.6888C130.149 16.6888 130.101 16.6768 130.065 16.6768H130.041L130.005 16.6527L129.945 16.6286C129.945 16.6286 129.861 16.5925 129.825 16.5564C129.789 16.5323 129.752 16.4962 129.728 16.46C129.704 16.4239 129.68 16.3878 129.656 16.3517C129.62 16.2674 129.596 16.1831 129.596 16.0988C129.596 16.0145 129.608 15.9182 129.644 15.8459V15.7737L129.692 15.7135L129.716 15.6773H129.74L129.777 15.6051L129.825 15.5569L129.885 15.5088L129.945 15.4726H129.957L129.981 15.4365C129.981 15.4365 130.041 15.4365 130.065 15.4245L130.113 15.4004H130.161V15.4124H130.186L130.222 15.4004H130.246L130.282 15.3763H130.318H130.306H130.342L130.354 15.3643L130.33 15.3763L130.354 15.4124H130.438C130.438 15.4124 130.438 15.4485 130.426 15.4365V15.4606H130.474H130.51L130.522 15.4967H130.558H130.571H130.619H130.679C130.679 15.4967 130.715 15.5328 130.751 15.5449H130.787L130.823 15.593V15.569L130.847 15.4847L130.907 15.4606H130.931H130.955H130.98L131.04 15.5328ZM129.368 16.9899V17.0501C129.368 17.0501 129.343 17.1223 129.343 17.1584C129.331 17.2307 129.319 17.3029 129.307 17.3752C129.307 17.4113 129.307 17.4474 129.307 17.4956V17.5558V17.616L129.271 17.6762L129.211 17.7123H129.151L129.091 17.7003C129.031 17.7003 128.971 17.6883 128.91 17.6883C128.85 17.6883 128.79 17.6883 128.718 17.6883C128.598 17.7003 128.465 17.7123 128.345 17.7003C128.249 17.7003 128.153 17.7003 128.068 17.7003C127.972 17.7003 127.888 17.7003 127.792 17.7003C127.792 17.7003 127.695 17.7003 127.647 17.7123C127.647 17.7123 127.575 17.7123 127.527 17.7003L127.479 17.6642L127.455 17.604V17.5678V17.5317L127.491 17.4836H127.551L127.611 17.4715C127.647 17.4715 127.683 17.4836 127.719 17.4715C127.756 17.4715 127.792 17.4595 127.804 17.4354C127.828 17.4113 127.84 17.3752 127.84 17.3391C127.84 17.3029 127.84 17.2668 127.84 17.2307C127.816 17.0982 127.816 16.9537 127.816 16.8213C127.816 16.7129 127.816 16.6045 127.792 16.4962C127.792 16.3998 127.792 16.3035 127.792 16.2072C127.792 16.2072 127.78 16.1108 127.768 16.0506V15.9663L127.756 15.8941V15.8459L127.719 15.8218H127.683H127.647H127.635H127.575H127.551H127.527H127.503C127.503 15.8218 127.407 15.7737 127.383 15.7255V15.6894L127.371 15.6533L127.395 15.581L127.419 15.5449H127.431L127.443 15.5208H127.479V15.4967H127.491H127.599H127.635C127.671 15.4967 127.719 15.4967 127.756 15.5088C127.792 15.5088 127.84 15.5088 127.876 15.5208H127.936H127.996C128.032 15.5208 128.068 15.5208 128.116 15.5208C128.153 15.5208 128.201 15.5208 128.237 15.5208H128.297H128.321H128.357H128.369H128.381H128.417H128.453L128.465 15.5449H128.477V15.5569H128.501V15.569V15.581V15.6051L128.513 15.6171V15.6894C128.513 15.7255 128.489 15.7616 128.453 15.7857H128.429H128.405L128.381 15.7977H128.285V15.7857H128.261H128.237H128.189L128.153 15.858V15.9302C128.153 15.9302 128.141 15.9784 128.141 16.0145C128.141 16.0747 128.141 16.1349 128.141 16.1951C128.141 16.3155 128.141 16.4359 128.141 16.5564L128.165 16.5925L128.141 16.6888C128.165 16.749 128.153 16.8213 128.165 16.8935H128.153C128.153 16.8935 128.177 16.8935 128.165 16.9417C128.165 16.9417 128.189 17.0139 128.165 17.0621H128.141V17.0741V17.1103L128.177 17.1825L128.189 17.2066H128.141V17.2668H128.116L128.092 17.3029V17.3511V17.3752C128.092 17.3993 128.068 17.3752 128.092 17.4113H128.104V17.4354H128.141H128.153L128.165 17.4595H128.177H128.201H128.273V17.4474C128.321 17.4474 128.381 17.4474 128.429 17.4595C128.513 17.4715 128.598 17.4956 128.67 17.4715C128.706 17.4715 128.73 17.4715 128.766 17.4715C128.802 17.4715 128.838 17.4715 128.874 17.4715C128.91 17.4715 128.947 17.4474 128.983 17.4354C129.019 17.4113 129.031 17.3752 129.043 17.3391C129.043 17.3029 129.055 17.2668 129.055 17.2307V17.1705V17.1344C129.055 17.0621 129.055 17.0019 129.055 16.9296C129.055 16.8935 129.055 16.8574 129.055 16.8213V16.7972L129.091 16.7851H129.151L129.175 16.7731H129.199L129.259 16.8092H129.271V16.8333V16.8694L129.295 16.9056V16.9417V17.0019L129.368 16.9899ZM127.395 17.616V17.6521L127.371 17.6883L127.347 17.7123H127.31L127.25 17.7485H127.226H127.202H127.19C127.13 17.7485 127.07 17.7485 127.01 17.7485C126.95 17.7485 126.901 17.7485 126.841 17.7485H126.673H126.625H126.577C126.577 17.7485 126.517 17.7485 126.48 17.7605H126.468H126.444H126.42L126.36 17.7485C126.324 17.7485 126.276 17.7123 126.264 17.6642C126.252 17.6281 126.24 17.5799 126.264 17.5317V17.4956V17.4715L126.288 17.4474H126.312L126.348 17.4233H126.384H126.432H126.456H126.468H126.48H126.505H126.517C126.517 17.4233 126.601 17.4233 126.637 17.3872V17.3511V17.2427V17.1705V17.0982C126.637 17.0982 126.661 17.0019 126.637 16.9658C126.637 16.7851 126.613 16.6045 126.637 16.4359L126.613 16.3998L126.637 16.3276C126.637 16.3276 126.625 16.2312 126.613 16.1831H126.625L126.613 16.147C126.613 16.147 126.589 16.0867 126.613 16.0506H126.637V16.0386V16.0145L126.601 15.9663L126.589 15.9422L126.625 15.9302V15.9061H126.661L126.685 15.87V15.8339V15.8218V15.7977L126.661 15.7737H126.637V15.7616L126.613 15.7255H126.565H126.517H126.492H126.468H126.42H126.396H126.372L126.3 15.6773V15.6171L126.336 15.569L126.384 15.5449H126.42H126.456C126.553 15.5449 126.649 15.5449 126.757 15.569C126.865 15.5569 126.974 15.5208 127.07 15.4967H127.154L127.19 15.4847H127.238L127.323 15.5088L127.371 15.581V15.6171V15.6412L127.347 15.7014L127.286 15.7375H127.226H127.214H127.142H127.07L127.022 15.7857C127.022 15.7857 126.998 15.87 126.998 15.9182C126.998 15.9663 126.998 16.0145 127.01 16.0627C127.01 16.1108 127.01 16.147 127.01 16.1951C127.022 16.3637 126.974 16.5443 126.998 16.7129C126.998 16.8213 126.998 16.9296 126.998 17.0501C126.998 17.1103 126.998 17.1584 126.998 17.2186C126.998 17.2788 126.998 17.327 127.01 17.3752C127.034 17.4113 127.058 17.4354 127.094 17.4474H127.142H127.202H127.25H127.274H127.298H127.323H127.371L127.431 17.5197V17.5438L127.443 17.5678V17.616H127.395ZM126.12 15.9182V15.9904V16.0627C126.108 16.1349 126.108 16.2192 126.12 16.3035V16.3637L126.083 16.4119H126.071L126.047 16.4239H126.011H125.975L125.915 16.3878L125.879 16.3276V16.2674V16.2072C125.879 16.171 125.879 16.1229 125.879 16.0867V16.0265V15.9904V15.9663C125.879 15.9663 125.879 15.8941 125.855 15.87L125.795 15.8098C125.795 15.8098 125.735 15.7857 125.699 15.7857C125.662 15.7857 125.626 15.7737 125.59 15.7737C125.518 15.7737 125.446 15.7616 125.374 15.7616C125.302 15.7616 125.229 15.7616 125.157 15.7737H125.097L125.049 15.8098V15.87L125.025 15.9302C125.025 15.9784 125.025 16.0145 125.025 16.0627C125.025 16.147 125.025 16.2312 125.025 16.3155V16.3757L125.049 16.4239H125.097L125.157 16.448H125.277C125.277 16.448 125.362 16.448 125.386 16.4359L125.446 16.3637V16.3155V16.2553C125.446 16.2192 125.446 16.171 125.434 16.1349C125.434 16.0988 125.434 16.0386 125.482 16.0025L125.554 15.9663H125.566H125.59H125.626L125.686 16.0145L125.711 16.0506V16.0867V16.1229V16.159V16.2192C125.711 16.2192 125.711 16.3035 125.711 16.3396C125.711 16.3998 125.699 16.46 125.686 16.5202V16.5684V16.6166V16.7129L125.711 16.7972L125.735 16.8815V16.9176L125.759 16.9658V17.0501V17.0741V17.0982V17.1344L125.735 17.1705C125.711 17.2066 125.674 17.2427 125.626 17.2548H125.59H125.554H125.518L125.482 17.2427C125.434 17.2307 125.41 17.1825 125.386 17.1464C125.374 17.0982 125.374 17.0621 125.374 17.038V16.9537L125.386 16.8815V16.8454V16.8213V16.7972L125.314 16.7851C125.265 16.7851 125.205 16.7851 125.145 16.7851H125.073L125.061 16.8092V16.8333V16.8815V16.9296V17.2427C125.061 17.2427 125.061 17.315 125.061 17.3391V17.3872L125.085 17.4233H125.097L125.121 17.4595H125.157H125.205H125.302C125.302 17.4595 125.374 17.4715 125.41 17.4956L125.434 17.5076H125.458V17.5317V17.5678L125.482 17.604V17.6401L125.47 17.6762C125.446 17.7244 125.41 17.7605 125.362 17.7725H125.338H125.314H125.277H125.241H125.205C125.157 17.7725 125.121 17.7605 125.085 17.7485H125.025L124.965 17.7364C124.929 17.7364 124.893 17.7364 124.856 17.7485C124.736 17.7485 124.628 17.7605 124.508 17.7846H124.484H124.472H124.435H124.411H124.387L124.363 17.7725H124.339L124.315 17.7364C124.255 17.6883 124.255 17.5919 124.267 17.5317L124.291 17.4836L124.339 17.4474H124.363L124.387 17.4354H124.411H124.435H124.472H124.508H124.52H124.532H124.556L124.58 17.4113H124.592C124.592 17.4113 124.592 17.327 124.592 17.2909V17.1584H124.604C124.604 17.1584 124.58 17.1464 124.58 17.1103H124.592C124.592 17.1103 124.568 17.0139 124.592 16.9537H124.616V16.9417L124.604 16.9056L124.568 16.8213L124.556 16.7851L124.604 16.7611V16.7009C124.604 16.7009 124.64 16.7009 124.64 16.7129C124.7 16.7129 124.64 16.6166 124.688 16.6045V16.5804C124.688 16.5804 124.688 16.5804 124.688 16.5443H124.676C124.676 16.5443 124.616 16.4721 124.652 16.4359C124.652 16.4359 124.616 16.3276 124.652 16.2674C124.652 16.2072 124.652 16.1349 124.664 16.0747V16.0145C124.664 16.0145 124.688 15.9302 124.664 15.882L124.64 15.8218L124.592 15.7857H124.58L124.532 15.7616H124.496H124.459H124.423L124.387 15.7255V15.6773V15.6292V15.6051L124.411 15.593C124.435 15.581 124.472 15.581 124.496 15.581C124.532 15.581 124.556 15.581 124.592 15.581H124.7L124.76 15.593H124.82C124.82 15.593 124.905 15.593 124.953 15.593H125.001L125.085 15.581C125.169 15.581 125.253 15.5569 125.338 15.5569C125.506 15.5449 125.674 15.5449 125.843 15.5569H125.891H125.939C125.987 15.569 126.035 15.581 126.059 15.6171L126.083 15.6894V15.7135V15.7375V15.7737C126.083 15.7737 126.083 15.882 126.083 15.9422M123.762 17.0621C123.762 17.1344 123.762 17.2186 123.726 17.2909C123.69 17.3631 123.641 17.4354 123.593 17.4956C123.533 17.5558 123.461 17.604 123.401 17.6521C123.329 17.6883 123.257 17.7244 123.172 17.7605C123.172 17.7605 123.112 17.7605 123.076 17.7725C123.04 17.7725 123.016 17.7725 122.98 17.7725C122.944 17.7725 122.92 17.7725 122.884 17.7725C122.848 17.7725 122.823 17.7725 122.787 17.7725C122.667 17.7725 122.547 17.7605 122.439 17.7123C122.33 17.6762 122.222 17.604 122.138 17.5197C122.054 17.4354 121.993 17.3029 121.993 17.1825C121.993 17.1223 121.993 17.0501 122.017 16.9899C122.042 16.9296 122.066 16.8694 122.114 16.8092C122.138 16.7851 122.174 16.7611 122.21 16.737C122.246 16.7249 122.282 16.7129 122.33 16.7009C122.366 16.7009 122.414 16.7009 122.451 16.7129H122.475L122.499 16.749L122.547 16.7972L122.571 16.8574V16.9176V16.9778L122.547 17.038L122.499 17.0862L122.439 17.1103H122.426H122.414H122.39V17.1584V17.1825V17.2186C122.426 17.2668 122.475 17.315 122.535 17.3511H122.559H122.583C122.583 17.3511 122.715 17.3993 122.775 17.3872C122.86 17.3872 122.944 17.3993 123.016 17.3872C123.088 17.3872 123.172 17.3511 123.208 17.2909C123.269 17.2548 123.317 17.1946 123.353 17.1464C123.389 17.0862 123.401 17.026 123.401 16.9537C123.401 16.8815 123.401 16.8092 123.377 16.7611L123.329 16.6888L123.257 16.6286H123.208L123.184 16.6166H123.16L123.112 16.5804C123.04 16.5925 122.956 16.5804 122.872 16.6045L122.86 16.5925C122.848 16.5925 122.86 16.6166 122.835 16.6166H122.799H122.775H122.763L122.739 16.6286H122.727H122.715L122.631 16.6045H122.643V16.5804V16.5443H122.631H122.607L122.595 16.5082V16.4841V16.46V16.4239V16.3998L122.607 16.3396H122.631V16.3155V16.3035L122.679 16.3155L122.715 16.2794C122.715 16.2794 122.739 16.3035 122.727 16.3155C122.775 16.3517 122.787 16.2433 122.835 16.2794V16.2433C122.835 16.2433 122.86 16.2674 122.884 16.2433C122.884 16.2433 122.884 16.147 122.932 16.1349C122.992 16.147 122.992 16.0386 123.064 16.0145L123.136 15.9422L123.184 15.9061L123.22 15.882C123.22 15.882 123.281 15.8339 123.317 15.8098C123.353 15.7857 123.389 15.7496 123.413 15.7255C123.377 15.7255 123.329 15.7255 123.281 15.7255C123.244 15.7255 123.208 15.7255 123.16 15.7135H123.076H123.016C122.932 15.7135 122.848 15.7135 122.763 15.7135C122.715 15.7135 122.679 15.7135 122.631 15.7135H122.547L122.499 15.7255L122.439 15.7496L122.402 15.8098V15.882V15.9543V16.0265L122.426 16.0627V16.0988V16.1349V16.171L122.378 16.2312H122.306L122.234 16.2192C122.198 16.171 122.198 16.1108 122.198 16.0747C122.198 16.0265 122.198 15.9784 122.198 15.9302V15.858V15.7857C122.198 15.7375 122.198 15.6894 122.198 15.6412V15.569L122.222 15.5328L122.246 15.5088H122.27H122.342H122.414C122.414 15.5088 122.523 15.5088 122.583 15.4967C122.643 15.4967 122.703 15.4847 122.751 15.4847C122.799 15.4847 122.86 15.4847 122.908 15.4847C122.992 15.4847 123.064 15.4847 123.148 15.4847C123.232 15.4847 123.317 15.4726 123.389 15.4606C123.425 15.4606 123.473 15.4606 123.509 15.4606H123.569H123.629H123.702L123.762 15.5208L123.786 15.593V15.6653C123.786 15.6653 123.726 15.7375 123.702 15.7737L123.617 15.858C123.617 15.858 123.497 15.9543 123.449 16.0025C123.389 16.0506 123.329 16.0988 123.281 16.147C123.232 16.1951 123.172 16.2433 123.136 16.2914H123.112V16.3035H123.196H123.232H123.269H123.329H123.365L123.401 16.3155C123.497 16.3396 123.581 16.3998 123.653 16.46C123.726 16.5323 123.774 16.6166 123.798 16.7129C123.822 16.8092 123.822 16.9056 123.822 16.9899" fill="#FAF3E8"/>
<path d="M125.29 14.0514C125.29 14.1478 125.302 14.208 125.326 14.232C125.35 14.2441 125.374 14.2561 125.422 14.2561C125.47 14.2561 125.53 14.2561 125.614 14.2561C125.915 14.2561 126.059 14.1478 126.059 13.919C126.059 13.7143 125.915 13.6179 125.626 13.6179H125.41C125.338 13.6179 125.302 13.63 125.29 13.6541C125.29 13.6661 125.29 13.7022 125.29 13.7504V14.0394V14.0514ZM125.29 13.2206C125.29 13.2928 125.29 13.353 125.302 13.3771C125.314 13.3891 125.35 13.4012 125.41 13.4012H125.554C125.831 13.4012 125.975 13.3169 125.975 13.1363C125.975 12.9797 125.867 12.8954 125.638 12.8954C125.47 12.8954 125.362 12.8954 125.326 12.9195C125.326 12.9195 125.29 12.9797 125.29 13.064V13.2326V13.2206ZM126.3 13.1122C126.3 13.1965 126.276 13.2808 126.24 13.3289C126.204 13.3891 126.144 13.4373 126.047 13.4855C126.096 13.4975 126.12 13.5216 126.144 13.5336C126.3 13.63 126.384 13.7624 126.384 13.931C126.384 14.0996 126.312 14.2441 126.18 14.3525C126.047 14.4488 125.879 14.509 125.65 14.509C125.614 14.509 125.566 14.509 125.518 14.509C125.47 14.509 125.422 14.509 125.362 14.509C125.302 14.509 125.253 14.509 125.217 14.509C125.181 14.509 125.145 14.509 125.121 14.509C125.073 14.509 125.025 14.509 124.989 14.509H124.856V14.521H124.832C124.736 14.521 124.676 14.4729 124.676 14.3886C124.676 14.3043 124.712 14.2682 124.796 14.2682C124.796 14.2682 124.808 14.2682 124.832 14.2682C124.844 14.2682 124.868 14.2682 124.881 14.2682H124.893C124.893 14.2682 124.905 14.2682 124.917 14.2682H124.929C124.929 14.2682 125.013 14.22 125.013 14.1116V13.052C125.013 12.9436 124.989 12.8954 124.929 12.8954C124.929 12.8954 124.929 12.8954 124.905 12.8954C124.881 12.8954 124.881 12.8954 124.868 12.8954C124.868 12.8954 124.808 12.8954 124.796 12.8954C124.712 12.8954 124.676 12.8593 124.676 12.775C124.676 12.6907 124.724 12.6426 124.844 12.6426H124.881L125.013 12.6667C125.013 12.6667 125.097 12.6667 125.157 12.6667C125.217 12.6667 125.314 12.6667 125.434 12.6546C125.434 12.6546 125.518 12.6546 125.566 12.6546C125.614 12.6546 125.662 12.6546 125.711 12.6546C125.903 12.6546 126.059 12.6907 126.156 12.775C126.264 12.8593 126.312 12.9677 126.312 13.1122" fill="#FAF3E8"/>
<path d="M127.309 13.8832C127.309 13.8832 127.309 13.8591 127.309 13.847V13.8109C127.225 13.6785 127.141 13.546 127.056 13.4135C126.972 13.2811 126.888 13.1486 126.804 13.0162L126.744 12.9319C126.72 12.9078 126.696 12.8958 126.684 12.8958C126.659 12.8958 126.659 12.8958 126.647 12.8958H126.623C126.623 12.8958 126.623 12.8958 126.611 12.8958H126.599C126.491 12.8958 126.431 12.8476 126.431 12.7633C126.431 12.679 126.479 12.6309 126.575 12.6309C126.587 12.6309 126.611 12.6309 126.623 12.6309C126.647 12.6309 126.659 12.6309 126.684 12.6309C126.732 12.6309 126.768 12.6429 126.804 12.6429C126.84 12.6429 126.876 12.6429 126.912 12.6429C126.96 12.6429 127.044 12.6429 127.153 12.6188C127.189 12.6188 127.225 12.6188 127.249 12.6188C127.345 12.6188 127.405 12.667 127.405 12.7513C127.405 12.8356 127.345 12.8717 127.237 12.8717H127.213H127.153H127.117L127.477 13.4858C127.538 13.3774 127.598 13.269 127.658 13.1727C127.718 13.0764 127.778 12.968 127.838 12.8596H127.802H127.73H127.706H127.682C127.586 12.8596 127.526 12.8115 127.526 12.7272C127.526 12.6429 127.574 12.5947 127.682 12.5947C127.694 12.5947 127.706 12.5947 127.73 12.5947C127.742 12.5947 127.766 12.5947 127.778 12.5947C127.826 12.5947 127.874 12.6068 127.911 12.6068C127.959 12.6068 127.995 12.6068 128.019 12.6068C128.055 12.6068 128.091 12.6068 128.139 12.6068C128.175 12.6068 128.223 12.6068 128.271 12.5947C128.308 12.5947 128.332 12.5947 128.368 12.5947C128.464 12.5947 128.512 12.6429 128.512 12.7272C128.512 12.8115 128.464 12.8476 128.368 12.8476C128.344 12.8476 128.32 12.8476 128.295 12.8476C128.295 12.8476 128.295 12.8476 128.283 12.8476C128.283 12.8476 128.283 12.8476 128.271 12.8476C128.271 12.8476 128.259 12.8476 128.247 12.8476C128.223 12.8476 128.199 12.8596 128.175 12.8958L128.139 12.956C128.055 13.0884 127.971 13.2209 127.886 13.3533C127.802 13.4858 127.718 13.6182 127.634 13.7507V13.8591C127.634 13.9434 127.634 14.0156 127.634 14.0758C127.634 14.124 127.634 14.1722 127.646 14.1842C127.646 14.1842 127.682 14.2203 127.718 14.2203C127.718 14.2203 127.73 14.2203 127.742 14.2203C127.754 14.2203 127.766 14.2203 127.778 14.2203H127.85C127.935 14.2203 127.983 14.2564 127.983 14.3287C127.983 14.413 127.923 14.4612 127.826 14.4612H127.802C127.802 14.4612 127.802 14.4612 127.778 14.4612L127.634 14.4371C127.634 14.4371 127.586 14.4371 127.55 14.4371C127.526 14.4371 127.502 14.4371 127.477 14.4371C127.453 14.4371 127.429 14.4371 127.405 14.4371C127.381 14.4371 127.357 14.4371 127.321 14.4371L127.189 14.4612C127.189 14.4612 127.189 14.4612 127.177 14.4612H127.153C127.044 14.4612 126.984 14.413 126.984 14.3287C126.984 14.2444 127.02 14.2083 127.105 14.2083H127.129C127.153 14.2083 127.165 14.2083 127.177 14.2083C127.189 14.2083 127.201 14.2083 127.213 14.2083H127.237C127.261 14.2083 127.285 14.2083 127.297 14.1842C127.309 14.1601 127.321 14.136 127.333 14.0999C127.333 14.0879 127.333 14.0638 127.333 14.0277V13.823L127.309 13.8832Z" fill="#FAF3E8"/>
</svg>
