<svg width="74" height="34" viewBox="0 0 74 34" fill="none" xmlns="http://www.w3.org/2000/svg">
<path d="M25.571 14.6626L27.9306 14.1912C28.2742 16.0129 29.5179 17.0862 31.4887 17.0862C33.1399 17.0862 33.9974 16.4417 33.9974 15.4137C33.9974 14.3857 33.2464 13.8264 30.8229 13.4615C27.2648 12.9049 26.1276 11.4668 26.1276 9.5173C26.1276 7.24557 27.8001 5.78613 30.9294 5.78613C34.317 5.78613 35.6886 7.60777 36.1813 9.96738L33.779 10.4601C33.3716 8.76627 32.6419 7.8661 30.8202 7.8661C29.3847 7.8661 28.5911 8.5106 28.5911 9.47468C28.5911 10.3322 29.0625 10.9528 31.8935 11.4268C35.5181 12.0047 36.4822 13.5068 36.4822 15.3284C36.4822 17.6454 34.8736 19.2087 31.3369 19.2087C27.4353 19.1874 25.8693 17.1501 25.5684 14.6626H25.571Z" fill="#FAF3E8"/>
<path d="M45.1884 15.7358H39.6569L38.4558 18.9317H35.9258L41.0711 6.06836H43.8595L49.0048 18.9317H46.3682L45.1884 15.7358ZM40.4266 13.7411H44.4348L43.8781 12.2417C43.4068 11.0193 42.9141 9.69033 42.5066 8.46792H42.3574C41.95 9.69033 41.4573 11.0193 40.9859 12.2417L40.4293 13.7411H40.4266Z" fill="#FAF3E8"/>
<path d="M54.126 13.0777C53.3963 11.8126 52.3683 9.8179 51.6812 8.38243H51.6386C51.7025 9.9697 51.7238 11.9405 51.7238 13.2934V18.9314H49.3855V6.06543H52.9862L55.7745 11.1042C56.6534 12.6915 57.6388 14.6197 58.3259 16.0365H58.3472C58.3259 14.5584 58.3046 12.9711 58.3046 11.7061V6.06809H60.6429V18.9314H57.447L54.1234 13.0777H54.126Z" fill="#FAF3E8"/>
<path d="M62.2302 6.06543H67.4608C71.8764 6.06543 73.999 8.53157 73.999 12.3906C73.999 16.2496 71.6181 18.9288 67.5034 18.9288H62.2302V6.06543ZM64.6751 8.12409V16.8728H67.269C70.2918 16.8728 71.5781 15.1789 71.5781 12.3906C71.5781 9.60218 70.2066 8.12409 67.1412 8.12409H64.6751Z" fill="#FAF3E8"/>
<path d="M25.571 29.0445L27.9306 28.5731C28.2742 30.3947 29.5179 31.468 31.4887 31.468C33.1399 31.468 33.9974 30.8235 33.9974 29.7955C33.9974 28.7675 33.2464 28.2082 30.8229 27.8434C27.2648 27.2867 26.1276 25.8486 26.1276 23.8991C26.1276 21.6274 27.8001 20.168 30.9294 20.168C34.317 20.168 35.6886 21.9896 36.1813 24.3492L33.779 24.8419C33.3716 23.1481 32.6419 22.2479 30.8202 22.2479C29.3847 22.2479 28.5911 22.8924 28.5911 23.8565C28.5911 24.7141 29.0625 25.3346 31.8935 25.8087C35.5181 26.3866 36.4822 27.8886 36.4822 29.7103C36.4822 32.0273 34.8736 33.5906 31.3369 33.5906C27.4353 33.5693 25.8693 31.5319 25.5684 29.0445H25.571Z" fill="#FAF3E8"/>
<path d="M40.043 28.8526V33.3135H37.5981V20.4502H42.5943C45.681 20.4502 47.2683 21.8644 47.2683 24.6527C47.2683 27.055 45.5958 28.8553 42.6796 28.8553H40.043V28.8526ZM40.043 22.6127V26.6874H42.4239C43.9472 26.6874 44.7409 26.0429 44.7409 24.6501C44.7409 23.2572 44.0325 22.6127 42.3813 22.6127H40.043Z" fill="#FAF3E8"/>
<path d="M48.2749 33.3106V20.4473H50.7197V33.3106H48.2749Z" fill="#FAF3E8"/>
<path d="M56.8934 28.2079H54.7495V33.3106H52.3047V20.4473H57.9001C60.9229 20.4473 62.3823 21.8401 62.3823 24.1784C62.3823 26.2371 61.333 27.5447 59.4448 28.0161L63.2185 33.268V33.3106H60.2597L56.8934 28.2079ZM54.7495 22.6125V26.0427H57.6657C59.1438 26.0427 59.9801 25.3982 59.9801 24.2423C59.9801 23.2143 59.3808 22.6125 57.7936 22.6125H54.7495Z" fill="#FAF3E8"/>
<path d="M64.3953 20.447H73.6366V22.7613H66.8401V25.6562H73.0374V27.928H66.8401V30.9933H73.6579V33.3077H64.3953V20.4443V20.447Z" fill="#FAF3E8"/>
<path d="M0 0.37207V4.9741L20.1419 25.3903V20.7883L0 0.37207Z" fill="#F7941D"/>
<path d="M0 7.17383V11.7759L20.1419 32.1921V27.59L0 7.17383Z" fill="#F7941D"/>
<path d="M24.2959 1.17884C23.3159 0.209426 21.1214 0.720763 19.8883 0.56896C19.3104 0.497053 18.7298 -0.237994 17.9788 0.0789281L17.9868 8.41479L14.2689 4.7289C13.5499 4.00983 12.5831 3.21087 11.4566 2.69154C9.42987 1.75409 7.02499 2.25211 5.44837 3.83406L4.44434 4.84076L13.153 13.6693V20.5031L14.8815 22.2475L14.8761 20.0131C15.5872 19.2408 15.1292 18.3566 15.3395 17.2886C15.4381 16.7826 15.9681 16.5722 15.9681 16.5722V33.0948C15.9681 33.0948 15.7017 32.3331 14.8335 32.0854L14.8602 26.8256L13.1557 25.1078V33.5795H19.0201C18.8603 32.8924 18.3037 32.4077 17.6619 32.184L17.6486 19.5444C17.6885 19.2993 17.8989 19.065 17.9495 18.7933L18.0534 13.6374C20.0028 13.2592 20.3704 11.6666 20.405 10.785L20.4103 3.79944C20.8178 3.3387 21.8165 3.58904 22.1414 3.45855C22.3891 3.36001 22.5355 3.00846 22.9084 2.93123C23.2706 2.85666 23.8512 3.00314 24.1441 2.86998C24.5756 2.67556 24.6768 1.54636 24.3039 1.17617L24.2959 1.17884Z" fill="#FAF3E8"/>
<path d="M0.531996 18.5912C0.531996 18.3941 0.489385 18.1997 0.412151 18.0212C0.345571 17.8694 0.268338 17.675 0.2204 17.5046C-0.0539111 16.5085 0.508027 16.2475 1.11258 15.651C1.57065 15.1982 2.13791 14.7455 2.61197 14.3007C2.32434 12.7188 2.15656 10.8918 3.102 8.12207L8.53495 13.6296H7.18204C6.85713 13.6296 6.73995 13.6962 6.60945 13.7867L2.80904 17.5925C2.40424 17.9653 2.23379 18.2396 2.2258 18.9507L2.20183 32.1869C2.85965 32.4319 3.39229 32.9246 3.58138 33.6144H0.531996V18.5885V18.5912Z" fill="#FAF3E8"/>
<path d="M14.943 26.924L12.7485 24.7029V20.1035L14.943 22.3193V26.924Z" fill="#F7941D"/>
</svg>
